<svg width="1238" height="803" viewBox="0 0 1238 803" fill="none" xmlns="http://www.w3.org/2000/svg">
<path d="M1230.5 641.089C1223.49 698.771 1211.32 704.066 1211.32 704.066C1211.32 704.066 1215.19 666.853 1203.74 635.507C1192.29 604.162 1180.83 552.348 1209.46 499.82C1238.09 447.291 1232.36 434.409 1222.77 421.098C1226.06 432.549 1225.63 454.448 1202.3 474.486C1178.97 494.524 1152.64 556.499 1152.64 556.499C1135.46 481.642 1195.58 404.781 1199.44 339.371C1201.88 315.468 1184.7 268.808 1152.21 225.296C1119.72 181.785 1140.76 145.43 1143.62 133.693C1113.56 151.871 1116.86 198.531 1130.74 236.317C1144.62 274.104 1146.05 305.02 1146.05 305.02C1053.02 171.909 1102.97 125.392 1113.13 97.4812C1123.3 69.5708 1133.17 29.4944 1112.42 0.582092C1121.01 28.2062 1110.27 55.9734 1088.09 86.7464C1065.9 117.519 1039.14 205.831 1080.21 306.451C1121.29 407.071 1096.39 443.856 1096.39 443.856C1096.39 443.856 1095.39 396.194 1070.62 359.839C1045.86 323.627 1045.86 292.138 1038.71 276.823C1034.41 291.136 1035.84 314.037 1054.02 365.134C1072.2 416.232 1031.26 494.381 1015.09 520.86C1018.67 511.127 1016.95 490.946 1015.52 481.356C1018.1 470.192 1031.12 453.302 1010.37 419.238C989.613 385.173 996.77 359.839 1001.06 352.253C979.594 363.703 978.449 388.035 985.605 402.778C992.762 417.52 996.77 446.862 995.625 444.285C994.48 441.709 983.745 430.402 960.844 416.661C923.201 396.194 915.758 374.724 918.907 363.703C893.859 390.611 936.512 419.953 936.512 419.953C944.384 426.108 954.403 432.549 960.128 449.009C825.586 372.005 915.042 340.945 915.042 340.945C915.042 340.945 973.439 327.634 974.441 288.274C975.443 248.913 948.964 245.621 911.035 234.17C873.105 222.72 864.804 174.342 901.302 145.716C937.8 117.09 934.222 88.7502 916.044 65.9925C932.934 101.059 916.76 108.502 897.437 123.96C805.834 181.928 860.224 237.462 873.392 247.052C886.56 256.642 907.743 299.008 884.842 311.174C857.218 322.625 848.344 338.798 846.483 355.545C831.741 346.527 835.748 325.058 853.64 299.724C871.531 274.39 852.208 234.6 836.75 229.876C858.935 266.804 857.933 279.686 799.107 306.451C740.281 333.216 748.296 393.331 748.296 393.331C687.752 344.237 721.817 319.333 748.296 311.031C679.88 298.149 670.29 353.97 673.153 368.713C674.441 375.297 675.156 379.447 675.013 382.453C673.296 375.297 670.147 365.85 668.572 354.686C665.567 332.787 672.008 311.89 673.296 308.455C674.584 305.02 676.301 302.157 676.158 297.72C650.681 307.882 646.387 335.363 645.099 342.09C644.956 343.092 644.24 344.81 643.095 346.814C648.964 321.766 633.935 290.85 618.763 287.128C634.507 318.331 582.551 369.428 568.238 386.318C567.952 386.318 567.666 386.318 567.379 386.318C582.408 365.993 579.832 350.535 579.545 339.657C579.259 327.921 560.08 311.317 554.927 307.596C549.918 303.875 556.931 321.337 557.933 332.644C558.935 343.951 548.057 354.256 544.622 356.69C541.187 359.123 534.173 363.274 527.017 372.291C522.723 377.587 520.29 385.029 519.002 390.182C516.282 385.459 526.874 369.428 527.446 352.968C517.713 300.726 457.312 291.422 441.139 308.598C510.271 317.186 460.175 373.436 460.175 373.436C459.03 366.566 445.862 322.911 408.934 315.468C352.398 308.312 361.988 256.785 375.585 236.317C357.265 254.209 337.942 281.403 362.274 317.615C386.606 353.827 364.135 365.277 364.135 365.277C364.564 327.062 318.333 329.924 315.041 293.283C313.61 264.657 359.411 249.915 367.999 220.287C376.587 190.659 337.942 140.134 306.453 125.392C274.965 110.649 297.436 73.8647 297.436 73.8647C297.436 73.8647 253.495 119.237 302.159 152.586C370.862 198.388 317.904 233.741 283.553 248.913C249.201 264.228 233.028 270.812 240.614 311.89C248.199 352.968 292.14 338.083 312.179 359.123C357.98 406.356 248.772 465.469 249.201 460.03C249.631 454.448 262.512 442.711 281.119 426.967C299.726 411.222 302.159 384.028 294.001 374.008C292.14 408.36 266.806 410.22 246.768 429.829C264.946 368.713 234.888 349.247 234.888 349.247C259.22 395.478 202.398 438.989 200.966 475.631C189.516 466.041 174.201 408.789 188.085 362.987C201.968 317.186 197.102 273.245 197.102 273.245C188.085 353.827 148.438 367.711 139.85 443.14C121.243 378.302 158.886 322.482 178.066 242.329C197.102 162.176 163.323 102.491 143.285 76.7273C123.247 50.9639 119.382 23.7692 116.52 0.868351C96.0521 45.6681 143.714 147.29 148.008 175.916C152.302 204.542 97.9128 317.186 92.1876 308.598C86.4624 300.01 105.069 259.504 116.09 213.13C127.111 166.756 105.069 130.544 89.8976 134.409C119.525 179.208 97.4835 200.678 56.9776 275.106C16.4718 349.533 66.4242 426.823 80.7372 463.322C95.0502 499.82 89.0388 536.318 84.3155 561.366C81.4529 531.595 50.2505 486.222 34.9356 472.625C19.6207 459.028 16.615 445.001 13.7524 426.394C0.870659 448.293 13.7524 472.196 24.2009 490.087C34.6494 507.978 61.4147 577.396 45.3841 611.461C20.3363 661.557 28.9242 700.917 26.0615 705.927C17.9031 703.494 7.45464 658.408 2.15883 644.381C-16.4481 804.257 127.111 785.65 127.111 785.65C208.266 714.085 373.295 620.622 471.053 591.423C728.973 538.608 847.914 624.343 889.422 647.673C930.93 671.003 1003.93 741.71 1063.04 802.254C1258.55 797.101 1243.24 652.11 1230.5 641.089Z" fill="#D03823"/>
</svg>
