<svg width="16" height="15" viewBox="0 0 16 15" fill="none" xmlns="http://www.w3.org/2000/svg">
<g clip-path="url(#clip0_7_27877)">
<path d="M10.8817 2.87232C10.8406 2.87232 10.6982 2.89257 10.5652 2.9172C9.97707 3.0269 6.51037 3.73345 6.45115 3.75594C6.35948 3.79062 6.26876 3.87284 6.22576 3.9603L6.18928 4.03446C6.18928 4.03446 6.17211 9.27958 6.1455 9.33854C6.10516 9.42849 6.01547 9.51355 5.93282 9.54067C5.89368 9.55355 5.73875 9.58917 5.58863 9.61972C4.89315 9.76134 4.6348 9.8634 4.41619 10.083C4.29208 10.2077 4.20015 10.3779 4.16041 10.5564C4.12247 10.7271 4.13526 10.9825 4.18934 11.1378C4.30229 11.4618 4.55274 11.6915 4.89006 11.7799C5.20849 11.8633 5.8045 11.7705 6.10945 11.5901C6.23674 11.5147 6.40068 11.3564 6.48599 11.2263C6.51973 11.1748 6.57054 11.071 6.59886 10.9958C6.69817 10.7319 6.70126 6.03303 6.71396 5.97381C6.73542 5.87347 6.80254 5.79991 6.89498 5.77502C6.97823 5.75254 10.3164 5.07705 10.4103 5.06366C10.4988 5.05113 10.5823 5.08263 10.6224 5.14391C10.6496 5.18519 10.7168 8.42685 10.6259 8.53482C10.5598 8.61344 10.4222 8.64374 10.083 8.71472C9.56672 8.82253 9.38999 8.87368 9.19241 8.97247C8.94547 9.0959 8.8084 9.23117 8.70249 9.4557C8.62764 9.61449 8.59958 9.73362 8.59983 9.89172C8.60026 10.1744 8.69562 10.3955 8.91063 10.6117C9.05834 10.7603 9.19344 10.8383 9.37978 10.8821C9.58912 10.9315 10.0155 10.8989 10.3072 10.8114C10.7199 10.6875 11.0113 10.3871 11.1307 9.9627C11.154 9.87979 11.1658 9.79448 11.1659 9.70839C11.1665 8.77635 11.1694 3.1256 11.1571 3.08277C11.1182 2.94862 11.018 2.87206 10.8817 2.87232Z" fill="#C7FFFF"/>
<path d="M7.99268 0.461426C4.10935 0.461426 0.961426 3.60935 0.961426 7.49268C0.961426 11.376 4.10935 14.5239 7.99268 14.5239C11.876 14.5239 15.0239 11.376 15.0239 7.49268C15.0239 3.60935 11.876 0.461426 7.99268 0.461426ZM7.99268 13.9333C4.43568 13.9333 1.55203 11.0497 1.55203 7.49268C1.55203 3.93568 4.43568 1.05203 7.99268 1.05203C11.5497 1.05203 14.4333 3.93568 14.4333 7.49268C14.4333 11.0497 11.5497 13.9333 7.99268 13.9333Z" fill="#C7FFFF"/>
</g>
<defs>
<clipPath id="clip0_7_27877">
<rect width="15" height="15" fill="white" transform="translate(0.5)"/>
</clipPath>
</defs>
</svg>
