<svg width="520" height="293" viewBox="0 0 520 293" fill="none" xmlns="http://www.w3.org/2000/svg">
<path d="M486.879 181.231C482.804 175.949 479.475 170.668 476.949 165.559C474.653 160.909 473.16 156.546 472.644 152.987C472.242 150.117 472.472 147.82 473.275 146.615C473.505 146.27 474.079 145.409 476.49 145.467C478.327 145.467 481.598 146.098 486.937 148.739L520 165.272L491.471 141.793C491.184 141.563 484.87 136.339 472.414 128.13C465.124 123.308 457.26 118.428 449.052 113.664C444.115 110.794 439.064 107.981 433.898 105.225C433.955 105.168 433.955 105.168 434.013 105.11C428.387 102.068 422.59 99.0827 416.735 96.2124C402.901 88.52 420.294 90.5866 420.294 90.5866C420.294 90.5866 400.777 86.7404 383.729 70.7241C383.614 70.6093 378.907 65.9594 377.185 63.5484C375.119 60.6207 373.397 57.406 371.962 53.9042C370.412 50.1154 369.264 45.8674 368.517 41.3323C367.714 36.4528 367.312 31.0566 367.427 25.316L367.542 19.1736L361.802 21.355C357.898 22.8476 340.62 26.866 320.759 26.866C319.898 26.866 319.037 26.866 318.119 26.866C306.466 26.6364 296.134 25.029 287.352 22.0439C282.358 20.3217 277.881 18.1403 273.977 15.557C269.787 12.8015 266.228 9.47198 263.358 5.68319L262.038 3.90361C262.038 3.90361 259.914 1.20553 259.914 0C259.914 0.918495 257.847 3.90361 257.847 3.90361L256.585 5.56838C253.715 9.35717 250.098 12.6293 245.965 15.4422C242.062 18.0255 237.585 20.2069 232.591 21.9291C223.866 24.9142 213.476 26.579 201.824 26.7512C180.872 27.153 162.274 22.7902 158.198 21.2402L152.458 19.0588L152.573 25.2012C152.688 30.9418 152.286 36.2806 151.482 41.2175C150.736 45.7526 149.588 49.9432 148.038 53.7894C146.661 57.2912 144.881 60.5059 142.815 63.4336C140.921 66.0743 138.739 68.4853 136.329 70.7241C119.28 86.7404 99.7638 90.5866 99.7638 90.5866C99.7638 90.5866 117.156 88.5774 103.323 96.2124C92.1294 101.781 81.2231 107.636 70.9482 113.606C62.7398 118.371 54.8758 123.251 47.5858 128.073C35.1297 136.339 28.7581 141.506 28.5285 141.735L0 165.272L33.0633 148.739C38.4016 146.098 41.6735 145.467 43.5103 145.467C45.8638 145.409 46.4952 146.328 46.7248 146.615C47.5284 147.82 47.758 150.117 47.3562 152.987C46.8396 156.546 45.3472 160.909 43.0511 165.559C40.5254 170.668 37.1962 175.949 33.1207 181.231C28.7007 186.971 23.592 192.54 17.9667 197.706L15.3836 200.06L17.2778 203.045C23.1328 212.23 28.1267 221.357 32.0874 230.255C35.2445 237.316 37.7128 244.262 39.4922 250.807C42.4771 261.771 42.3623 268.028 42.3623 268.315L42.2475 270.899L80.5917 291.565L83.1747 293L85.356 290.991C85.5282 290.819 91.8424 285.25 104.241 278.074C111.588 273.826 119.625 269.865 128.12 266.364C138.739 261.943 150.105 258.097 161.872 254.997C179.15 250.462 194.935 248.051 208.769 247.879C219.733 247.707 229.491 248.912 237.7 251.495C244.932 253.734 249.696 256.605 252.394 258.614C255.264 260.795 256.527 262.46 256.527 262.46V262.403C256.527 262.403 259.971 266.938 259.971 269.406C259.971 266.593 263.415 262.403 263.415 262.403C263.415 262.403 263.415 262.403 263.415 262.46C263.415 262.403 264.678 260.738 267.548 258.614C270.246 256.605 274.953 253.734 282.243 251.495C290.509 248.97 300.267 247.764 311.173 247.879C325.007 248.109 340.793 250.462 358.07 254.997C369.838 258.097 381.203 261.943 391.822 266.364C400.318 269.923 408.354 273.884 415.702 278.074C428.215 285.308 434.529 290.933 434.587 290.991L436.768 293L475.456 272.219L477.753 271.014L477.638 268.43C477.638 268.201 477.58 261.886 480.508 250.921C482.287 244.377 484.755 237.431 487.913 230.37C491.873 221.53 496.81 212.345 502.722 203.16L504.616 200.175L502.033 197.821C496.351 192.54 491.299 186.971 486.879 181.231ZM258.364 20.0921C258.479 17.9107 258.881 16.3033 259.225 15.2126C259.282 15.1552 259.397 15.0404 259.455 14.983C259.627 14.8107 259.742 14.6385 259.914 14.5237C260.086 14.6959 260.201 14.8681 260.373 14.983C260.431 15.0404 260.545 15.1552 260.603 15.2126C263.415 23.192 262.21 44.26 256.298 54.9949C249.811 66.7057 252.337 80.9424 252.337 80.9424C252.337 80.9424 245.621 101.953 244.128 104.536C239.881 113.262 227.826 118.084 216.346 120.725C224.44 118.601 227.367 117.108 227.367 117.108C236.551 111.942 240.684 104.766 241.718 102.527C249.524 85.1904 236.15 85.9941 236.15 85.9941C256.814 69.289 248.434 59.0133 248.434 59.0133C234.083 42.7674 198.437 67.3946 198.437 67.3946C183.627 77.6703 180.929 78.3017 180.929 78.3017C175.017 80.6554 172.836 76.2925 176.108 69.1168C182.824 55.0523 194.821 50.058 196.313 49.5413C197.863 49.0247 197.231 50.4024 197.231 50.4024C194.763 56.5449 196.543 58.4393 196.543 58.4393C199.757 62.2855 212.156 51.0913 212.156 51.0913C228.802 37.6009 241.316 38.2898 241.316 38.2898C254.059 39.3805 250.156 50.1154 250.156 50.1154C250.156 50.1154 249.754 51.0339 250.156 51.4357C250.557 51.895 251.189 51.7802 251.763 51.3209C259.857 43.9156 258.192 24.3975 258.364 20.0921ZM221.283 92.0218C224.268 91.9643 226.965 94.2032 225.817 102.068C224.669 109.99 219.274 111.425 218.527 111.54C218.527 111.54 212.845 113.147 212.385 103.618C211.926 94.1458 218.298 92.0792 221.283 92.0218ZM218.757 80.4258C219.79 75.4314 224.038 61.4244 229.721 62.9169C235.461 64.4095 231.041 75.4314 230.123 77.2684C228.86 79.9665 223.981 85.9941 220.02 85.6497C220.02 85.6497 217.724 85.4201 218.757 80.4258ZM480.106 227.213C476.777 234.733 474.136 242.138 472.299 249.142C470.176 257.064 469.544 262.804 469.314 265.904L437.858 282.839C434.874 280.486 429.019 276.123 420.121 271.014C412.43 266.593 404.049 262.46 395.209 258.729C384.188 254.079 372.363 250.118 360.137 246.903C339.53 241.507 322.768 239.498 309.164 239.498C280.349 239.498 265.941 248.625 259.971 253.964C254.002 248.625 239.594 239.498 210.778 239.498C197.174 239.498 180.413 241.507 159.806 246.903C147.579 250.118 135.755 254.079 124.733 258.729C115.894 262.46 107.513 266.593 99.8212 271.014C90.9239 276.123 85.069 280.486 82.0841 282.839L50.6281 265.904C50.4559 262.804 49.7671 257.064 47.6432 249.142C45.8064 242.138 43.1659 234.733 39.8366 227.213C36.1055 218.774 31.5134 210.163 26.1177 201.495C36.6221 191.391 45.175 180.082 50.5133 169.29C56.4257 157.292 57.5163 147.591 53.613 141.908C52.5224 140.3 51.0299 139.037 49.2505 138.234C48.9061 138.061 48.5616 137.947 48.2172 137.832C49.5375 136.913 50.9151 135.995 52.465 135.019C59.5827 130.312 67.2745 125.547 75.3681 120.84C85.4708 114.984 96.1475 109.244 107.111 103.79C111.359 101.723 114.401 99.9438 116.41 98.3364C117.616 97.4179 118.477 96.4994 119.051 95.5809C120.371 93.5717 120.141 91.7347 119.912 90.8736C119.854 90.5866 119.682 90.2422 119.51 89.8977C121.175 89.2663 122.897 88.6348 124.676 87.8311C131.507 84.846 137.132 81.2868 141.954 76.924C144.824 74.3407 147.407 71.413 149.646 68.2557C152.057 64.8113 154.123 61.0225 155.788 56.8893C157.567 52.5265 158.887 47.7044 159.691 42.5952C160.322 38.8638 160.724 34.8454 160.839 30.6548C163.939 31.4011 167.899 32.2047 172.434 32.951C178.806 33.9269 188.449 35.075 199.241 35.075C200.159 35.075 201.077 35.075 201.996 35.075C214.509 34.8454 225.703 33.0658 235.289 29.7937C235.576 29.6789 235.863 29.6215 236.15 29.5067C236.207 29.5067 236.264 29.4493 236.322 29.4493C236.609 29.3344 236.896 29.277 237.126 29.1622C237.126 29.1622 237.183 29.1622 237.183 29.1048C237.413 28.99 237.7 28.9326 237.929 28.8178C237.987 28.8178 238.044 28.7604 238.101 28.7604C238.388 28.6456 238.618 28.5308 238.905 28.4734C238.962 28.4734 239.02 28.416 239.077 28.416C239.307 28.3011 239.536 28.2437 239.709 28.1289C239.766 28.0715 239.823 28.0715 239.938 28.0141C240.168 27.8993 240.455 27.7845 240.684 27.6697C240.742 27.6123 240.799 27.6123 240.857 27.5549C241.029 27.44 241.258 27.3826 241.431 27.2678C241.488 27.2104 241.603 27.2104 241.66 27.153C241.89 27.0382 242.119 26.9234 242.349 26.8086C242.406 26.7512 242.521 26.7512 242.579 26.6938C242.751 26.6364 242.923 26.5216 243.095 26.4641C243.153 26.4067 243.267 26.4067 243.325 26.3493C243.554 26.2345 243.784 26.1197 244.014 26.0049C244.128 25.9475 244.186 25.8901 244.301 25.8901C244.473 25.8327 244.645 25.7179 244.76 25.6605C244.875 25.6031 244.932 25.5457 245.047 25.4882C245.219 25.3734 245.449 25.2586 245.621 25.2012C245.736 25.1438 245.851 25.0864 245.908 25.029C246.08 24.9716 246.195 24.8568 246.367 24.7994C246.482 24.742 246.654 24.6272 246.769 24.5697C246.884 24.5123 247.056 24.3975 247.171 24.3401C247.286 24.2827 247.4 24.2253 247.515 24.1679C247.63 24.1105 247.802 23.9957 247.917 23.9383C248.089 23.8235 248.261 23.7661 248.376 23.6513C248.491 23.5939 248.606 23.5364 248.721 23.4216C248.835 23.3642 248.95 23.3068 249.065 23.192C249.18 23.1346 249.295 23.0198 249.409 22.9624C249.582 22.8476 249.754 22.7328 249.926 22.6179C250.041 22.5605 250.098 22.5031 250.213 22.4457C250.328 22.3883 250.443 22.2735 250.557 22.2161C250.672 22.1587 250.787 22.0439 250.902 21.9865C251.074 21.8717 251.246 21.7569 251.418 21.642C251.533 21.5846 251.591 21.5272 251.705 21.4698C251.82 21.4124 251.935 21.2976 252.05 21.2402C252.222 21.1254 252.394 21.0106 252.509 20.8958C252.624 27.4975 252.107 33.4103 252.107 33.4103C251.591 38.0027 249.295 37.0843 249.295 37.0843C235.518 33.0084 218.527 43.2841 207.908 46.9007C205.382 47.934 206.071 47.0155 206.071 47.0155C209.63 40.8156 205.555 39.4379 205.555 39.4379C189.999 32.5492 162.561 57.693 162.044 77.7851C161.7 84.7886 168.014 93.9162 181.274 82.6072C194.534 71.2982 204.464 66.0743 204.464 66.0743C219.216 58.7263 212.787 75.2018 212.787 75.2018C197.174 126.236 167.899 121.471 167.899 121.471C150.449 118.601 160.265 109.531 160.265 109.531C166.349 104.479 170.884 106.144 170.884 106.144C170.884 106.144 171.803 106.545 171.975 106.144C172.147 105.684 171.63 105.512 171.63 105.512C166.866 103.675 160.954 106.488 160.954 106.488C151.54 110.966 153.205 117.74 153.205 117.74C156.878 133.01 171.688 129.049 187.875 126.523C189.367 126.293 190.745 126.063 192.123 125.834C248.95 116.879 275.929 119.978 275.929 119.978C256.814 114.697 258.938 96.0976 258.938 96.0976C278.856 121.988 303.482 123.595 344.524 127.958C364.212 129.967 365.59 118.314 365.59 118.314C366.566 107.636 354.626 104.536 349.46 104.823C346.82 104.996 347.049 105.971 347.049 105.971C347.107 106.373 347.623 106.258 347.623 106.258C354.684 105.225 363.179 110.679 361.055 117.108C357.726 126.982 336.028 121.586 328.853 120.61C332.699 119.921 335.913 116.993 338.439 113.319C339.702 115.156 341.711 116.764 344.696 117.682C353.593 120.438 357.152 114.755 356.635 114.18C356.348 113.836 354.971 114.984 354.971 114.984C354.971 114.984 350.379 118.486 345.098 112.63C345.098 112.63 341.941 109.358 344.696 103.675C347.451 97.992 353.823 96.4994 364.901 101.092C364.901 101.092 371.789 103.847 382.351 114.467C382.351 114.467 393.258 126.58 397.792 122.102C400.605 119.404 393.143 109.703 393.143 109.703C393.143 109.703 391.191 107.292 397.161 107.12C412.487 107.866 433.094 124.112 429.88 134.847C429.88 134.847 426.263 148.165 394.119 133.354C377.357 125.891 364.499 127.556 364.672 139.037C364.672 139.037 358.3 129.049 321.333 128.188C305.72 127.843 297.569 133.354 289.59 139.209C290.509 132.55 297.856 122.562 261.98 122.504C261.98 122.504 218.642 120.495 214.624 131.861C214.337 133.01 215.083 134.043 215.37 133.526C215.657 133.01 216.461 130.713 220.135 131.345C223.751 131.919 230.41 138.635 230.065 154.078C229.721 169.52 224.956 174.17 223.694 174.342C222.431 174.514 216.404 171.759 215.37 150.002C215.37 150.002 216.748 127.671 198.265 129.278C198.265 129.278 192.525 129.45 184.833 134.043C182.881 134.961 181.676 135.593 176.223 132.55C176.223 132.55 168.244 127.384 159.921 134.904C150.621 143.343 136.616 170.438 136.329 190.416C134.721 188.521 132.253 187.029 128.407 187.545C128.407 187.545 121.806 188.579 121.347 195.525C121.347 195.525 121.289 196.271 121.749 196.443C122.208 196.558 122.667 196.214 123.069 195.525C123.528 194.721 126.283 189.784 130.646 193.228C137.362 199.199 125.307 222.276 107.341 208.958C107.341 208.958 90.1203 196.788 110.383 158.153C128.063 125.891 143.848 137.602 144.594 138.291C144.594 138.291 147.522 140.53 144.881 144.491C144.881 144.491 142.757 147.878 138.395 145.524C138.395 145.524 137.936 145.18 137.591 145.639C137.304 146.098 137.936 146.73 137.936 146.73C137.936 146.73 144.135 152.011 149.244 145.811C149.244 145.811 152.286 142.309 151.942 137.832C151.942 137.832 151.884 126.293 135.812 129.795C119.739 133.297 103.954 146.385 91.3831 137.717C81.9693 131.173 101.428 113.893 110.211 109.99C110.211 109.99 117.156 106.603 123.471 107.177C129.785 107.751 123.7 112.918 121.921 116.936C119.739 121.127 122.036 130.312 138.912 112.86C138.912 112.86 153.893 96.442 168.588 98.7383C168.588 98.7383 175.476 99.7142 175.763 108.497C175.706 115.443 167.612 117.223 163.881 114.582C163.881 114.582 162.905 113.721 162.733 114.18C162.733 114.18 162.504 114.755 163.135 115.443C163.824 116.132 169.507 122.16 178.691 115.673C178.691 115.673 183.685 112.286 182.766 105.742C181.848 99.1975 171.573 92.8254 155.73 98.3938C138.912 104.594 134.262 110.679 132.54 111.368C132.54 111.368 139.658 99.0253 120.543 104.421C102.404 109.358 79.8455 121.069 77.3772 135.765C77.3772 135.765 72.0963 159.359 102.634 151.781C93.4496 161.655 67.7337 211.254 92.7034 224.63C92.7034 224.63 57.6885 234.676 46.036 214.985C44.3139 211.541 44.0269 206.719 49.1357 202.126C49.1357 202.126 54.3018 197.534 61.1326 202.643C61.1326 202.643 62.1658 203.504 62.1658 202.528C62.1658 202.528 62.1658 197.189 51.7187 196.558C51.7187 196.558 40.9273 196.156 38.1146 206.661C38.1146 206.661 33.1207 227.615 69.1114 229.279C100.28 229.796 131.449 217.454 138.051 204.308C140.404 212 147.063 221.817 165.718 213.78C188.219 203.963 196.543 160.564 192.697 147.304C192.697 147.304 190.803 140.185 181.79 141.735C181.79 141.735 178.633 142.424 177.198 145.007C177.198 145.007 173.869 150.863 176.567 151.896C179.265 152.929 191.606 151.322 184.087 182.666C184.087 182.666 177.084 210.967 160.954 205.054C160.954 205.054 147.522 198.969 156.706 167.281C156.706 167.281 164.685 142.252 171.114 142.137C172.778 142.252 173.065 145.983 176.51 142.711C176.51 142.711 188.793 132.091 194.361 137.947C203.603 148.05 192.525 202.413 177.313 215.617C162.102 228.82 147.292 231.863 146.259 228.878C145.857 227.041 149.244 225.835 149.186 221.644C149.186 221.644 149.244 210.909 127.202 221.185C127.202 221.185 119.51 224.802 112.564 233.757C112.564 233.757 101.314 247.764 83.3469 240.531C83.3469 240.531 75.0811 237.029 77.0328 231.92C77.0328 231.92 77.1476 231.576 76.9754 231.461C76.8032 231.346 75.5404 232.035 75.5404 234.274C75.5977 237.259 77.6642 246.788 91.9572 246.099C91.9572 246.099 103.667 246.559 113.425 234.848C123.184 223.137 134.549 222.276 135.008 224.687C135.525 227.098 127.202 229.394 128.178 236.972C128.178 236.972 129.153 243.229 151.77 233.355C151.77 233.355 197.805 212.172 209.86 203.447C214.624 200.232 217.322 194.09 217.322 194.09C217.322 194.09 218.068 192.597 217.839 192.654C217.839 192.654 217.666 192.367 216.805 193.63C215.944 195.008 210.95 201.667 208.138 195.697C208.138 195.697 200.618 175.777 208.941 153.504C208.941 153.504 211.811 163.722 220.766 196.271C229.606 228.189 259.455 237.775 278.971 228.016C278.971 228.016 319.21 207.982 324.605 226.352C325.753 231.289 320.415 233.642 317.889 233.872C317.889 233.872 314.905 234.216 312.666 232.552C312.666 232.552 311.977 232.035 311.518 232.724C311.518 232.724 317.143 239.9 326.844 233.872C336.2 227.155 329.484 217.97 327.648 216.765C327.648 216.765 356.922 230.083 369.264 234.331C381.605 238.522 389.125 239.9 390.56 236.914C391.765 234.044 389.354 230.14 383.672 224.802C383.672 224.802 382.753 223.768 386.082 223.711C389.354 223.711 394.291 223.826 404.91 234.618C415.989 246.214 427.813 245.353 437.457 243.573C437.457 243.573 472.931 238.407 480.852 211.484C480.852 211.484 484.181 199.715 468.453 196.558C468.453 196.558 460.991 195.18 456.973 201.61C456.571 202.299 456.686 203.045 457.318 202.987C457.318 202.987 457.605 203.102 458.753 201.954C460.589 200.347 465.698 198.51 470.75 202.987C470.75 202.987 479.36 210.278 467.191 225.031C454.39 240.129 432.118 242.942 425.632 241.277C410.65 237.431 407.895 228.303 405.427 227.385C405.427 227.385 424.943 232.724 436.71 217.626C442.91 207.81 438.203 203.275 437.801 202.873C437.801 202.873 431.43 195.869 422.934 202.873C419.49 205.8 420.523 210.393 421.04 210.45C421.04 210.45 421.499 210.68 421.901 209.647C421.901 209.647 424.14 203.849 429.765 207.293C433.726 209.417 430.683 223.481 419.605 223.424C419.605 223.424 400.031 223.194 400.949 195.984C402.04 181.862 407.493 176.409 406.862 162.344C406.862 162.344 407.378 149.428 390.674 137.258C406.288 144.606 426.837 163.607 440.155 147.074C440.155 147.074 452.725 130.713 419.146 112.229C401.007 102.642 379.022 98.2216 386.312 111.253C386.312 111.253 360.252 90.5866 344.064 97.7049C344.064 97.6475 344.064 97.5901 344.064 97.5327C347.049 63.3188 311.518 49.771 288.098 49.1969C264.047 48.3358 257.56 65.7872 257.56 65.7872C258.766 48.5654 270.533 43.8582 274.092 42.423C277.708 41.2175 278.684 42.3656 278.684 42.3656C273.059 46.097 274.207 48.3932 274.207 48.3932C275.01 50.4024 279.89 48.3932 279.89 48.3932C310.714 37.7157 330.001 54.4209 330.001 54.4209C347.681 67.6242 354.856 60.5633 354.856 60.5633C363.351 52.9283 354.856 44.26 354.856 44.26C346.992 36.9694 338.21 42.1934 338.382 43.1119C338.554 43.6859 339.071 43.6859 339.817 43.7433C352.33 44.0304 350.666 52.2968 350.666 52.2968C348.829 63.778 324.605 48.7377 324.605 48.7377C310.829 40.1268 292.92 42.4804 292.92 42.4804C284.08 43.6285 285.572 42.7674 285.572 42.7674C287.696 40.9305 287.065 38.8064 287.065 38.8064C284.769 30.1381 270.648 39.7823 270.648 39.7823C266.745 42.3082 266.859 38.6342 266.802 37.6009C266.745 36.9694 266.572 25.7753 266.515 20.9532C266.687 21.068 266.917 21.2402 267.089 21.355C267.146 21.4124 267.261 21.4698 267.319 21.5272C267.491 21.642 267.663 21.7569 267.835 21.8717C267.893 21.9291 267.95 21.9865 268.065 21.9865C268.237 22.1013 268.409 22.2161 268.582 22.3309C268.639 22.3883 268.754 22.4457 268.811 22.5031C268.983 22.6179 269.156 22.7328 269.385 22.8476C269.443 22.905 269.5 22.905 269.557 22.9624C269.73 23.0772 269.902 23.192 270.074 23.3068C270.131 23.3642 270.246 23.4216 270.304 23.4216C270.533 23.5364 270.705 23.6513 270.935 23.8235C270.992 23.8809 271.05 23.8809 271.107 23.9383C271.279 24.0531 271.452 24.1679 271.624 24.2253C271.681 24.2827 271.796 24.3401 271.853 24.3401C272.083 24.4549 272.313 24.5697 272.485 24.742C272.542 24.7994 272.6 24.7994 272.657 24.8568C272.829 24.9716 273.001 25.0864 273.231 25.1438C273.288 25.2012 273.346 25.2012 273.461 25.2586C273.69 25.3734 273.92 25.4882 274.149 25.6031C274.207 25.6605 274.264 25.6605 274.322 25.7179C274.494 25.8327 274.723 25.8901 274.896 26.0049C274.953 26.0623 275.01 26.0623 275.068 26.1197C275.297 26.2345 275.527 26.3493 275.757 26.4641C275.814 26.5216 275.872 26.5216 275.929 26.579C276.159 26.6938 276.331 26.7512 276.56 26.866C276.618 26.866 276.675 26.9234 276.733 26.9234C276.962 27.0382 277.249 27.153 277.479 27.2678C277.536 27.3252 277.594 27.3252 277.651 27.3252C277.881 27.44 278.053 27.4975 278.282 27.6123C278.34 27.6123 278.397 27.6697 278.455 27.6697C278.684 27.7845 278.971 27.8993 279.201 28.0141C279.258 28.0141 279.316 28.0715 279.373 28.0715C279.603 28.1863 279.832 28.2437 280.062 28.3585C280.119 28.3585 280.119 28.416 280.177 28.416C280.464 28.5308 280.693 28.6456 280.98 28.703C281.038 28.703 281.095 28.7604 281.152 28.7604C281.382 28.8752 281.669 28.9326 281.899 29.0474H281.956C282.243 29.1622 282.473 29.2196 282.76 29.3344C282.817 29.3344 282.874 29.3919 282.932 29.3919C283.219 29.5067 283.506 29.5641 283.793 29.6789C293.379 32.951 304.572 34.7306 317.086 34.9602C329.025 35.1899 339.759 33.9269 346.648 32.8362C351.182 32.1473 355.143 31.2862 358.243 30.54C358.357 34.7306 358.759 38.6916 359.391 42.4804C360.252 47.5895 361.572 52.4116 363.351 56.7745C365.016 60.8503 367.082 64.6965 369.493 68.1409C371.732 71.2982 374.315 74.2259 377.185 76.8092C378.104 77.6703 380.17 79.2202 380.17 79.1628C384.303 82.435 389.067 85.1905 394.578 87.6015C396.357 88.3478 398.079 89.0366 399.744 89.6681C399.572 90.0125 399.457 90.357 399.342 90.644C399.112 91.5625 398.883 93.3421 400.203 95.3513C400.777 96.2698 401.696 97.1883 402.844 98.1068C404.853 99.7142 407.895 101.494 412.143 103.56C413.061 104.02 413.979 104.479 414.898 104.938C414.898 104.996 414.84 104.995 414.84 105.053C424.886 110.105 434.644 115.386 443.886 120.725C451.979 125.432 459.671 130.197 466.789 134.904C468.281 135.88 469.716 136.856 471.037 137.717C470.692 137.832 470.348 138.004 470.003 138.119C468.224 138.922 466.731 140.185 465.583 141.793C461.68 147.476 462.771 157.178 468.683 169.175C474.021 179.968 482.574 191.277 493.079 201.38C488.429 210.163 483.837 218.774 480.106 227.213ZM272.37 93.2273C269.27 92.3662 264.736 87.6015 260.775 79.9665C260.775 79.9665 263.53 68.3705 270.074 68.0835C275.527 67.5668 275.355 84.2145 275.355 85.3053C275.297 85.3053 275.47 94.0884 272.37 93.2273ZM290.853 54.7653C290.853 54.7653 294.929 53.3875 296.479 64.5817C296.479 64.5817 301.186 108.268 294.757 110.506C294.757 110.506 291.14 112.114 288.098 103.446C285.056 94.8346 278.282 59.1281 290.853 54.7653ZM316.167 63.8354C322.826 62.6873 326.5 82.8368 327.246 92.9403C327.992 102.986 324.605 110.277 320.472 110.449C320.472 110.449 316.856 111.023 315.191 102.584C313.642 94.1458 309.566 64.9836 316.167 63.8354ZM393.315 218.257C380.514 212.459 371.445 215.732 369.895 219.291C368.345 222.85 374.028 226.524 373.454 228.705C372.937 230.829 362.146 227.557 362.146 227.557C338.554 220.094 312.034 199.715 313.584 172.333C315.995 127.671 342.974 132.952 342.974 132.952C309.337 142.711 320.645 184.503 320.645 184.503C329.484 213.091 348.484 216.593 359.85 217.339C370.814 218.315 386.427 209.647 386.197 195.467C385.968 181.288 377.587 174.572 371.502 174.629C365.36 174.744 363.696 180.312 363.983 183.125C364.27 185.995 365.59 187.373 365.934 187.201C366.279 187.029 366.107 185.593 366.107 185.019C366.336 181.173 370.814 181.747 370.814 181.747C381.662 183.756 382.581 193.343 382.581 193.343C383.671 208.958 367.082 207.236 367.082 207.236C348.771 205.858 339.243 185.995 339.243 185.995C333.101 174.801 334.823 154.709 342.916 144.032C351.125 133.526 359.046 141.276 359.046 141.276C364.729 146.672 361.572 151.322 361.572 151.322C357.095 158.613 352.043 154.479 352.043 154.479C352.043 154.479 351.584 153.963 351.297 154.02C351.067 154.02 351.125 154.422 351.125 154.422C351.584 157.694 358.185 158.039 358.185 158.039C365.82 158.096 369.838 151.207 368.116 145.639C373.397 150.863 382.523 148.394 384.016 147.935C385.508 147.533 385.164 146.844 385.164 146.844C385.049 146.557 384.016 146.787 384.016 146.787C375.52 148.28 374.832 142.769 374.832 142.769C374.085 138.578 377.472 137.143 377.472 137.143C392.052 130.713 401.925 154.652 392.741 177.901C383.04 201.208 388.321 212.345 393.315 218.257ZM260.545 163.148C261.119 163.263 263.588 164.468 268.18 163.205C268.18 163.205 233.452 212.115 269.098 226.811C269.098 226.811 243.267 228.935 249.008 190.473C251.591 173.596 264.219 150.289 264.219 150.289C264.219 150.289 273.116 135.535 264.047 133.584C259.742 132.723 259.971 131.689 259.971 131.689C259.971 131.689 259.971 128.302 268.811 127.9C268.811 127.9 275.986 127.499 277.708 134.847C280.062 144.204 275.527 159.933 260.718 162.861C260.66 162.918 260.086 163.033 260.545 163.148ZM248.261 151.667C248.032 151.437 247.63 151.839 247.63 151.839C240.34 157.866 237.011 148.567 236.896 146.156C236.264 133.813 250.328 132.378 250.328 132.378C245.736 137.258 249.237 139.669 249.237 139.669C251.246 141.276 252.05 142.998 252.05 142.998C253.944 146.213 243.21 172.333 243.21 172.333C232.132 196.558 236.379 210.622 254.289 226.065C221.225 214.067 235.059 154.307 235.059 154.307C242.005 160.507 247.687 152.7 247.687 152.7C247.687 152.7 248.491 151.896 248.261 151.667ZM273.403 181.632C276.331 197.936 318.406 212.345 318.406 212.345C310.255 210.967 299.291 216.88 299.291 216.88C288.557 222.218 281.669 221.185 281.669 221.185C260.603 217.913 273.403 181.632 273.403 181.632ZM288.442 156.144C292.174 152.528 296.995 147.017 299.98 148.337C301.817 149.198 305.089 151.494 303.195 171.816C303.195 171.816 301.932 190.071 297.11 190.645C297.11 190.645 286.72 191.391 284.252 170.725C283.793 165.157 284.711 159.761 288.442 156.144Z" fill="#FAB5A7"/>
</svg>
