<svg width="13" height="14" viewBox="0 0 13 14" fill="none" xmlns="http://www.w3.org/2000/svg">
<g clip-path="url(#clip0_4_26310)">
<path d="M12.6545 4.50835C12.6252 3.84417 12.5178 3.38756 12.3639 2.9919C12.2052 2.57192 11.961 2.1959 11.6411 1.88332C11.3285 1.56588 10.95 1.31921 10.5349 1.16297C10.137 1.00911 9.68272 0.901705 9.01855 0.872421C8.34942 0.840658 8.13699 0.833313 6.43988 0.833313C4.74277 0.833313 4.53035 0.840658 3.86369 0.869941C3.19952 0.899225 2.74291 1.00672 2.34734 1.16049C1.92726 1.31921 1.55125 1.5634 1.23867 1.88332C0.921225 2.1959 0.674652 2.5744 0.518314 2.98952C0.364456 3.38756 0.257051 3.84169 0.227768 4.50587C0.196004 5.175 0.18866 5.38743 0.18866 7.08454C0.18866 8.78164 0.196004 8.99407 0.225288 9.66072C0.254571 10.3249 0.362072 10.7815 0.515929 11.1772C0.674652 11.5972 0.921225 11.9732 1.23867 12.2857C1.55125 12.6032 1.92974 12.8499 2.34486 13.0061C2.74291 13.16 3.19704 13.2674 3.86131 13.2966C4.52787 13.326 4.74039 13.3333 6.4375 13.3333C8.13461 13.3333 8.34703 13.326 9.01368 13.2966C9.67786 13.2674 10.1345 13.16 10.53 13.0061C11.3701 12.6813 12.0343 12.0171 12.3591 11.1772C12.5128 10.7791 12.6203 10.3249 12.6496 9.66072C12.6789 8.99407 12.6862 8.78164 12.6862 7.08454C12.6862 5.38743 12.6838 5.175 12.6545 4.50835ZM11.5288 9.61189C11.5019 10.2224 11.3994 10.552 11.3139 10.7718C11.1039 11.3163 10.6717 11.7485 10.1271 11.9586C9.90736 12.044 9.57532 12.1466 8.96723 12.1734C8.30792 12.2028 8.11019 12.21 6.44236 12.21C4.77454 12.21 4.57432 12.2028 3.9174 12.1734C3.30693 12.1466 2.97727 12.044 2.7575 11.9586C2.48651 11.8584 2.23984 11.6997 2.03963 11.4921C1.83207 11.2894 1.67334 11.0453 1.57319 10.7743C1.48772 10.5545 1.38518 10.2224 1.35838 9.61436C1.329 8.95506 1.32175 8.75723 1.32175 7.0894C1.32175 5.42157 1.329 5.22136 1.35838 4.56453C1.38518 3.95406 1.48772 3.62441 1.57319 3.40464C1.67334 3.13355 1.83207 2.88698 2.04211 2.68666C2.24471 2.4791 2.48889 2.32038 2.75998 2.22032C2.97975 2.13486 3.31189 2.03232 3.91988 2.00542C4.57919 1.97613 4.77702 1.96879 6.44475 1.96879C8.11505 1.96879 8.31279 1.97613 8.96971 2.00542C9.58018 2.03232 9.90984 2.13486 10.1296 2.22032C10.4006 2.32038 10.6473 2.4791 10.8475 2.68666C11.055 2.88936 11.2138 3.13355 11.3139 3.40464C11.3994 3.62441 11.5019 3.95644 11.5288 4.56453C11.5581 5.22384 11.5655 5.42157 11.5655 7.0894C11.5655 8.75723 11.5581 8.95258 11.5288 9.61189Z" fill="#C7FFFF"/>
<path d="M6.43984 3.87347C4.66709 3.87347 3.22876 5.31171 3.22876 7.08455C3.22876 8.8574 4.66709 10.2956 6.43984 10.2956C8.21268 10.2956 9.65091 8.8574 9.65091 7.08455C9.65091 5.31171 8.21268 3.87347 6.43984 3.87347ZM6.43984 9.1675C5.28977 9.1675 4.35689 8.23472 4.35689 7.08455C4.35689 5.93439 5.28977 5.00161 6.43984 5.00161C7.59 5.00161 8.52278 5.93439 8.52278 7.08455C8.52278 8.23472 7.59 9.1675 6.43984 9.1675Z" fill="#C7FFFF"/>
<path d="M10.5276 3.74653C10.5276 4.1605 10.192 4.49617 9.7779 4.49617C9.36392 4.49617 9.02826 4.1605 9.02826 3.74653C9.02826 3.33246 9.36392 2.99689 9.7779 2.99689C10.192 2.99689 10.5276 3.33246 10.5276 3.74653Z" fill="#C7FFFF"/>
</g>
<defs>
<clipPath id="clip0_4_26310">
<rect width="12.5" height="12.5" fill="white" transform="translate(0.166687 0.833313)"/>
</clipPath>
</defs>
</svg>
