<?xml version="1.0" encoding="utf-8"?>
<!-- Generator: Adobe Illustrator 23.0.1, SVG Export Plug-In . SVG Version: 6.00 Build 0)  -->
<svg version="1.1" id="Layer_1" xmlns="http://www.w3.org/2000/svg" xmlns:xlink="http://www.w3.org/1999/xlink" x="0px" y="0px"
	 viewBox="0 0 908 521" style="enable-background:new 0 0 908 521;" xml:space="preserve">
<g>
	<path style="fill:#2B3894;" d="M816.1,250.4c1.9-2.8,4.1-4.8,7.3-6.2c0.6-0.3-0.6-1.7,0-1.9c-2.3-1.6-4.8-3.2-7.4-4.9
		c-12.4-8.2-25.8-16.5-39.9-24.7c-17.6-10.2-36.2-20.2-55.4-29.7c-7.4-3.6-12.7-6.7-16.2-9.5c-2.1-1.6-3.6-3.2-4.6-4.8
		c-2.3-3.5-0.8-7-0.4-8.5c0.1-0.5-0.7-0.8-0.5-1.4c-2.9-1.1-5.9-2.2-9-3.6c-11.9-5.2-21.7-11.4-30.1-19c-5-4.5-9.5-9.6-13.4-15.1
		c-4.2-6-7.8-12.6-10.7-19.8c-3.1-7.6-5.4-16-6.9-24.9c-1.1-6.5-1.8-13.5-2-20.8c-5.4,1.3-12.3,2.7-20.2,4
		c-12,1.9-30.7,4.1-51.5,3.7c-21.8-0.4-41.3-3.5-58-9.2c-17.5-6-31.9-15-42.9-26.6c-11,11.7-25.4,20.6-42.9,26.6
		c-16.7,5.7-36.2,8.8-58,9.2c-1.6,0-3.2,0-4.8,0c-18.8,0-35.6-2-46.7-3.7c-7.9-1.2-14.8-2.6-20.2-4c-0.2,7.3-0.9,14.2-2,20.8
		c-1.5,8.9-3.8,17.3-6.9,24.9c-2.9,7.1-6.5,13.8-10.7,19.8c-3.9,5.5-8.4,10.6-13.4,15.1c-8.4,7.6-18.3,13.8-30.1,19
		c-3.1,1.3-6.1,2.5-9,3.6c0.3,0.6,0.5,1.2,0.7,1.7c0.4,1.6,0.8,4.7-1.5,8.2c-1,1.6-2.6,3.2-4.6,4.8c-3.5,2.8-8.8,5.9-16.2,9.5
		c-19.2,9.5-37.8,19.5-55.3,29.7c-14.1,8.2-27.5,16.5-39.9,24.7c-2.6,1.7-5.1,3.4-7.4,4.9c0.6,0.2,1.2,0.5,1.8,0.7
		c3.1,1.4,5.7,3.6,7.6,6.4c6.8,9.9,4.9,26.8-5.4,47.7c-9.3,18.8-24.2,38.5-42.5,56.1c9.4,15.1,17.4,30.2,23.9,44.8
		c5.8,13.1,10.4,26,13.6,38.2c3.7,13.8,4.8,23.8,5.2,29.2l56.2,30.6c5.2-4.1,15.2-11.7,30.7-20.6c13.4-7.7,28.1-14.8,43.5-21.2
		c19.2-8.1,38.6-15,60-20.6l2.7-0.4c35.9-9.4,62.3-11.8,86-11.8c50.2,0,76.3,15.8,86.7,25.1c10.4-9.3,34.5-25.1,84.7-25.1
		c23.7,0,52.9,1.6,88.8,11l0,0c21.3,5.6,41.9,12.5,61.1,20.6c15.4,6.5,30,13.7,43.4,21.4c15.5,8.9,27.2,17.6,32.4,21.7l54.8-29.9
		c0.3-5.4,2-15.9,5.7-29.8c3.2-12.2,7.8-24.3,13.6-37.4c6.5-14.7,15.1-29.5,24.5-44.6c-18.3-17.6-35.9-38.5-45.1-57.3
		C809,276.3,809.3,260.3,816.1,250.4z"/>
	<g>
		<path style="fill:#2B136C;" d="M849.7,319.9c-7.1-9.2-12.9-18.4-17.3-27.3c-4-8.1-6.6-15.7-7.5-21.9c-0.7-5-0.3-9,1.1-11.1
			c0.4-0.6,1.4-2.1,5.6-2c3.2,0,8.9,1.1,18.2,5.7l57.6,28.8l-49.7-40.9c-0.5-0.4-11.5-9.5-33.2-23.8c-12.7-8.4-26.4-16.9-40.7-25.2
			c-8.6-5-17.4-9.9-26.4-14.7c0.1-0.1,0.1-0.1,0.2-0.2c-9.8-5.3-19.9-10.5-30.1-15.5l0,0c-24.1-13.4,6.2-9.8,6.2-9.8
			s-34-6.7-63.7-34.6c-0.2-0.2-8.4-8.3-11.4-12.5c-3.6-5.1-6.6-10.7-9.1-16.8c-2.7-6.6-4.7-14-6-21.9c-1.4-8.5-2.1-17.9-1.9-27.9
			l0.2-10.7l-10,3.8c-6.8,2.6-36.9,9.6-71.5,9.6c-1.5,0-3,0-4.6,0c-20.3-0.4-38.3-3.2-53.6-8.4c-8.7-3-16.5-6.8-23.3-11.3
			c-7.3-4.8-13.5-10.6-18.5-17.2L458,11c0,0-3.7-4.7-3.7-6.8c0,1.6-3.6,6.8-3.6,6.8l-2.2,2.9c-5,6.6-11.3,12.3-18.5,17.2
			c-6.8,4.5-14.6,8.3-23.3,11.3c-15.2,5.2-33.3,8.1-53.6,8.4c-36.5,0.7-68.9-6.9-76-9.6l-10-3.8l0.2,10.7c0.2,10-0.5,19.3-1.9,27.9
			c-1.3,7.9-3.3,15.2-6,21.9c-2.4,6.1-5.5,11.7-9.1,16.8c-3.3,4.6-7.1,8.8-11.3,12.7c-29.7,27.9-63.7,34.6-63.7,34.6
			s30.3-3.5,6.2,9.8l0,0c-19.5,9.7-38.5,19.9-56.4,30.3c-14.3,8.3-28,16.8-40.7,25.2c-21.7,14.4-32.8,23.4-33.2,23.8L1.5,292.1
			l57.6-28.8c9.3-4.6,15-5.7,18.2-5.7c4.1-0.1,5.2,1.5,5.6,2c1.4,2.1,1.8,6.1,1.1,11.1c-0.9,6.2-3.5,13.8-7.5,21.9
			c-4.4,8.9-10.2,18.1-17.3,27.3c-7.7,10-16.6,19.7-26.4,28.7l-4.5,4.1l3.3,5.2c10.2,16,18.9,31.9,25.8,47.4
			c5.5,12.3,9.8,24.4,12.9,35.8c5.2,19.1,5,30,5,30.5l-0.2,4.5l66.8,36l4.5,2.5l3.8-3.5c0.3-0.3,11.3-10,32.9-22.5
			c12.8-7.4,26.8-14.3,41.6-20.4c18.5-7.7,38.3-14.4,58.8-19.8c30.1-7.9,57.6-12.1,81.7-12.4c19.1-0.3,36.1,1.8,50.4,6.3
			c12.6,3.9,20.9,8.9,25.6,12.4c5,3.8,7.2,6.7,7.2,6.7c0,0,0-0.1,0-0.1s6,7.9,6,12.2c0-4.9,6-12.2,6-12.2s0,0,0,0.1
			c0-0.1,2.2-3,7.2-6.7c4.7-3.5,12.9-8.5,25.6-12.4c14.4-4.4,31.4-6.5,50.4-6.3c24.1,0.4,51.6,4.5,81.7,12.4
			c20.5,5.4,40.3,12.1,58.8,19.8c14.8,6.2,28.8,13.1,41.6,20.4c21.8,12.6,32.8,22.4,32.9,22.5l0,0l3.8,3.5l67.4-36.2l4-2.1l-0.2-4.5
			c0-0.4-0.1-11.4,5-30.5c3.1-11.4,7.4-23.5,12.9-35.8c6.9-15.4,14.6-31.7,24.8-47.7l3.3-5.7l-3.5-3.2
			C866.2,339.6,857.4,329.9,849.7,319.9z M451.6,39.2c0.2-3.8,0.9-6.6,1.5-8.5c0,0,0,0,0,0c0.1-0.1,0.3-0.3,0.4-0.4
			c0.3-0.3,0.5-0.6,0.8-0.8c0.3,0.3,0.5,0.6,0.8,0.8c0.1,0.1,0.3,0.3,0.4,0.4c4.9,13.9,2.8,50.6-7.5,69.3
			c-11.3,20.4-6.9,45.2-6.9,45.2s-11.7,36.6-14.3,41.1c-7.4,15.2-28.4,23.6-48.4,28.2c14.1-3.7,19.2-6.3,19.2-6.3
			c16-9,23.2-21.5,25-25.4c13.6-30.2-9.7-28.8-9.7-28.8c36-29.1,21.4-47,21.4-47c-25-28.3-87.1,14.6-87.1,14.6
			c-25.8,17.9-30.5,19-30.5,19c-10.3,4.1-14.1-3.5-8.4-16c11.7-24.5,32.6-33.2,35.2-34.1c2.7-0.9,1.6,1.5,1.6,1.5
			c-4.3,10.7-1.2,14-1.2,14c5.6,6.7,27.2-12.8,27.2-12.8c29-23.5,50.8-22.3,50.8-22.3c22.2,1.9,15.4,20.6,15.4,20.6s-0.7,1.6,0,2.3
			c0.7,0.8,1.8,0.6,2.8-0.2C454.2,80.7,451.3,46.7,451.6,39.2z M387,164.5c5.2-0.1,9.9,3.8,7.9,17.5c-2,13.8-11.4,16.3-12.7,16.5
			c0,0-9.9,2.8-10.7-13.8C370.7,168.2,381.8,164.6,387,164.5z M382.6,144.3c1.8-8.7,9.2-33.1,19.1-30.5c10,2.6,2.3,21.8,0.7,25
			c-2.2,4.7-10.7,15.2-17.6,14.6C384.8,153.4,380.9,153,382.6,144.3z M839.6,400.4c-5.8,13.1-10.7,25.5-13.9,37.7
			c-3.7,13.8-4.9,23.7-5.2,29.2l-56.1,29.7c-5.2-4.1-15.4-11.7-30.9-20.6c-13.4-7.7-28-14.9-43.4-21.4c-19.2-8.1-39.8-15-61.1-20.6
			l0,0c-35.9-9.4-65.1-12.9-88.8-12.9c-50.2,0-75.3,15.9-85.7,25.2c-10.4-9.3-35.5-25.2-85.7-25.2c-23.7,0-52.9,3.5-88.8,12.9l0,0
			c-21.3,5.6-41.9,12.5-61.1,20.6c-15.4,6.5-30,13.7-43.4,21.4c-15.5,8.9-25.7,16.5-30.9,20.6l-54.8-29.5
			c-0.3-5.4-1.5-15.4-5.2-29.2c-3.2-12.2-7.8-25.1-13.6-38.2c-6.5-14.7-14.5-29.7-23.9-44.8c18.3-17.6,33.2-37.3,42.5-56.1
			c10.3-20.9,12.2-37.8,5.4-47.7c-1.9-2.8-4.5-5-7.6-6.4c-0.6-0.3-1.2-0.5-1.8-0.7c2.3-1.6,4.7-3.2,7.4-4.9
			c12.4-8.2,25.8-16.5,39.9-24.7c17.6-10.2,36.2-20.2,55.3-29.7c7.4-3.6,12.7-6.7,16.2-9.5c2.1-1.6,3.6-3.2,4.6-4.8
			c2.3-3.5,1.9-6.7,1.5-8.2c-0.1-0.5-0.4-1.1-0.7-1.7c2.9-1.1,5.9-2.2,9-3.6c11.9-5.2,21.7-11.4,30.1-19c5-4.5,9.5-9.6,13.4-15.1
			c4.2-6,7.8-12.6,10.7-19.8c3.1-7.6,5.4-16,6.9-24.9c1.1-6.5,1.8-13.5,2-20.8c5.4,1.3,12.3,2.7,20.2,4c11.1,1.7,27.9,3.7,46.7,3.7
			c1.6,0,3.2,0,4.8,0c21.8-0.4,41.3-3.5,58-9.2c0.5-0.2,1-0.3,1.5-0.5c0.1,0,0.2-0.1,0.3-0.1c0.5-0.2,1-0.3,1.4-0.5
			c0,0,0.1,0,0.1-0.1c0.4-0.2,0.9-0.3,1.3-0.5c0.1,0,0.2-0.1,0.3-0.1c0.5-0.2,0.9-0.4,1.4-0.5c0.1,0,0.2-0.1,0.3-0.1
			c0.4-0.2,0.8-0.3,1.1-0.5c0.1-0.1,0.2-0.1,0.4-0.2c0.4-0.2,0.9-0.4,1.3-0.6c0.1-0.1,0.2-0.1,0.3-0.2c0.3-0.2,0.7-0.3,1-0.5
			c0.1-0.1,0.3-0.1,0.4-0.2c0.4-0.2,0.8-0.4,1.2-0.6c0.1-0.1,0.3-0.1,0.4-0.2c0.3-0.1,0.6-0.3,0.9-0.4c0.1-0.1,0.3-0.1,0.4-0.2
			c0.4-0.2,0.8-0.4,1.2-0.6c0.2-0.1,0.3-0.2,0.5-0.2c0.3-0.1,0.6-0.3,0.8-0.4c0.2-0.1,0.3-0.2,0.5-0.3c0.3-0.2,0.7-0.4,1-0.5
			c0.2-0.1,0.4-0.2,0.5-0.3c0.3-0.1,0.5-0.3,0.8-0.4c0.2-0.1,0.5-0.3,0.7-0.4c0.2-0.1,0.5-0.3,0.7-0.4c0.2-0.1,0.4-0.2,0.6-0.3
			c0.2-0.1,0.5-0.3,0.7-0.4c0.3-0.2,0.6-0.3,0.8-0.5c0.2-0.1,0.4-0.2,0.6-0.4c0.2-0.1,0.4-0.2,0.6-0.4c0.2-0.1,0.4-0.3,0.6-0.4
			c0.3-0.2,0.6-0.4,0.9-0.6c0.2-0.1,0.3-0.2,0.5-0.3c0.2-0.1,0.4-0.3,0.6-0.4c0.2-0.1,0.4-0.3,0.6-0.4c0.3-0.2,0.6-0.4,0.9-0.6
			c0.2-0.1,0.3-0.2,0.5-0.3c0.2-0.1,0.4-0.3,0.6-0.4c0.3-0.2,0.6-0.4,0.8-0.6c0.3,11.5-0.7,21.8-0.7,21.8c-0.9,8-4.9,6.4-4.9,6.4
			c-24-7.1-53.6,10.8-72.1,17.1c-4.4,1.8-3.2,0.2-3.2,0.2c6.2-10.8-0.9-13.2-0.9-13.2c-27.1-12-74.9,31.8-75.8,66.8
			c-0.6,12.2,10.4,28.1,33.5,8.4c23.1-19.7,40.4-28.8,40.4-28.8c25.7-12.8,14.5,15.9,14.5,15.9c-27.2,88.9-78.2,80.6-78.2,80.6
			c-30.4-5-13.3-20.8-13.3-20.8c10.6-8.8,18.5-5.9,18.5-5.9s1.6,0.7,1.9-0.1c0.3-0.8-0.6-1.1-0.6-1.1c-8.3-3.2-18.6,1.7-18.6,1.7
			c-16.4,7.8-13.5,19.6-13.5,19.6c6.4,26.6,32.2,19.7,60.4,15.3c2.6-0.4,5-0.8,7.4-1.2c99-15.6,146-10.2,146-10.2
			c-33.3-9.2-29.6-41.6-29.6-41.6c34.7,45.1,77.6,47.9,149.1,55.5c34.3,3.5,36.7-16.8,36.7-16.8c1.7-18.6-19.1-24-28.1-23.5
			c-4.6,0.3-4.2,2-4.2,2c0.1,0.7,1,0.5,1,0.5c12.3-1.8,27.1,7.7,23.4,18.9c-5.8,17.2-43.6,7.8-56.1,6.1c6.7-1.2,12.3-6.3,16.7-12.7
			c2.2,3.2,5.7,6,10.9,7.6c15.5,4.8,21.7-5.1,20.8-6.1c-0.5-0.6-2.9,1.4-2.9,1.4s-8,6.1-17.2-4.1c0,0-5.5-5.7-0.7-15.6
			c4.8-9.9,15.9-12.5,35.2-4.5c0,0,12,4.8,30.4,23.3c0,0,19,21.1,26.9,13.3c4.9-4.7-8.1-21.6-8.1-21.6s-3.4-4.2,7-4.5
			c26.7,1.3,62.6,29.6,57,48.3c0,0-6.3,23.2-62.3-2.6c-29.2-13-51.6-10.1-51.3,9.9c0,0-11.1-17.4-75.5-18.9
			c-27.2-0.6-41.4,9-55.3,19.2c1.6-11.6,14.4-29-48.1-29.1c0,0-75.5-3.5-82.5,16.3c-0.5,2,0.8,3.8,1.3,2.9c0.5-0.9,1.9-4.9,8.3-3.8
			c6.3,1,17.9,12.7,17.3,39.6c-0.6,26.9-8.9,35-11.1,35.3c-2.2,0.3-12.7-4.5-14.5-42.4c0,0,2.4-38.9-29.8-36.1c0,0-10,0.3-23.4,8.3
			c-3.4,1.6-5.5,2.7-15-2.6c0,0-13.9-9-28.4,4.1c-16.2,14.7-40.6,61.9-41.1,96.7c-2.8-3.3-7.1-5.9-13.8-5c0,0-11.5,1.8-12.3,13.9
			c0,0-0.1,1.3,0.7,1.6c0.8,0.2,1.6-0.4,2.3-1.6c0.8-1.4,5.6-10,13.2-4c11.7,10.4-9.3,50.6-40.6,27.4c0,0-30-21.2,5.3-88.5
			c30.8-56.2,58.3-35.8,59.6-34.6c0,0,5.1,3.9,0.5,10.8c0,0-3.7,5.9-11.3,1.8c0,0-0.8-0.6-1.4,0.2c-0.5,0.8,0.6,1.9,0.6,1.9
			s10.8,9.2,19.7-1.6c0,0,5.3-6.1,4.7-13.9c0,0-0.1-20.1-28.1-14c-28,6.1-55.5,28.9-77.4,13.8c-16.4-11.4,17.5-41.5,32.8-48.3
			c0,0,12.1-5.9,23.1-4.9c11,1,0.4,10-2.7,17c-3.8,7.3,0.2,23.3,29.6-7.1c0,0,26.1-28.6,51.7-24.6c0,0,12,1.7,12.5,17.1
			c-0.1,12.1-14.2,15.2-20.7,10.6c0,0-1.7-1.5-2-0.7c0,0-0.4,1,0.7,2.2c1.2,1.2,11.1,11.7,27.1,0.4c0,0,8.7-5.9,7.1-17.3
			c-1.6-11.4-19.5-22.5-47.1-12.8c-29.3,10.8-37.4,21.4-40.4,22.6c0,0,12.4-21.5-20.9-12.1c-31.6,8.6-70.9,29-75.2,54.6
			c0,0-9.2,41.1,44,27.9c-16,17.2-60.8,103.6-17.3,126.9c0,0-61,17.5-81.3-16.8c-3-6-3.5-14.4,5.4-22.4c0,0,9-8,20.9,0.9
			c0,0,1.8,1.5,1.8-0.2c0,0,0-9.3-18.2-10.4c0,0-18.8-0.7-23.7,17.6c0,0-8.7,36.5,54,39.4c54.3,0.9,108.6-20.6,120.1-43.5
			c4.1,13.4,15.7,30.5,48.2,16.5c39.2-17,53.7-92.7,47-115.8c0,0-3.3-12.4-19-9.7c0,0-5.5,1.2-8,5.7c0,0-5.8,10.2-1.1,12
			c4.7,1.8,26.2-1,13.1,53.6c0,0-12.2,49.3-40.3,39c0,0-23.4-10.6-7.4-65.8c0,0,13.9-43.6,25.1-43.8c2.9,0.2,3.4,6.7,9.4,1
			c0,0,21.4-18.5,31.1-8.3c16.1,17.6-3.2,112.3-29.7,135.3c-26.5,23-52.3,28.3-54.1,23.1c-0.7-3.2,5.2-5.3,5.1-12.6
			c0,0,0.1-18.7-38.3-0.8c0,0-13.4,6.3-25.5,21.9c0,0-19.6,24.4-50.9,11.8c0,0-14.4-6.1-11-15c0,0,0.2-0.6-0.1-0.8
			c-0.3-0.2-2.5,1-2.5,4.9c0.1,5.2,3.7,21.8,28.6,20.6c0,0,20.4,0.8,37.4-19.6c17-20.4,36.8-21.9,37.6-17.7
			c0.9,4.2-13.6,8.2-11.9,21.4c0,0,1.7,10.9,41.1-6.3c0,0,80.2-36.9,101.2-52.1c8.3-5.6,13-16.3,13-16.3s1.3-2.6,0.9-2.5
			c0,0-0.3-0.5-1.8,1.7c-1.5,2.4-10.2,14-15.1,3.6c0,0-13.1-34.7,1.4-73.5c0,0,5,17.8,20.6,74.5c15.4,55.6,67.4,72.3,101.4,55.3
			c0,0,70.1-34.9,79.5-2.9c2,8.6-7.3,12.7-11.7,13.1c0,0-5.2,0.6-9.1-2.3c0,0-1.2-0.9-2,0.3c0,0,9.8,12.5,26.7,2
			c16.3-11.7,4.6-27.7,1.4-29.8c0,0,51,23.2,72.5,30.6c21.5,7.3,34.6,9.7,37.1,4.5c2.1-5-2.1-11.8-12-21.1c0,0-1.6-1.8,4.2-1.9
			c5.7,0,14.3,0.2,32.8,19c19.3,20.2,39.9,18.7,56.7,15.6c0,0,61.8-9,75.6-55.9c0,0,5.8-20.5-21.6-26c0,0-13-2.4-20,8.8
			c-0.7,1.2-0.5,2.5,0.6,2.4c0,0,0.5,0.2,2.5-1.8c3.2-2.8,12.1-6,20.9,1.8c0,0,15,12.7-6.2,38.4c-22.3,26.3-61.1,31.2-72.4,28.3
			c-26.1-6.7-30.9-22.6-35.2-24.2c0,0,34,9.3,54.5-17c10.8-17.1,2.6-25,1.9-25.7c0,0-11.1-12.2-25.9,0c-6,5.1-4.2,13.1-3.3,13.2
			c0,0,0.8,0.4,1.5-1.4c0,0,3.9-10.1,13.7-4.1c6.9,3.7,1.6,28.2-17.7,28.1c0,0-34.1-0.4-32.5-47.8c1.9-24.6,11.4-34.1,10.3-58.6
			c0,0,0.9-22.5-28.2-43.7c27.2,12.8,63,45.9,86.2,17.1c0,0,21.9-28.5-36.6-60.7c-31.6-16.7-69.9-24.4-57.2-1.7
			c0,0-45.4-36-73.6-23.6c0-0.1,0-0.2,0-0.3c5.2-59.6-56.7-83.2-97.5-84.2c-41.9-1.5-53.2,28.9-53.2,28.9
			c2.1-30,22.6-38.2,28.8-40.7c6.3-2.1,8-0.1,8-0.1c-9.8,6.5-7.8,10.5-7.8,10.5c1.4,3.5,9.9,0,9.9,0c53.7-18.6,87.3,10.5,87.3,10.5
			c30.8,23,43.3,10.7,43.3,10.7c14.8-13.3,0-28.4,0-28.4c-13.7-12.7-29-3.6-28.7-2c0.3,1,1.2,1,2.5,1.1
			c21.8,0.5,18.9,14.9,18.9,14.9c-3.2,20-45.4-6.2-45.4-6.2c-24-15-55.2-10.9-55.2-10.9c-15.4,2-12.8,0.5-12.8,0.5
			c3.7-3.2,2.6-6.9,2.6-6.9c-4-15.1-28.6,1.7-28.6,1.7c-6.8,4.4-6.6-2-6.7-3.8c-0.1-1.1-0.4-20.6-0.5-29c0,0,0,0,0,0
			c0.3,0.2,0.7,0.5,1,0.7c0.1,0.1,0.3,0.2,0.4,0.3c0.3,0.2,0.6,0.4,0.9,0.6c0.1,0.1,0.2,0.2,0.4,0.2c0.3,0.2,0.6,0.4,0.9,0.6
			c0.1,0.1,0.3,0.2,0.4,0.3c0.3,0.2,0.6,0.4,1,0.6c0.1,0.1,0.2,0.1,0.3,0.2c0.3,0.2,0.6,0.4,0.9,0.6c0.1,0.1,0.3,0.2,0.4,0.2
			c0.4,0.2,0.7,0.4,1.1,0.7c0.1,0.1,0.2,0.1,0.3,0.2c0.3,0.2,0.6,0.4,0.9,0.5c0.1,0.1,0.3,0.2,0.4,0.2c0.4,0.2,0.8,0.4,1.1,0.7
			c0.1,0.1,0.2,0.1,0.3,0.2c0.3,0.2,0.6,0.4,1,0.5c0.1,0.1,0.2,0.1,0.4,0.2c0.4,0.2,0.8,0.4,1.2,0.6c0.1,0.1,0.2,0.1,0.3,0.2
			c0.3,0.2,0.7,0.3,1,0.5c0.1,0.1,0.2,0.1,0.3,0.2c0.4,0.2,0.8,0.4,1.2,0.6c0.1,0.1,0.2,0.1,0.3,0.2c0.4,0.2,0.7,0.3,1.1,0.5
			c0.1,0,0.2,0.1,0.3,0.1c0.4,0.2,0.9,0.4,1.3,0.6c0.1,0.1,0.2,0.1,0.3,0.2c0.4,0.2,0.8,0.3,1.1,0.5c0.1,0,0.2,0.1,0.3,0.1
			c0.4,0.2,0.9,0.4,1.3,0.6c0.1,0,0.2,0.1,0.3,0.1c0.4,0.2,0.8,0.3,1.2,0.5c0.1,0,0.1,0.1,0.2,0.1c0.5,0.2,0.9,0.4,1.4,0.5
			c0.1,0,0.2,0.1,0.3,0.1c0.4,0.2,0.9,0.3,1.3,0.5c0,0,0.1,0,0.1,0c0.5,0.2,0.9,0.3,1.4,0.5c0.1,0,0.2,0.1,0.3,0.1
			c0.5,0.2,1,0.3,1.5,0.5c16.7,5.7,36.2,8.8,58,9.2c20.8,0.4,39.5-1.8,51.5-3.7c7.9-1.2,14.8-2.7,20.2-4c0.2,7.3,0.9,14.2,2,20.8
			c1.5,8.9,3.8,17.3,6.9,24.9c2.9,7.1,6.5,13.8,10.7,19.8c3.9,5.5,8.4,10.6,13.4,15.1c1.6,1.5,5.2,4.2,5.2,4.1
			c7.2,5.7,15.5,10.5,25,14.7c3.1,1.3,6.1,2.5,9,3.6c-0.3,0.6-0.5,1.2-0.7,1.7c-0.4,1.6-0.8,4.7,1.5,8.2c1,1.6,2.6,3.2,4.6,4.8
			c3.5,2.8,8.8,5.9,16.2,9.5c1.6,0.8,3.2,1.6,4.8,2.4c0,0.1-0.1,0.1-0.1,0.2c0,0,0,0,0,0c17.5,8.8,34.5,18,50.6,27.3
			c14.1,8.2,27.5,16.5,39.9,24.7c2.6,1.7,5.1,3.4,7.4,4.9c-0.6,0.2-1.2,0.5-1.8,0.7c-3.1,1.4-5.7,3.6-7.6,6.4
			c-6.8,9.9-4.9,26.8,5.4,47.7c9.3,18.8,26.1,38.6,44.4,56.2C854.3,370.3,846.1,385.7,839.6,400.4z M476,166.6
			c-5.4-1.5-13.3-9.8-20.2-23.1c0,0,4.8-20.2,16.2-20.7c9.5-0.9,9.2,28.1,9.2,30C481.1,152.8,481.4,168.1,476,166.6z M508.2,99.6
			c0,0,7.1-2.4,9.8,17.1c0,0,8.2,76.1-3,80c0,0-6.3,2.8-11.6-12.3C498.1,169.4,486.3,107.2,508.2,99.6z M552.3,115.4
			c11.6-2,18,33.1,19.3,50.7c1.3,17.5-4.6,30.2-11.8,30.5c0,0-6.3,1-9.2-13.7C547.9,168.2,540.8,117.4,552.3,115.4z M686.7,384.4
			c-22.3-10.1-38.1-4.4-40.8,1.8c-2.7,6.2,7.2,12.6,6.2,16.4c-0.9,3.7-19.7-2-19.7-2c-41.1-13-87.3-48.5-84.6-96.2
			c4.2-77.8,51.2-68.6,51.2-68.6c-58.6,17-38.9,89.8-38.9,89.8c15.4,49.8,48.5,55.9,68.3,57.2c19.1,1.7,46.3-13.4,45.9-38.1
			c-0.4-24.7-15-36.4-25.6-36.3c-10.7,0.2-13.6,9.9-13.1,14.8c0.5,5,2.8,7.4,3.4,7.1c0.6-0.3,0.3-2.8,0.3-3.8
			c0.4-6.7,8.2-5.7,8.2-5.7C666.4,324.3,668,341,668,341c1.9,27.2-27,24.2-27,24.2c-31.9-2.4-48.5-37-48.5-37
			c-10.7-19.5-7.7-54.5,6.4-73.1c14.3-18.3,28.1-4.8,28.1-4.8c9.9,9.4,4.4,17.5,4.4,17.5c-7.8,12.7-16.6,5.5-16.6,5.5
			s-0.8-0.9-1.3-0.8c-0.4,0-0.3,0.7-0.3,0.7c0.8,5.7,12.3,6.3,12.3,6.3c13.3,0.1,20.3-11.9,17.3-21.6c9.2,9.1,25.1,4.8,27.7,4
			c2.6-0.7,2-1.9,2-1.9c-0.2-0.5-2-0.1-2-0.1c-14.8,2.6-16-7-16-7c-1.3-7.3,4.6-9.8,4.6-9.8c25.4-11.2,42.6,30.5,26.6,71
			C668.8,354.7,678,374.1,686.7,384.4z M455.4,288.4c1,0.2,5.3,2.3,13.3,0.1c0,0-60.5,85.2,1.6,110.8c0,0-45,3.7-35-63.3
			c4.5-29.4,26.5-70,26.5-70s15.5-25.7-0.3-29.1c-7.5-1.5-7.1-3.3-7.1-3.3s0-5.9,15.4-6.6c0,0,12.5-0.7,15.5,12.1
			c4.1,16.3-3.8,43.7-29.6,48.8C455.6,288,454.7,288.2,455.4,288.4z M434,268.4c-0.4-0.4-1.1,0.3-1.1,0.3
			c-12.7,10.5-18.5-5.7-18.7-9.9c-1.1-21.5,23.4-24,23.4-24c-8,8.5-1.9,12.7-1.9,12.7c3.5,2.8,4.9,5.8,4.9,5.8
			c3.3,5.6-15.4,51.1-15.4,51.1c-19.3,42.2-11.9,66.7,19.3,93.6c-57.6-20.9-33.5-125-33.5-125c12.1,10.8,22-2.8,22-2.8
			S434.4,268.8,434,268.4z M477.8,320.6c5.1,28.4,78.4,53.5,78.4,53.5c-14.2-2.4-33.3,7.9-33.3,7.9c-18.7,9.3-30.7,7.5-30.7,7.5
			C455.5,383.8,477.8,320.6,477.8,320.6z M504,276.2c6.5-6.3,14.9-15.9,20.1-13.6c3.2,1.5,8.9,5.5,5.6,40.9c0,0-2.2,31.8-10.6,32.8
			c0,0-18.1,1.3-22.4-34.7C495.9,291.9,497.5,282.5,504,276.2z"/>
	</g>
	<g>
		<linearGradient id="SVGID_1_" gradientUnits="userSpaceOnUse" x1="455.3738" y1="57.5651" x2="455.3738" y2="415.5107">
			<stop  offset="0" style="stop-color:#FEF81F"/>
			<stop  offset="1" style="stop-color:#EE5CF0"/>
		</linearGradient>
		<path style="fill:url(#SVGID_1_);" d="M850.7,317.9c-7.1-9.2-12.9-18.4-17.3-27.3c-4-8.1-6.6-15.7-7.5-21.9c-0.7-5-0.3-9,1.1-11.1
			c0.4-0.6,1.4-2.1,5.6-2c3.2,0,8.9,1.1,18.2,5.7l57.6,28.8l-49.7-40.9c-0.5-0.4-11.5-9.5-33.2-23.8c-12.7-8.4-26.4-16.9-40.7-25.2
			c-8.6-5-17.4-9.9-26.4-14.7c0.1-0.1,0.1-0.1,0.2-0.2c-9.8-5.3-19.9-10.5-30.1-15.5l0,0c-24.1-13.4,6.2-9.8,6.2-9.8
			s-34-6.7-63.7-34.6c-0.2-0.2-8.4-8.3-11.4-12.5c-3.6-5.1-6.6-10.7-9.1-16.8c-2.7-6.6-4.7-14-6-21.9c-1.4-8.5-2.1-17.9-1.9-27.9
			l0.2-10.7l-10,3.8c-6.8,2.6-36.9,9.6-71.5,9.6c-1.5,0-3,0-4.6,0c-20.3-0.4-38.3-3.2-53.6-8.4c-8.7-3-16.5-6.8-23.3-11.3
			c-7.3-4.8-13.5-10.6-18.5-17.2L459,9c0,0-3.7-4.7-3.7-6.8c0,1.6-3.6,6.8-3.6,6.8l-2.2,2.9c-5,6.6-11.3,12.3-18.5,17.2
			c-6.8,4.5-14.6,8.3-23.3,11.3c-15.2,5.2-33.3,8.1-53.6,8.4c-36.5,0.7-68.9-6.9-76-9.6l-10-3.8l0.2,10.7c0.2,10-0.5,19.3-1.9,27.9
			c-1.3,7.9-3.3,15.2-6,21.9c-2.4,6.1-5.5,11.7-9.1,16.8c-3.3,4.6-7.1,8.8-11.3,12.7c-29.7,27.9-63.7,34.6-63.7,34.6
			s30.3-3.5,6.2,9.8l0,0c-19.5,9.7-38.5,19.9-56.4,30.3c-14.3,8.3-28,16.8-40.7,25.2c-21.7,14.4-32.8,23.4-33.2,23.8L2.5,290.1
			l57.6-28.8c9.3-4.6,15-5.7,18.2-5.7c4.1-0.1,5.2,1.5,5.6,2c1.4,2.1,1.8,6.1,1.1,11.1c-0.9,6.2-3.5,13.8-7.5,21.9
			c-4.4,8.9-10.2,18.1-17.3,27.3c-7.7,10-16.6,19.7-26.4,28.7l-4.5,4.1l3.3,5.2c10.2,16,18.9,31.9,25.8,47.4
			c5.5,12.3,9.8,24.4,12.9,35.8c5.2,19.1,5,30,5,30.5l-0.2,4.5l66.8,36l4.5,2.5l3.8-3.5c0.3-0.3,11.3-10,32.9-22.5
			c12.8-7.4,26.8-14.3,41.6-20.4c18.5-7.7,38.3-14.4,58.8-19.8c30.1-7.9,57.6-12.1,81.7-12.4c19.1-0.3,36.1,1.8,50.4,6.3
			c12.6,3.9,20.9,8.9,25.6,12.4c5,3.8,7.2,6.7,7.2,6.7c0,0,0-0.1,0-0.1s6,7.9,6,12.2c0-4.9,6-12.2,6-12.2s0,0,0,0.1
			c0-0.1,2.2-3,7.2-6.7c4.7-3.5,12.9-8.5,25.6-12.4c14.4-4.4,31.4-6.5,50.4-6.3c24.1,0.4,51.6,4.5,81.7,12.4
			c20.5,5.4,40.3,12.1,58.8,19.8c14.8,6.2,28.8,13.1,41.6,20.4c21.8,12.6,32.8,22.4,32.9,22.5l0,0l3.8,3.5l67.4-36.2l4-2.1l-0.2-4.5
			c0-0.4-0.1-11.4,5-30.5c3.1-11.4,7.4-23.5,12.9-35.8c6.9-15.4,15.5-31.4,25.8-47.4l3.3-5.2l-4.5-4.1
			C867.2,337.6,858.4,327.9,850.7,317.9z M452.6,37.2c0.2-3.8,0.9-6.6,1.5-8.5c0,0,0,0,0,0c0.1-0.1,0.3-0.3,0.4-0.4
			c0.3-0.3,0.5-0.6,0.8-0.8c0.3,0.3,0.5,0.6,0.8,0.8c0.1,0.1,0.3,0.3,0.4,0.4c4.9,13.9,2.8,50.6-7.5,69.3
			c-11.3,20.4-6.9,45.2-6.9,45.2s-11.7,36.6-14.3,41.1c-7.4,15.2-28.4,23.6-48.4,28.2c14.1-3.7,19.2-6.3,19.2-6.3
			c16-9,23.2-21.5,25-25.4c13.6-30.2-9.7-28.8-9.7-28.8c36-29.1,21.4-47,21.4-47c-25-28.3-87.1,14.6-87.1,14.6
			c-25.8,17.9-30.5,19-30.5,19c-10.3,4.1-14.1-3.5-8.4-16c11.7-24.5,32.6-33.2,35.2-34.1c2.7-0.9,1.6,1.5,1.6,1.5
			c-4.3,10.7-1.2,14-1.2,14c5.6,6.7,27.2-12.8,27.2-12.8c29-23.5,50.8-22.3,50.8-22.3c22.2,1.9,15.4,20.6,15.4,20.6s-0.7,1.6,0,2.3
			c0.7,0.8,1.8,0.6,2.8-0.2C455.2,78.7,452.3,44.7,452.6,37.2z M388,162.5c5.2-0.1,9.9,3.8,7.9,17.5c-2,13.8-11.4,16.3-12.7,16.5
			c0,0-9.9,2.8-10.7-13.8C371.7,166.2,382.8,162.6,388,162.5z M383.6,142.3c1.8-8.7,9.2-33.1,19.1-30.5c10,2.6,2.3,21.8,0.7,25
			c-2.2,4.7-10.7,15.2-17.6,14.6C385.8,151.4,381.8,151,383.6,142.3z M838.9,398c-5.8,13.1-10.4,26-13.6,38.2
			c-3.7,13.8-4.8,23.8-5.2,29.2l-54.8,29.5c-5.2-4.1-15.4-11.7-30.9-20.6c-13.4-7.7-28-14.9-43.4-21.4c-19.2-8.1-39.8-15-61.1-20.6
			l0,0c-35.9-9.4-65.1-12.9-88.8-12.9c-50.2,0-75.3,15.9-85.7,25.2c-10.4-9.3-35.5-25.2-85.7-25.2c-23.7,0-52.9,3.5-88.8,12.9l0,0
			c-21.3,5.6-41.9,12.5-61.1,20.6c-15.4,6.5-30,13.7-43.4,21.4c-15.5,8.9-25.7,16.5-30.9,20.6l-54.8-29.5
			c-0.3-5.4-1.5-15.4-5.2-29.2c-3.2-12.2-7.8-25.1-13.6-38.2c-6.5-14.7-14.5-29.7-23.9-44.8c18.3-17.6,33.2-37.3,42.5-56.1
			c10.3-20.9,12.2-37.8,5.4-47.7c-1.9-2.8-4.5-5-7.6-6.4c-0.6-0.3-1.2-0.5-1.8-0.7c2.3-1.6,4.7-3.2,7.4-4.9
			c12.4-8.2,25.8-16.5,39.9-24.7c17.6-10.2,36.2-20.2,55.3-29.7c7.4-3.6,12.7-6.7,16.2-9.5c2.1-1.6,3.6-3.2,4.6-4.8
			c2.3-3.5,1.9-6.7,1.5-8.2c-0.1-0.5-0.4-1.1-0.7-1.7c2.9-1.1,5.9-2.2,9-3.6c11.9-5.2,21.7-11.4,30.1-19c5-4.5,9.5-9.6,13.4-15.1
			c4.2-6,7.8-12.6,10.7-19.8c3.1-7.6,5.4-16,6.8-24.9c1.1-6.5,1.8-13.5,2-20.8c5.4,1.3,12.3,2.7,20.2,4c11.1,1.7,27.9,3.7,46.7,3.7
			c1.6,0,3.2,0,4.8,0c21.8-0.4,41.3-3.5,58-9.2c0.5-0.2,1-0.3,1.5-0.5c0.1,0,0.2-0.1,0.3-0.1c0.5-0.2,1-0.3,1.4-0.5
			c0,0,0.1,0,0.1-0.1c0.4-0.2,0.9-0.3,1.3-0.5c0.1,0,0.2-0.1,0.3-0.1c0.5-0.2,0.9-0.4,1.4-0.5c0.1,0,0.2-0.1,0.3-0.1
			c0.4-0.2,0.8-0.3,1.1-0.5c0.1-0.1,0.2-0.1,0.4-0.2c0.4-0.2,0.9-0.4,1.3-0.6c0.1-0.1,0.2-0.1,0.3-0.2c0.3-0.2,0.7-0.3,1-0.5
			c0.1-0.1,0.3-0.1,0.4-0.2c0.4-0.2,0.8-0.4,1.2-0.6c0.1-0.1,0.3-0.1,0.4-0.2c0.3-0.1,0.6-0.3,0.9-0.4c0.1-0.1,0.3-0.1,0.4-0.2
			c0.4-0.2,0.8-0.4,1.2-0.6c0.2-0.1,0.3-0.2,0.5-0.2c0.3-0.1,0.6-0.3,0.8-0.4c0.2-0.1,0.3-0.2,0.5-0.3c0.3-0.2,0.7-0.4,1-0.5
			c0.2-0.1,0.4-0.2,0.5-0.3c0.3-0.1,0.5-0.3,0.8-0.4c0.2-0.1,0.5-0.3,0.7-0.4c0.2-0.1,0.5-0.3,0.7-0.4c0.2-0.1,0.4-0.2,0.6-0.3
			c0.2-0.1,0.5-0.3,0.7-0.4c0.3-0.2,0.6-0.3,0.8-0.5c0.2-0.1,0.4-0.2,0.6-0.4c0.2-0.1,0.4-0.2,0.6-0.4c0.2-0.1,0.4-0.3,0.6-0.4
			c0.3-0.2,0.6-0.4,0.9-0.6c0.2-0.1,0.3-0.2,0.5-0.3c0.2-0.1,0.4-0.3,0.6-0.4c0.2-0.1,0.4-0.3,0.6-0.4c0.3-0.2,0.6-0.4,0.9-0.6
			c0.2-0.1,0.3-0.2,0.5-0.3c0.2-0.1,0.4-0.3,0.6-0.4c0.3-0.2,0.6-0.4,0.8-0.6c0.2,11.5-0.7,21.8-0.7,21.8c-0.9,8-4.9,6.4-4.9,6.4
			c-24-7.1-53.6,10.8-72.1,17.1c-4.4,1.8-3.2,0.2-3.2,0.2c6.2-10.8-0.9-13.2-0.9-13.2c-27.1-12-74.9,31.8-75.8,66.8
			c-0.6,12.2,10.4,28.1,33.5,8.4c23.1-19.7,40.4-28.8,40.4-28.8c25.7-12.8,14.5,15.9,14.5,15.9c-27.2,88.9-78.2,80.6-78.2,80.6
			c-30.4-5-13.3-20.8-13.3-20.8c10.6-8.8,18.5-5.9,18.5-5.9s1.6,0.7,1.9,0c0.3-0.8-0.6-1.1-0.6-1.1c-8.3-3.2-18.6,1.7-18.6,1.7
			c-16.4,7.8-13.5,19.6-13.5,19.6c6.4,26.6,32.2,19.7,60.4,15.3c2.6-0.4,5-0.8,7.4-1.2c99-15.6,146-10.2,146-10.2
			c-33.3-9.2-29.6-41.6-29.6-41.6c34.7,45.1,77.6,47.9,149.1,55.5c34.3,3.5,36.7-16.8,36.7-16.8c1.7-18.6-19.1-24-28.1-23.5
			c-4.6,0.3-4.2,2-4.2,2c0.1,0.7,1,0.5,1,0.5c12.3-1.8,27.1,7.7,23.4,18.9c-5.8,17.2-43.6,7.8-56.1,6.1c6.7-1.2,12.3-6.3,16.7-12.7
			c2.2,3.2,5.7,6,10.9,7.6c15.5,4.8,21.7-5.1,20.8-6.1c-0.5-0.6-2.9,1.4-2.9,1.4s-8,6.1-17.2-4.1c0,0-5.5-5.7-0.7-15.6
			c4.8-9.9,15.9-12.5,35.2-4.5c0,0,12,4.8,30.4,23.3c0,0,19,21.1,26.9,13.3c4.9-4.7-8.1-21.6-8.1-21.6s-3.4-4.2,7-4.5
			c26.7,1.3,62.6,29.6,57,48.3c0,0-6.3,23.2-62.3-2.6c-29.2-13-51.6-10.1-51.3,9.9c0,0-11.1-17.4-75.5-18.9
			c-27.2-0.6-41.4,9-55.3,19.2c1.6-11.6,14.4-29-48.1-29.1c0,0-75.5-3.5-82.5,16.3c-0.5,2,0.8,3.8,1.3,2.9c0.5-0.9,1.9-4.9,8.3-3.8
			c6.3,1,17.9,12.7,17.3,39.6c-0.6,26.9-8.9,35-11.1,35.3c-2.2,0.3-12.7-4.5-14.5-42.4c0,0,2.4-38.9-29.8-36.1c0,0-10,0.3-23.4,8.3
			c-3.4,1.6-5.5,2.7-15-2.6c0,0-13.9-9-28.4,4.1c-16.2,14.7-40.6,61.9-41.1,96.7c-2.8-3.3-7.1-5.9-13.8-5c0,0-11.5,1.8-12.3,13.9
			c0,0-0.1,1.3,0.7,1.6c0.8,0.2,1.6-0.4,2.3-1.6c0.8-1.4,5.6-10,13.2-4c11.7,10.4-9.3,50.6-40.6,27.4c0,0-30-21.2,5.3-88.5
			c30.8-56.2,58.3-35.8,59.6-34.6c0,0,5.1,3.9,0.5,10.8c0,0-3.7,5.9-11.3,1.8c0,0-0.8-0.6-1.4,0.2c-0.5,0.8,0.6,1.9,0.6,1.9
			s10.8,9.2,19.7-1.6c0,0,5.3-6.1,4.7-13.9c0,0-0.1-20.1-28.1-14c-28,6.1-55.5,28.9-77.4,13.8c-16.4-11.4,17.5-41.5,32.8-48.3
			c0,0,12.1-5.9,23.1-4.9c11,1,0.4,10-2.7,17c-3.8,7.3,0.2,23.3,29.6-7.1c0,0,26.1-28.6,51.7-24.6c0,0,12,1.7,12.5,17
			c-0.1,12.1-14.2,15.2-20.7,10.6c0,0-1.7-1.5-2-0.7c0,0-0.4,1,0.7,2.2c1.2,1.2,11.1,11.7,27.1,0.4c0,0,8.7-5.9,7.1-17.3
			c-1.6-11.4-19.5-22.5-47.1-12.8c-29.3,10.8-37.4,21.4-40.4,22.6c0,0,12.4-21.5-20.9-12.1c-31.6,8.6-70.9,29-75.2,54.6
			c0,0-9.2,41.1,44,27.9c-16,17.2-60.8,103.6-17.3,126.9c0,0-61,17.5-81.3-16.8c-3-6-3.5-14.4,5.4-22.4c0,0,9-8,20.9,0.9
			c0,0,1.8,1.5,1.8-0.2c0,0,0-9.3-18.2-10.4c0,0-18.8-0.7-23.7,17.6c0,0-8.7,36.5,54,39.4c54.3,0.9,108.6-20.6,120.1-43.5
			c4.1,13.4,15.7,30.5,48.2,16.5c39.2-17.1,53.7-92.7,47-115.8c0,0-3.3-12.4-19-9.7c0,0-5.5,1.2-8,5.7c0,0-5.8,10.2-1.1,12
			c4.7,1.8,26.2-1,13.1,53.6c0,0-12.2,49.3-40.3,39c0,0-23.4-10.6-7.4-65.8c0,0,13.9-43.6,25.1-43.8c2.9,0.2,3.4,6.7,9.4,1
			c0,0,21.4-18.5,31.1-8.3c16.1,17.6-3.2,112.3-29.7,135.3c-26.5,23-52.3,28.3-54.1,23.1c-0.7-3.2,5.2-5.3,5.1-12.6
			c0,0,0.1-18.7-38.3-0.8c0,0-13.4,6.3-25.5,21.9c0,0-19.6,24.4-50.9,11.8c0,0-14.4-6.1-11-15c0,0,0.2-0.6-0.1-0.8
			c-0.3-0.2-2.5,1-2.5,4.9c0.1,5.2,3.7,21.8,28.6,20.6c0,0,20.4,0.8,37.4-19.6c17-20.4,36.8-21.9,37.6-17.7
			c0.9,4.2-13.6,8.2-11.9,21.4c0,0,1.7,10.9,41.1-6.3c0,0,80.2-36.9,101.2-52.1c8.3-5.6,13-16.3,13-16.3s1.3-2.6,0.9-2.5
			c0,0-0.3-0.5-1.8,1.7c-1.5,2.4-10.2,14-15.1,3.6c0,0-13.1-34.7,1.4-73.5c0,0,5,17.8,20.6,74.5c15.4,55.6,67.4,72.3,101.4,55.3
			c0,0,70.1-34.9,79.5-2.9c2,8.6-7.3,12.7-11.7,13.1c0,0-5.2,0.6-9.1-2.3c0,0-1.2-0.9-2,0.3c0,0,9.8,12.5,26.7,2
			c16.3-11.7,4.6-27.7,1.4-29.8c0,0,51,23.2,72.5,30.6c21.5,7.3,34.6,9.7,37.1,4.5c2.1-5-2.1-11.8-12-21.1c0,0-1.6-1.8,4.2-1.9
			c5.7,0,14.3,0.2,32.8,19c19.3,20.2,39.9,18.7,56.7,15.6c0,0,61.8-9,75.6-55.9c0,0,5.8-20.5-21.6-26c0,0-13-2.4-20,8.8
			c-0.7,1.2-0.5,2.5,0.6,2.4c0,0,0.5,0.2,2.5-1.8c3.2-2.8,12.1-6,20.9,1.8c0,0,15,12.7-6.2,38.4c-22.3,26.3-61.1,31.2-72.4,28.3
			c-26.1-6.7-30.9-22.6-35.2-24.2c0,0,34,9.3,54.5-17c10.8-17.1,2.6-25,1.9-25.7c0,0-11.1-12.2-25.9,0c-6,5.1-4.2,13.1-3.3,13.2
			c0,0,0.8,0.4,1.5-1.4c0,0,3.9-10.1,13.7-4.1c6.9,3.7,1.6,28.2-17.7,28.1c0,0-34.1-0.4-32.5-47.8c1.9-24.6,11.4-34.1,10.3-58.6
			c0,0,0.9-22.5-28.2-43.7c27.2,12.8,63,45.9,86.2,17.1c0,0,21.9-28.5-36.6-60.7c-31.6-16.7-69.9-24.4-57.2-1.7
			c0,0-45.4-36-73.6-23.6c0-0.1,0-0.2,0-0.3c5.2-59.6-56.7-83.2-97.5-84.2c-41.9-1.5-53.2,28.9-53.2,28.9
			c2.1-30,22.6-38.2,28.8-40.7c6.3-2.1,8-0.1,8-0.1c-9.8,6.5-7.8,10.5-7.8,10.5c1.4,3.5,9.9,0,9.9,0c53.7-18.6,87.3,10.5,87.3,10.5
			c30.8,23,43.3,10.7,43.3,10.7c14.8-13.3,0-28.4,0-28.4c-13.7-12.7-29-3.6-28.7-2c0.3,1,1.2,1,2.5,1.1
			c21.8,0.5,18.9,14.9,18.9,14.9c-3.2,20-45.4-6.2-45.4-6.2c-24-15-55.2-10.9-55.2-10.9c-15.4,2-12.8,0.5-12.8,0.5
			c3.7-3.2,2.6-6.9,2.6-6.9c-4-15.1-28.6,1.7-28.6,1.7c-6.8,4.4-6.6-2-6.7-3.8c-0.1-1.1-0.4-20.6-0.5-29c0,0,0,0,0,0
			c0.3,0.2,0.7,0.5,1,0.7c0.1,0.1,0.3,0.2,0.4,0.3c0.3,0.2,0.6,0.4,0.9,0.6c0.1,0.1,0.2,0.2,0.4,0.2c0.3,0.2,0.6,0.4,0.9,0.6
			c0.1,0.1,0.3,0.2,0.4,0.3c0.3,0.2,0.6,0.4,1,0.6c0.1,0.1,0.2,0.1,0.3,0.2c0.3,0.2,0.6,0.4,0.9,0.6c0.1,0.1,0.3,0.2,0.4,0.2
			c0.4,0.2,0.7,0.4,1.1,0.7c0.1,0.1,0.2,0.1,0.3,0.2c0.3,0.2,0.6,0.4,0.9,0.5c0.1,0.1,0.3,0.2,0.4,0.2c0.4,0.2,0.8,0.4,1.1,0.7
			c0.1,0.1,0.2,0.1,0.3,0.2c0.3,0.2,0.6,0.4,1,0.5c0.1,0.1,0.2,0.1,0.4,0.2c0.4,0.2,0.8,0.4,1.2,0.6c0.1,0.1,0.2,0.1,0.3,0.2
			c0.3,0.2,0.7,0.3,1,0.5c0.1,0.1,0.2,0.1,0.3,0.2c0.4,0.2,0.8,0.4,1.2,0.6c0.1,0.1,0.2,0.1,0.3,0.2c0.4,0.2,0.7,0.3,1.1,0.5
			c0.1,0,0.2,0.1,0.3,0.1c0.4,0.2,0.9,0.4,1.3,0.6c0.1,0.1,0.2,0.1,0.3,0.1c0.4,0.2,0.7,0.3,1.1,0.5c0.1,0,0.2,0.1,0.3,0.1
			c0.4,0.2,0.9,0.4,1.3,0.6c0.1,0,0.2,0.1,0.3,0.1c0.4,0.2,0.8,0.3,1.2,0.5c0.1,0,0.1,0.1,0.2,0.1c0.5,0.2,0.9,0.4,1.4,0.5
			c0.1,0,0.2,0.1,0.3,0.1c0.4,0.2,0.9,0.3,1.3,0.5c0,0,0.1,0,0.1,0c0.5,0.2,0.9,0.3,1.4,0.5c0.1,0,0.2,0.1,0.3,0.1
			c0.5,0.2,1,0.3,1.5,0.5c16.7,5.7,36.2,8.8,58,9.2c20.8,0.4,39.5-1.8,51.5-3.7c7.9-1.2,14.8-2.7,20.2-4c0.2,7.3,0.9,14.2,2,20.8
			c1.5,8.9,3.8,17.3,6.9,24.9c2.9,7.1,6.5,13.8,10.7,19.8c3.9,5.5,8.4,10.6,13.4,15.1c1.6,1.5,5.2,4.2,5.2,4.1
			c7.2,5.7,15.5,10.5,25.1,14.7c3.1,1.3,6.1,2.5,9,3.6c-0.3,0.6-0.5,1.2-0.7,1.7c-0.4,1.6-0.8,4.7,1.5,8.2c1,1.6,2.6,3.2,4.6,4.8
			c3.5,2.8,8.8,5.9,16.2,9.5c1.6,0.8,3.2,1.6,4.8,2.4c0,0.1-0.1,0.1-0.1,0.2c0,0,0,0,0,0c17.5,8.8,34.5,18,50.6,27.3
			c14.1,8.2,27.5,16.5,39.9,24.7c2.6,1.7,5.1,3.4,7.4,4.9c-0.6,0.2-1.2,0.5-1.8,0.7c-3.1,1.4-5.7,3.6-7.7,6.4
			c-6.8,9.9-4.9,26.8,5.4,47.7c9.3,18.8,24.2,38.5,42.5,56.1C853.4,368.3,845.4,383.3,838.9,398z M477,164.6
			c-5.4-1.5-13.3-9.8-20.2-23.1c0,0,4.8-20.2,16.2-20.7c9.5-0.9,9.2,28.1,9.2,30C482.1,150.8,482.4,166.1,477,164.6z M509.2,97.6
			c0,0,7.1-2.4,9.8,17.1c0,0,8.2,76.1-3,80c0,0-6.3,2.8-11.6-12.3C499.1,167.4,487.3,105.2,509.2,97.6z M553.3,113.4
			c11.6-2,18,33.1,19.3,50.7c1.3,17.5-4.6,30.2-11.8,30.5c0,0-6.3,1-9.2-13.7C548.9,166.2,541.8,115.4,553.3,113.4z M687.7,382.4
			c-22.3-10.1-38.1-4.4-40.8,1.8c-2.7,6.2,7.2,12.6,6.2,16.4c-0.9,3.7-19.7-2-19.7-2c-41.1-13-87.3-48.5-84.6-96.2
			c4.2-77.8,51.2-68.6,51.2-68.6c-58.6,17-38.9,89.8-38.9,89.8c15.4,49.8,48.5,55.9,68.3,57.2c19.1,1.7,46.3-13.4,45.9-38.1
			c-0.4-24.7-15-36.4-25.6-36.3c-10.7,0.2-13.6,9.9-13.1,14.8c0.5,5,2.8,7.4,3.4,7.1c0.6-0.3,0.3-2.8,0.3-3.8
			c0.4-6.7,8.2-5.7,8.2-5.7C667.4,322.3,669,339,669,339c1.9,27.2-27,24.2-27,24.2c-31.9-2.4-48.5-37-48.5-37
			c-10.7-19.5-7.7-54.5,6.4-73.1c14.3-18.3,28.1-4.8,28.1-4.8c9.9,9.4,4.4,17.5,4.4,17.5c-7.8,12.7-16.6,5.5-16.6,5.5
			s-0.8-0.9-1.3-0.8c-0.4,0-0.3,0.7-0.3,0.7c0.8,5.7,12.3,6.3,12.3,6.3c13.3,0.1,20.3-11.9,17.3-21.6c9.2,9.1,25.1,4.8,27.7,4
			c2.6-0.7,2-1.9,2-1.9c-0.2-0.5-2-0.1-2-0.1c-14.8,2.6-16-7-16-7c-1.3-7.3,4.6-9.8,4.6-9.8c25.4-11.2,42.6,30.5,26.6,71
			C669.8,352.7,679,372.1,687.7,382.4z M456.4,286.4c1,0.2,5.3,2.3,13.3,0.1c0,0-60.5,85.2,1.6,110.8c0,0-45,3.7-35-63.3
			c4.5-29.4,26.5-70,26.5-70s15.5-25.7-0.3-29.1c-7.5-1.5-7.1-3.3-7.1-3.3s0-5.9,15.4-6.6c0,0,12.5-0.7,15.5,12.1
			c4.1,16.3-3.8,43.7-29.6,48.8C456.6,286,455.6,286.2,456.4,286.4z M435,266.4c-0.4-0.4-1.1,0.3-1.1,0.3
			c-12.7,10.5-18.5-5.7-18.7-9.9c-1.1-21.5,23.4-24,23.4-24c-8,8.5-1.9,12.7-1.9,12.7c3.5,2.8,4.9,5.8,4.9,5.8
			c3.3,5.6-15.4,51.1-15.4,51.1c-19.3,42.2-11.9,66.7,19.3,93.6c-57.6-20.9-33.5-125-33.5-125c12.1,10.8,22-2.8,22-2.8
			S435.4,266.8,435,266.4z M478.8,318.6c5.1,28.4,78.4,53.5,78.4,53.5c-14.2-2.4-33.3,7.9-33.3,7.9c-18.7,9.3-30.7,7.5-30.7,7.5
			C456.5,381.8,478.8,318.6,478.8,318.6z M505,274.2c6.5-6.3,14.9-15.9,20.1-13.6c3.2,1.5,8.9,5.5,5.6,40.9c0,0-2.2,31.8-10.6,32.8
			c0,0-18.1,1.3-22.4-34.7C496.9,289.9,498.5,280.5,505,274.2z"/>
	</g>
</g>
</svg>
