<svg width="16" height="16" viewBox="0 0 16 16" fill="none" xmlns="http://www.w3.org/2000/svg">
<g clip-path="url(#clip0_7_27782)">
<path d="M11.9628 0.5C10.9917 0.5 10.2016 1.29011 10.2016 2.26124V3.3788C9.94232 3.22842 9.64167 3.14185 9.32096 3.14185C8.79529 3.14185 8.32299 3.37361 8.00002 3.74C7.67702 3.37364 7.20476 3.14185 6.67908 3.14185C6.3584 3.14185 6.05776 3.22842 5.79845 3.3788V2.26124C5.79845 1.29011 5.00837 0.5 4.03721 0.5C3.06605 0.5 2.27594 1.29011 2.27594 2.26124V8.01468V8.89531V10.6566C2.27594 13.3272 4.44871 15.5 7.11939 15.5H8.88063C11.5513 15.5 13.7241 13.3272 13.7241 10.6566V2.26124C13.7241 1.29011 12.934 0.5 11.9628 0.5ZM8.44032 4.90314C8.44032 4.41758 8.83536 4.02251 9.32096 4.02251C9.80653 4.02251 10.2016 4.41755 10.2016 4.90314V6.93069C9.94232 6.78031 9.64167 6.69374 9.32096 6.69374H8.44032V4.90314ZM5.79845 4.90314C5.79845 4.41758 6.19349 4.02251 6.67908 4.02251C7.16465 4.02251 7.55972 4.41755 7.55972 4.90314V6.69374H5.79848V4.90314H5.79845ZM3.15657 2.26124C3.15657 1.77567 3.55161 1.38061 4.03721 1.38061C4.52278 1.38061 4.91784 1.77564 4.91784 2.26124V6.72532C4.23247 6.82379 3.61932 7.14852 3.1566 7.62122V2.26124H3.15657ZM12.8435 10.6566C12.8435 12.8417 11.0657 14.6194 8.88066 14.6194H7.11942C4.93431 14.6194 3.1566 12.8416 3.1566 10.6566V9.77592C3.1566 8.56197 4.14423 7.57435 5.35818 7.57435H9.32099C9.80655 7.57435 10.2016 7.96938 10.2016 8.45498C10.2016 8.94058 9.80658 9.33561 9.32099 9.33561H5.35815C5.11498 9.33561 4.91784 9.53275 4.91784 9.77592C4.91784 10.0191 5.11498 10.2162 5.35815 10.2162C7.05766 10.2162 8.44032 11.5989 8.44032 13.2984C8.44032 13.5416 8.63746 13.7387 8.88063 13.7387C9.12379 13.7387 9.32093 13.5416 9.32093 13.2984C9.32093 12.0547 8.74492 10.9433 7.84586 10.2162H9.32093C10.2921 10.2162 11.0822 9.42611 11.0822 8.45498V2.26124C11.0822 1.77567 11.4772 1.38061 11.9628 1.38061C12.4484 1.38061 12.8434 1.77564 12.8434 2.26124V10.6566H12.8435Z" fill="#F1A2FD"/>
</g>
<defs>
<clipPath id="clip0_7_27782">
<rect width="15" height="15" fill="white" transform="translate(0.5 0.5)"/>
</clipPath>
</defs>
</svg>
