<svg width="16" height="15" viewBox="0 0 16 15" fill="none" xmlns="http://www.w3.org/2000/svg">
<path d="M14.5361 5.07469C14.2651 2.22844 11.7076 0 8.71607 0H1.90607C1.64732 0 1.43732 0.21 1.43732 0.46875V14.5312C1.43732 14.79 1.64732 15 1.90607 15H5.18732C5.70388 15 6.12482 14.58 6.12482 14.0625V11.25H8.93732C10.5189 11.25 12.0367 10.5778 13.1017 9.40875C14.1798 8.22094 14.6889 6.68156 14.5361 5.07469ZM12.407 8.77688C11.5201 9.75281 10.2554 10.3125 8.93732 10.3125H5.65607C5.39732 10.3125 5.18732 10.5225 5.18732 10.7812V14.0625H2.37482V0.9375H8.71607C11.2295 0.9375 13.3764 2.79375 13.6014 5.16281C13.7298 6.50437 13.3061 7.78781 12.407 8.77688Z" fill="#C7FFFF"/>
</svg>
