<svg width="357" height="127" viewBox="0 0 357 127" fill="none" xmlns="http://www.w3.org/2000/svg">
<path d="M322.145 96.988C322.159 96.9786 322.159 96.9786 322.145 96.988C322.149 96.9651 322.143 96.9288 322.133 96.9152C322.143 96.9288 322.139 96.9516 322.145 96.988Z" fill="#2C61BF"/>
<path d="M340.507 112.051C340.511 112.028 340.505 111.992 340.509 111.969C340.499 111.955 340.489 111.942 340.479 111.928C340.485 111.965 340.501 112.015 340.507 112.051Z" fill="#2C61BF"/>
<path d="M322.51 91.6944C322.516 91.7307 322.535 91.7578 322.531 91.7806C322.531 91.7806 322.531 91.7806 322.545 91.7713C322.535 91.7578 322.529 91.7214 322.51 91.6944Z" fill="#2C61BF"/>
<path d="M328.378 108.667C328.368 108.653 328.362 108.617 328.342 108.59C328.368 108.653 328.393 108.717 328.409 108.767C328.413 108.744 328.384 108.703 328.378 108.667Z" fill="#2C61BF"/>
<path d="M321.1 79.6022C321.247 79.687 321.362 79.8143 321.466 79.9279C321.634 80.1004 321.817 80.2632 322 80.4261C322.63 80.5322 323.614 82.4031 323.72 82.577C323.816 82.7372 323.723 82.9018 323.599 82.965C323.835 83.317 324.061 83.6552 324.297 84.0071C324.347 84.0756 324.348 84.1359 324.35 84.1962C324.37 84.2236 324.394 84.2277 324.414 84.255C324.637 84.4727 324.869 84.704 325.072 84.8942C324.796 84.2833 324.657 83.9477 324.686 83.9285C324.714 83.9093 325.08 84.4392 325.578 85.4116C325.851 85.902 326.175 86.521 326.522 87.2278C326.56 87.2223 326.584 87.2263 326.604 87.2537C326.649 87.2852 326.65 87.3455 326.633 87.4387C326.653 87.4661 326.669 87.5168 326.689 87.5442C326.703 87.5346 326.713 87.5482 326.727 87.5386C326.762 87.5564 326.787 87.6208 326.79 87.7414C327.055 88.2783 327.35 88.8563 327.65 89.4713C327.761 89.6822 327.859 89.9028 327.97 90.1137C328.082 90.3246 328.203 90.5492 328.325 90.7738C328.568 91.2231 328.811 91.6723 329.074 92.1489C329.614 93.0925 330.185 94.0772 330.761 95.0989C331.361 96.1247 332.01 97.1586 332.641 98.2255C333.271 99.2923 333.922 100.387 334.562 101.467C334.708 101.696 334.829 101.92 334.965 102.135C334.718 101.709 334.495 101.288 334.267 100.889C333.57 99.6428 332.908 98.4746 332.342 97.4666C331.785 96.4722 331.329 95.6149 331.025 95.0232C330.979 94.9314 330.943 94.8533 330.907 94.7753C330.877 94.7342 330.862 94.6835 330.842 94.6561C330.786 94.5506 330.75 94.4726 330.714 94.3945C330.679 94.3164 330.653 94.252 330.627 94.1876C330.586 94.0726 330.584 94.0123 330.598 94.0027C330.613 93.993 330.667 94.0382 330.751 94.1244C330.781 94.1655 330.831 94.234 330.895 94.2928C330.945 94.3613 331.02 94.4338 331.08 94.516C331.224 94.6844 331.388 94.8802 331.597 95.1074C331.805 95.3346 332.019 95.5989 332.264 95.9042C332.388 96.0452 332.504 96.2328 332.624 96.3971C332.73 96.5711 332.85 96.7354 332.965 96.923C333.081 97.1106 333.211 97.2886 333.327 97.4762C333.397 97.5721 333.443 97.6638 333.513 97.7597C333.583 97.8555 333.653 97.9514 333.723 98.0472C334.003 98.4306 334.269 98.8236 334.559 99.2207C334.849 99.6178 335.163 100.019 335.453 100.416C335.513 100.498 335.573 100.58 335.633 100.663C335.747 100.79 335.857 100.94 335.987 101.118C337.04 102.473 338.063 103.786 338.872 104.834C339.322 105.451 339.726 105.975 339.982 106.354C340.238 106.734 340.398 106.953 340.418 106.98C340.488 107.076 340.424 107.221 340.273 107.364C340.735 108.054 341.211 108.735 341.661 109.351C342.231 110.131 342.795 110.875 343.265 111.518C343.335 111.614 343.405 111.71 343.465 111.792C343.449 111.742 343.444 111.705 343.442 111.644C343.436 111.607 343.421 111.004 343.314 110.013C343.193 109.032 342.936 107.632 342.403 106.029C342.044 104.984 341.576 103.848 340.977 102.678C340.928 102.874 340.88 103.071 340.808 103.263C340.707 103.474 340.61 103.662 340.455 103.828C340.389 103.913 340.29 103.98 340.218 104.028C340.133 104.086 340.037 104.13 339.956 104.164C339.865 104.185 339.784 104.219 339.707 104.23C339.63 104.241 339.557 104.229 339.504 104.244C339.48 104.24 339.442 104.246 339.417 104.242C339.393 104.237 339.369 104.233 339.345 104.229C339.296 104.221 339.262 104.203 339.238 104.199C339.179 104.177 339.145 104.16 339.149 104.136C339.153 104.113 339.182 104.094 339.239 104.055C339.267 104.036 339.306 104.031 339.344 104.025C339.359 104.016 339.383 104.02 339.397 104.01C339.411 104 339.44 103.981 339.464 103.985C339.651 103.921 339.864 103.776 339.984 103.532C340.002 103.499 340.021 103.466 340.039 103.433C340.058 103.401 340.066 103.354 340.071 103.331C340.108 103.265 340.11 103.181 340.137 103.102C340.157 102.925 340.177 102.748 340.186 102.557C340.196 102.163 340.132 101.756 340.069 101.349L339.992 100.951C339.972 100.924 339.952 100.897 339.936 100.846C339.463 100.082 338.941 99.3095 338.381 98.5427C338.361 98.5153 338.327 98.4975 338.282 98.4661L338.272 98.4524L338.262 98.4387L338.248 98.4483C338.234 98.4579 338.23 98.4812 338.23 98.4812C338.215 98.4908 338.207 98.5374 338.203 98.5608L338.157 98.6732L338.112 98.7856L338.054 98.968C338.004 99.1038 337.958 99.2162 337.909 99.352C337.863 99.4644 337.828 99.5906 337.782 99.703L337.714 99.8717C337.691 99.9279 337.679 99.9978 337.64 100.003C337.439 99.8734 337.252 99.7339 337.061 99.6176C337.016 99.5861 336.972 99.5547 336.928 99.5232C336.894 99.5054 336.849 99.474 336.801 99.4658C336.767 99.448 336.722 99.4166 336.688 99.3988C336.654 99.381 336.62 99.3633 336.585 99.3455C336.38 99.2389 336.16 99.1418 335.993 99.0297C335.826 98.9175 335.708 98.8135 335.638 98.7176C335.568 98.6218 335.552 98.5711 335.57 98.5382C335.617 98.486 335.827 98.5694 336.172 98.6635C336.352 98.7057 336.546 98.7384 336.784 98.8025C336.988 98.8488 337.085 98.8651 337.182 98.8814C337.192 98.8951 337.196 98.8718 337.201 98.8485L337.199 98.7882L337.206 98.6813L337.209 98.5977L337.213 98.5744C337.213 98.5744 337.213 98.5744 337.207 98.5374C337.216 98.4908 337.22 98.4675 337.243 98.4113L337.291 98.011C337.302 97.8808 337.327 97.7409 337.343 97.5874C337.354 97.4572 337.365 97.327 337.377 97.1967C336.898 96.5998 336.429 96.0166 335.922 95.4388C334.415 93.6961 332.823 92.011 331.32 90.4492C329.832 88.8777 328.424 87.4158 327.229 86.1578C326.633 85.5172 326.106 84.9121 325.668 84.3699C325.618 84.3014 325.568 84.233 325.528 84.1782C324.895 83.6034 324.499 83.2366 324.489 83.2229C324.405 83.1367 324.435 82.9735 324.556 82.7897C324.506 82.7212 324.47 82.6432 324.43 82.5884C324.4 82.5473 324.374 82.4829 324.344 82.4419C324.329 82.3912 324.298 82.3501 324.283 82.2994C324.191 82.1159 324.13 81.9734 324.064 81.8542C323.947 81.6063 323.895 81.4776 323.924 81.4583C323.938 81.4487 324.042 81.5623 324.188 81.791C324.268 81.9006 324.354 82.0471 324.464 82.1977C324.494 82.2388 324.524 82.2799 324.539 82.3306C324.569 82.3717 324.599 82.4127 324.639 82.4675C324.669 82.5086 324.7 82.5497 324.73 82.5907C324.744 82.5811 324.744 82.5811 324.758 82.5715C324.909 82.4288 325.09 82.3271 325.234 82.2913L325.224 82.2776L321.488 78.7067L321.1 79.6022Z" fill="#2C61BF"/>
<path d="M329.04 85.9581C329.22 86.0003 329.45 86.1111 329.714 86.2395C329.748 86.2573 329.782 86.2751 329.806 86.2792C329.281 85.7344 328.802 85.1374 328.191 84.6503C327.817 84.3712 327.443 84.0921 327.183 83.7361L325.958 82.8455C326.275 83.163 326.721 83.5983 327.236 84.1294C327.772 84.6879 328.396 85.3093 329.04 85.9581Z" fill="#2C61BF"/>
<path d="M320.121 99.8661C320.112 100.261 320.103 100.656 320.107 101.041C320.127 101.068 320.143 101.119 320.135 101.165C320.111 102.531 320.189 103.889 320.165 105.254C320.147 106.656 320.018 108.051 320.101 109.447C320.104 109.567 320.053 109.643 319.972 109.677C321.188 111.983 322.657 114.14 324.198 116.249C325.851 116.707 327.496 117.212 329.073 117.886C330.591 118.537 332.393 119.897 334.138 119.783C334.683 119.742 335.226 119.641 335.763 119.504C335.782 119.471 335.815 119.428 335.857 119.399C336.888 118.54 338.194 118.027 339.417 117.488C340.205 117.14 340.993 116.793 341.781 116.445C342.216 116.254 342.735 116.149 343.209 116.013C343.252 115.984 343.295 115.955 343.352 115.916C343.892 115.491 344.236 114.972 344.613 114.411C345.261 113.463 345.904 112.539 346.088 111.393C346.274 110.163 346.167 108.968 346.179 107.733C346.183 107.097 346.29 106.371 346.144 105.733L346.02 105.797L345.689 104.732L345.088 103.502L345.275 103.438C344.577 102.395 344.142 101.217 343.554 100.122C343.246 99.5532 342.924 98.8506 342.504 98.2755C342.382 98.2551 342.27 98.1881 342.208 98.0456C342.117 97.8621 341.962 97.68 341.765 97.5267C341.721 97.4953 341.701 97.4679 341.657 97.4364L341.647 97.4227C341.229 97.1122 340.691 96.8415 340.375 96.5843C340.287 96.5213 340.202 96.4351 340.128 96.3625C339.98 96.4217 339.81 96.3931 339.672 96.2617C338.867 95.3938 337.904 94.7153 337.024 93.9188C336.807 93.7382 336.595 93.5342 336.406 93.3344C336.388 93.3673 336.369 93.4002 336.341 93.4194C336.308 93.462 336.289 93.4949 336.257 93.5374C336.277 93.5648 336.297 93.5922 336.307 93.6059C336.377 93.7017 336.457 93.8113 336.537 93.9208C336.617 94.0303 336.701 94.1166 336.785 94.2028C336.829 94.2343 336.869 94.2891 336.914 94.3205C336.934 94.3479 336.968 94.3657 336.988 94.3931L337.086 94.4697C337.348 94.6818 337.619 94.9076 337.886 95.1567C338.025 95.2881 338.153 95.4057 338.292 95.5371C338.42 95.6548 338.544 95.7958 338.673 95.9135C338.916 96.1586 339.188 96.4447 339.404 96.7692C339.388 96.7185 339.397 96.6719 339.421 96.676C339.474 96.6608 339.604 96.8388 339.81 97.1497C339.87 97.2318 339.94 97.3277 340.02 97.4372C340.24 97.5342 340.358 97.6382 340.335 97.6945C340.335 97.6945 340.317 97.7274 340.28 97.7932C340.42 97.9849 340.584 98.1807 340.768 98.4039C341.083 98.805 341.466 99.2417 341.864 99.7291C341.927 99.7277 341.985 99.7495 342.058 99.7618C342.432 99.8367 342.71 99.9555 342.697 100.025C342.697 100.025 342.67 100.105 342.639 100.208C342.612 100.287 342.581 100.39 342.531 100.526C342.97 101.068 343.396 101.68 343.764 102.331C343.977 102.739 344.201 103.161 344.337 103.58C344.41 103.796 344.497 104.003 344.56 104.206C344.623 104.409 344.682 104.635 344.745 104.838C344.944 105.664 345.075 106.454 345.165 107.13C345.254 107.806 345.302 108.366 345.345 108.746C345.374 109.135 345.404 109.38 345.404 109.38C345.418 109.514 345.117 109.656 344.736 109.688C344.698 109.694 344.673 109.69 344.635 109.695C344.641 109.732 344.646 109.769 344.662 109.82C344.809 110.865 344.83 111.505 344.836 111.542C344.851 111.941 344.544 112.25 344.182 112.249C344.032 112.248 343.891 112.2 343.768 112.119C344.029 112.475 344.244 112.8 344.41 113.056C344.676 113.449 344.832 113.691 344.842 113.705C344.902 113.787 344.852 113.923 344.74 114.06C344.72 114.237 344.56 114.426 344.312 114.553C344.064 114.679 343.809 114.708 343.634 114.643C343.74 114.817 343.81 114.913 343.82 114.926C343.955 115.141 343.809 115.465 343.485 115.663C343.162 115.861 342.804 115.836 342.668 115.621C342.658 115.608 342.543 115.42 342.341 115.086C342.082 115.547 341.665 116.053 341.158 116.436C340.618 116.862 340.027 117.158 339.548 117.318C339.083 117.468 338.751 117.508 338.715 117.43C338.679 117.352 338.911 117.175 339.248 116.907C339.024 117.038 338.804 117.145 338.585 117.252C337.864 117.575 337.17 117.819 336.575 117.995C335.981 118.171 335.482 118.303 335.127 118.4C335.06 118.425 335.007 118.44 334.945 118.441C335.005 118.523 334.998 118.63 334.952 118.743C334.902 118.878 334.814 119.02 334.668 119.139C334.653 119.149 334.625 119.168 334.611 119.178C334.868 119.413 335.006 119.544 334.978 119.564C334.949 119.583 334.768 119.48 334.444 119.27C334.363 119.304 334.281 119.338 334.194 119.336C334.03 119.344 333.903 119.287 333.809 119.187C333.799 119.173 333.659 118.982 333.443 118.657C333.382 118.719 333.297 118.776 333.201 118.82C332.858 118.991 332.52 118.994 332.414 118.82C332.394 118.793 332.237 118.49 331.968 117.976L331.954 117.986C331.584 118.092 331.281 118.113 331.245 118.035C331.235 118.021 331.208 117.897 331.135 117.68C331.109 117.616 331.087 117.528 331.076 117.454C331.009 117.479 330.928 117.513 330.851 117.524C330.486 117.607 330.152 117.587 330.125 117.462C330.115 117.448 330.023 117.061 329.862 116.433C329.824 116.439 329.785 116.444 329.747 116.45C329.732 116.459 329.742 116.473 329.728 116.483C329.533 116.798 329.253 116.967 329.071 116.865C329.047 116.861 328.777 116.695 328.349 116.371C327.995 116.119 327.541 115.73 327.037 115.273C326.916 115.253 326.847 115.217 326.842 115.18C326.842 115.18 326.836 115.143 326.824 115.069C326.804 115.042 326.76 115.011 326.74 114.983C326.581 114.824 326.403 114.638 326.234 114.466C325.911 114.459 325.658 114.405 325.661 114.321C325.651 114.307 325.646 114.127 325.629 113.811C325.609 113.784 325.599 113.77 325.579 113.743C325.516 113.744 325.439 113.755 325.352 113.753C324.966 113.748 324.669 113.662 324.662 113.565C324.662 113.565 324.669 113.458 324.67 113.314C324.52 113.313 324.399 113.292 324.397 113.232C324.387 113.218 324.351 112.936 324.272 112.478C324.219 112.493 324.191 112.513 324.138 112.528C323.779 112.647 323.44 112.59 323.382 112.425C323.372 112.411 323.288 112.12 323.15 111.641C323.14 111.627 323.144 111.604 323.134 111.59C323.12 111.6 323.096 111.596 323.082 111.605C322.717 111.688 322.383 111.668 322.356 111.543C322.346 111.53 322.297 111.317 322.211 110.966C322.131 110.653 322.023 110.214 321.918 109.692C321.774 109.524 321.664 109.373 321.584 109.264C321.494 109.14 321.434 109.058 321.434 109.058C321.414 109.031 321.522 108.917 321.707 108.792C321.569 108.108 321.41 107.337 321.279 106.546C321.237 106.431 321.2 106.293 321.159 106.178C320.987 105.68 320.835 105.21 320.723 104.795C320.649 104.519 320.594 104.269 320.535 104.043C320.491 103.807 320.452 103.609 320.433 103.437C320.381 103.104 320.371 102.887 320.361 102.873C320.354 102.776 320.492 102.703 320.703 102.642C320.716 102.572 320.714 102.512 320.727 102.442C320.701 102.173 320.685 101.919 320.655 101.673C320.468 100.981 320.273 100.132 320.106 99.2631C320.137 99.5084 320.141 99.6893 320.121 99.8661Z" fill="#2C61BF"/>
<path d="M323.887 96.3443L323.897 96.358C324.206 96.7221 324.512 97.1699 324.795 97.6739C324.915 97.8382 325.035 98.0025 325.14 98.1765C325.306 98.4325 325.496 98.6927 325.672 98.9625C325.848 99.2322 326.019 99.5253 326.201 99.8321C326.397 100.129 326.55 100.455 326.731 100.762C326.923 101.082 327.076 101.408 327.263 101.752C327.263 101.752 327.263 101.752 327.273 101.766C327.766 102.557 328.511 103.547 329.443 104.329C329.911 104.708 330.427 105.035 330.949 105.255C331.076 105.312 331.217 105.36 331.334 105.404C331.393 105.425 331.475 105.451 331.534 105.473C331.607 105.485 331.665 105.507 331.738 105.52C332 105.588 332.229 105.638 332.461 105.665C332.708 105.683 332.944 105.687 333.143 105.696C333.431 105.624 333.686 105.595 333.893 105.558C334.302 105.507 334.543 105.487 334.559 105.538C334.564 105.575 334.398 105.667 334.077 105.781C334.044 105.823 333.92 105.887 333.733 105.951C333.691 105.98 333.648 106.009 333.601 106.061C333.369 106.238 333.057 106.51 332.796 106.911C332.741 107.009 332.671 107.118 332.612 107.24C332.589 107.296 332.552 107.362 332.529 107.418C332.506 107.474 332.484 107.531 332.447 107.596C332.351 107.845 332.301 108.124 332.274 108.408C332.216 108.999 332.276 109.633 332.398 110.266C332.652 111.546 333.137 112.793 333.603 113.664C333.836 114.099 334.048 114.447 334.204 114.69C334.224 114.717 334.234 114.731 334.254 114.758C334.599 114.648 335.015 114.49 335.439 114.285C336.084 113.973 336.773 113.549 337.24 112.907C337.473 112.586 337.643 112.206 337.743 111.79C337.844 111.375 337.876 110.924 337.835 110.461C337.805 110.011 337.716 109.54 337.612 109.078C337.564 108.866 337.505 108.64 337.442 108.437C337.432 108.423 337.422 108.409 337.412 108.396C337.105 107.888 336.783 107.389 336.456 106.854C336.29 106.598 336.128 106.318 335.991 106.043C335.839 105.777 335.688 105.512 335.526 105.232C334.924 104.146 334.298 103.056 333.676 101.942C332.428 99.7389 331.204 97.5394 330.042 95.4823C329.494 94.4414 328.953 93.4374 328.441 92.4746C328.192 91.9884 327.953 91.5158 327.724 91.057C327.617 90.8228 327.495 90.5982 327.398 90.3776C327.301 90.1571 327.204 89.9366 327.106 89.716C326.927 89.3256 322.107 80.8043 321.948 80.4413C321.883 80.7306 320.913 84.0623 320.783 84.4367C320.594 84.9934 322.628 91.5928 322.307 92.2593C321.986 92.9258 323.43 95.6308 323.403 95.7103C323.423 95.7377 323.443 95.7651 323.453 95.7788C323.621 95.9513 323.737 96.1389 323.887 96.3443Z" fill="#2C61BF"/>
<path d="M333.678 90.6242C333.833 90.7218 333.987 90.8195 334.127 90.9265C333.975 90.7467 333.823 90.567 333.661 90.3737C333.606 90.4111 333.56 90.462 333.491 90.5088C333.558 90.5442 333.611 90.5888 333.678 90.6242Z" fill="#2C61BF"/>
<path d="M322.123 108.634C321.797 107.954 321.534 107.274 321.304 106.611C321.445 107.415 321.58 108.182 321.733 108.856C321.804 108.808 321.889 108.751 321.985 108.707C322.028 108.678 322.07 108.649 322.123 108.634Z" fill="#3894CD"/>
<path d="M321.037 102.662C321.06 102.667 321.06 102.667 321.074 102.657C321.059 102.607 321.047 102.535 321.031 102.485L321.027 102.508C321.029 102.567 321.035 102.603 321.037 102.662Z" fill="#3894CD"/>
<path d="M324.224 112.122C323.909 111.865 323.587 111.57 323.27 111.253C322.785 110.763 322.328 110.254 322.003 109.839C321.983 109.811 321.963 109.784 321.943 109.757C322.048 110.279 322.156 110.717 322.236 111.031C322.322 111.382 322.371 111.594 322.381 111.608C322.408 111.732 322.738 111.776 323.107 111.67C323.121 111.66 323.145 111.664 323.16 111.655C323.17 111.668 323.165 111.692 323.175 111.705C323.313 112.185 323.402 112.452 323.408 112.489C323.465 112.655 323.804 112.712 324.164 112.592C324.216 112.577 324.245 112.558 324.297 112.543C324.377 113 324.413 113.283 324.423 113.296C324.438 113.347 324.545 113.377 324.695 113.378C324.69 113.545 324.687 113.629 324.687 113.629C324.694 113.726 325.005 113.803 325.377 113.817C325.464 113.82 325.527 113.818 325.604 113.807C325.346 113.512 325.091 113.193 324.827 112.86C324.604 112.642 324.4 112.392 324.224 112.122Z" fill="#3894CD"/>
<path d="M331.707 117.56C331.383 117.349 331.073 117.129 330.729 116.891C330.453 116.689 330.158 116.459 329.862 116.229C329.831 116.332 329.8 116.435 329.73 116.543C329.769 116.537 329.807 116.532 329.846 116.526C329.996 117.14 330.112 117.532 330.108 117.555C330.15 117.67 330.469 117.7 330.834 117.617C330.925 117.597 330.992 117.572 331.059 117.547C331.081 117.635 331.107 117.699 331.118 117.773C331.191 117.99 331.228 118.128 331.228 118.128C331.264 118.206 331.568 118.185 331.937 118.079L331.951 118.07C331.916 117.991 331.866 117.923 331.83 117.845C331.808 117.757 331.762 117.665 331.707 117.56Z" fill="#3894CD"/>
<path d="M326.841 115.266C326.846 115.302 326.914 115.338 327.032 115.358C326.969 115.3 326.896 115.229 326.823 115.157C326.835 115.23 326.841 115.266 326.841 115.266Z" fill="#3894CD"/>
<path d="M325.647 114.419C325.655 114.515 325.902 114.57 326.209 114.565C326.013 114.354 325.818 114.143 325.612 113.918C325.646 114.219 325.651 114.396 325.647 114.419Z" fill="#3894CD"/>
<path d="M344.395 114.374C344.061 114.559 343.729 114.599 343.643 114.452C343.633 114.439 343.487 114.21 343.236 113.807C343.009 113.409 342.633 112.865 342.201 112.216C341.89 111.731 341.524 111.201 341.118 110.617C341.325 110.988 341.527 111.322 341.728 111.656C342.026 112.15 342.293 112.604 342.53 113.016C342.656 113.217 342.758 113.414 342.863 113.588C342.969 113.762 343.079 113.913 343.165 114.059C343.341 114.329 343.487 114.558 343.582 114.718C343.744 114.793 344.013 114.755 344.261 114.628C344.509 114.502 344.668 114.312 344.688 114.136C344.637 114.211 344.533 114.302 344.395 114.374Z" fill="#3894CD"/>
<path d="M327.158 89.7008C327.256 89.9214 327.353 90.1419 327.45 90.3624C327.548 90.583 327.669 90.8076 327.776 91.0418C328.005 91.5007 328.23 91.9828 328.493 92.4594C329.005 93.4223 329.547 94.4262 330.094 95.4671C331.257 97.5242 332.48 99.7237 333.729 101.927C334.34 103.027 334.977 104.131 335.579 105.217C335.73 105.483 335.892 105.762 336.043 106.028C336.195 106.293 336.356 106.573 336.508 106.839C336.835 107.374 337.157 107.872 337.464 108.381C337.474 108.394 337.484 108.408 337.494 108.422C337.543 108.634 337.606 108.837 337.665 109.063C337.768 109.525 337.847 109.982 337.888 110.445C337.918 110.895 337.896 111.36 337.795 111.775C337.695 112.19 337.526 112.57 337.292 112.891C336.835 113.547 336.122 113.967 335.492 114.27C335.067 114.475 334.651 114.633 334.306 114.743C334.286 114.715 334.276 114.702 334.256 114.674C334.086 114.442 333.874 114.094 333.656 113.649C333.204 112.768 332.704 111.531 332.45 110.251C332.328 109.618 332.273 108.96 332.326 108.393C332.353 108.109 332.404 107.829 332.499 107.581C332.522 107.525 332.559 107.459 332.581 107.403C332.604 107.347 332.641 107.281 332.664 107.225C332.723 107.103 332.779 107.004 332.849 106.895C333.109 106.495 333.421 106.223 333.653 106.046C333.71 106.008 333.743 105.965 333.786 105.936C333.972 105.872 334.096 105.808 334.129 105.766C334.45 105.652 334.631 105.55 334.611 105.523C334.595 105.472 334.354 105.491 333.945 105.543C333.738 105.58 333.483 105.609 333.195 105.681C332.982 105.681 332.76 105.668 332.513 105.65C332.281 105.623 332.052 105.573 331.79 105.504C331.717 105.492 331.659 105.47 331.586 105.458C331.528 105.436 331.455 105.424 331.386 105.388C331.259 105.331 331.114 105.307 331.001 105.24C330.479 105.02 329.949 104.702 329.495 104.314C328.563 103.532 327.819 102.542 327.325 101.751C327.325 101.751 327.325 101.751 327.315 101.737C327.152 101.397 326.975 101.067 326.784 100.747C326.592 100.426 326.449 100.114 326.253 99.8169C326.072 99.5102 325.886 99.2267 325.724 98.9473C325.548 98.6775 325.358 98.4174 325.193 98.1613C325.073 97.997 324.967 97.8231 324.847 97.6588C324.564 97.1548 324.248 96.6933 323.949 96.3428L323.939 96.3291C323.789 96.1237 323.674 95.9361 323.568 95.7622C323.548 95.7348 320.976 84.0609 320.956 84.0335C320.892 84.1788 320.822 91.4211 320.601 91.2638C320.512 91.2008 321.344 96.0365 321.255 95.9736C321.313 96.5478 321.372 97.1823 321.472 97.8715C321.529 98.2415 321.573 98.6211 321.626 99.0144C321.679 99.4077 321.757 99.805 321.83 100.226C321.869 100.424 321.903 100.646 321.928 100.855C321.963 101.077 322.026 101.279 322.06 101.501C322.158 101.926 322.237 102.384 322.344 102.822C322.462 103.274 322.584 103.703 322.711 104.169C322.77 104.395 322.853 104.625 322.926 104.842C323.009 105.072 323.082 105.288 323.165 105.519C323.307 105.975 323.502 106.416 323.682 106.866C323.779 107.087 323.848 107.327 323.96 107.538L324.276 108.203C325.131 109.957 326.234 111.583 327.443 112.976C328.651 114.368 329.961 115.549 331.114 116.488C331.168 116.533 331.223 116.578 331.277 116.623C331.165 116.412 331.068 116.192 330.937 115.953C330.819 115.706 330.706 115.434 330.569 115.159C330.072 114.043 329.529 112.774 329.199 111.362C329.177 111.274 329.156 111.186 329.134 111.098L329.084 110.826C329.055 110.641 329.012 110.465 328.983 110.28C328.911 109.92 328.86 109.587 328.816 109.207C328.802 109.013 328.787 108.818 328.801 108.604C328.815 108.391 328.868 108.171 328.954 107.97C328.959 107.946 328.973 107.937 328.991 107.904C328.857 107.953 328.738 107.993 328.618 108.033C328.608 108.019 328.608 108.019 328.598 108.006L328.596 107.945L328.579 107.834L328.545 107.612C328.521 107.465 328.498 107.317 328.475 107.169L328.441 106.947L328.418 106.799C328.396 106.711 328.389 106.614 328.368 106.526C328.346 106.438 328.339 106.341 328.317 106.253C328.296 106.165 328.274 106.078 328.253 105.99C328.21 105.815 328.177 105.653 328.134 105.478C327.953 104.823 327.798 104.232 327.651 103.739C327.55 103.398 327.47 103.084 327.415 102.835C327.4 102.784 327.38 102.757 327.364 102.706C327.297 102.527 327.215 102.357 327.168 102.205C327.025 101.892 326.912 101.621 326.814 101.401C326.606 100.969 326.488 100.721 326.531 100.692C326.56 100.673 326.734 100.883 327.034 101.293C327.17 101.508 327.325 101.751 327.507 102.058C327.593 102.204 327.674 102.374 327.756 102.544C327.847 102.727 327.953 102.901 328.03 103.094C328.402 103.866 328.793 104.808 329.177 105.857C329.27 106.101 329.394 106.446 329.42 106.511C329.424 106.692 329.62 106.58 329.745 106.577C330.341 106.462 330.971 106.363 331.626 106.269L333.425 105.996L331.911 107.038C331.554 107.278 331.227 107.499 330.909 107.734C330.762 107.854 330.616 107.973 330.517 108.101C330.456 108.162 330.466 108.176 330.448 108.209L330.443 108.232L330.435 108.279C330.416 108.312 330.422 108.349 330.414 108.395C330.403 108.73 330.446 109.109 330.528 109.483C330.61 109.858 330.716 110.236 330.836 110.604C331.332 112.069 331.99 113.464 332.589 114.634C333.178 115.79 333.743 116.738 334.16 117.396C334.174 117.387 334.188 117.377 334.203 117.368C334.217 117.358 334.438 117.311 334.789 117.238C335.139 117.165 335.634 117.056 336.21 116.913C336.786 116.769 337.443 116.592 338.113 116.344C338.773 116.083 339.445 115.752 339.969 115.275C340.224 115.042 340.459 114.781 340.626 114.485C340.663 114.419 340.704 114.33 340.741 114.264C340.768 114.185 340.805 114.119 340.832 114.039C340.859 113.96 340.886 113.88 340.913 113.801C340.926 113.731 340.953 113.651 340.965 113.581C341.006 113.288 341.167 112.955 341.107 112.668C341.031 112.536 340.793 112.123 340.708 111.977C340.672 111.899 340.71 111.893 340.675 111.815C340.67 111.838 340.486 111.615 340.48 111.578C340.247 111.143 340.284 111.077 340.021 110.6C339.702 110.018 339.438 109.481 339.079 108.844C338.357 107.594 337.639 106.32 336.872 104.978C336.361 104.076 335.752 103.097 335.262 102.221C335.126 102.006 334.935 101.686 334.803 101.448C334.163 100.367 333.542 99.3139 332.898 98.2566C332.267 97.1898 331.62 96.012 331.005 94.9958C330.429 93.9741 329.62 93.1295 329.09 92.1996C328.813 91.7326 328.584 91.2738 328.341 90.8245C328.219 90.5999 328.108 90.389 327.986 90.1644C327.875 89.9535 327.777 89.7329 327.666 89.522C327.365 88.907 321.993 80.533 321.728 79.9961C321.721 80.103 325.912 87.5575 325.882 87.7207C325.835 87.7728 326.97 89.2968 327.158 89.7008ZM322.145 96.988C322.149 96.9647 322.143 96.9277 322.133 96.914C322.143 96.9277 322.163 96.9551 322.145 96.988C322.159 96.9784 322.159 96.9784 322.145 96.988ZM328.378 108.665C328.384 108.702 328.404 108.73 328.419 108.78C328.394 108.716 328.368 108.652 328.352 108.601C328.362 108.615 328.368 108.652 328.378 108.665Z" fill="#3894CD"/>
<path d="M326.672 87.5557C326.653 87.5286 326.637 87.4787 326.617 87.4517C326.609 87.4975 326.587 87.5526 326.565 87.6076C326.607 87.5796 326.635 87.5609 326.672 87.5557Z" fill="#3894CD"/>
<path d="M325.505 85.3993C325.565 85.4815 325.619 85.5267 325.619 85.5267C325.629 85.5404 325.568 85.6021 325.454 85.679C325.464 85.6927 325.474 85.7064 325.484 85.7201C325.693 85.9473 325.843 86.1527 325.864 86.2404C325.921 86.202 325.95 86.1827 325.96 86.1964C325.96 86.1964 325.98 86.2238 325.995 86.2745C326.025 86.3156 326.051 86.38 326.087 86.458C326.133 86.5498 326.184 86.6786 326.25 86.7977C326.25 86.7977 326.274 86.8018 326.284 86.8155C326.318 86.8333 326.324 86.8703 326.312 86.9402C326.322 86.9539 326.327 86.9909 326.337 87.0046C326.369 87.1059 326.39 87.1936 326.412 87.2813C326.465 87.2662 326.493 87.2469 326.532 87.2414C326.185 86.5347 325.861 85.9156 325.588 85.4253C325.066 84.4487 324.724 83.9229 324.696 83.9421C324.667 83.9613 324.806 84.297 325.082 84.9079C325.146 84.9667 325.196 85.0352 325.261 85.094C325.341 85.2036 325.431 85.3268 325.505 85.3993Z" fill="#3894CD"/>
<path d="M338.959 108.68C339.307 109.303 339.678 110.014 339.987 110.582C340.25 111.059 340.397 111.348 340.62 111.77C340.63 111.784 340.727 112.004 340.737 112.018C340.783 112.11 340.855 112.266 340.905 112.334C340.99 112.481 340.94 112.412 341.002 112.555C341.072 112.855 340.952 113.243 340.921 113.55C340.908 113.62 340.881 113.699 340.868 113.769C340.856 113.839 340.814 113.928 340.787 114.008C340.76 114.087 340.723 114.153 340.696 114.233C340.669 114.312 340.618 114.388 340.581 114.454C340.415 114.75 340.194 115.001 339.925 115.244C339.401 115.72 338.728 116.051 338.068 116.313C337.408 116.574 336.741 116.738 336.165 116.881C335.589 117.025 335.095 117.133 334.744 117.207C334.379 117.289 334.182 117.34 334.158 117.336C334.144 117.346 334.13 117.355 334.115 117.365C333.688 116.693 333.123 115.745 332.544 114.603C331.935 113.419 331.287 112.037 330.792 110.573C330.671 110.204 330.565 109.826 330.483 109.452C330.402 109.078 330.344 108.708 330.369 108.364C330.363 108.327 330.372 108.28 330.39 108.247L330.399 108.201L330.403 108.177C330.422 108.145 330.412 108.131 330.473 108.069C330.567 107.965 330.718 107.822 330.864 107.703C331.172 107.454 331.51 107.247 331.866 107.006L333.38 105.964L331.581 106.238C330.937 106.346 330.297 106.43 329.701 106.546C329.575 106.549 329.39 106.674 329.375 106.479C329.35 106.415 329.225 106.07 329.132 105.826C328.748 104.776 328.368 103.848 327.986 103.063C327.899 102.856 327.793 102.682 327.711 102.512C327.63 102.342 327.534 102.182 327.462 102.026C327.281 101.719 327.139 101.467 326.989 101.262C326.699 100.865 326.515 100.642 326.486 100.661C326.458 100.68 326.561 100.938 326.77 101.369C326.867 101.59 326.98 101.861 327.123 102.173C327.195 102.329 327.252 102.495 327.319 102.675C327.335 102.725 327.355 102.753 327.371 102.803C327.277 102.355 327.237 102.096 327.266 102.077C327.333 102.052 327.574 102.645 327.979 103.578C328.18 104.056 328.402 104.622 328.645 105.276C328.702 105.441 328.759 105.607 328.803 105.782C328.824 105.87 328.86 105.948 328.891 106.05C328.913 106.137 328.944 106.239 328.966 106.326C328.987 106.414 329.019 106.515 329.04 106.603L329.078 106.741L329.103 106.806C329.109 106.843 329.125 106.894 329.131 106.931L329.156 106.995L329.162 107.032L329.172 107.046L329.186 107.036C329.268 107.002 329.349 106.967 329.416 106.942L329.469 106.927L329.598 106.901C329.69 106.88 329.781 106.86 329.858 106.849L331.121 106.569L330.227 107.499C330.01 107.727 329.828 107.973 329.747 108.211C329.666 108.45 329.668 108.714 329.72 109.047C329.762 109.367 329.833 109.727 329.924 110.054C329.957 110.216 330 110.391 330.047 110.544L330.102 110.793C330.123 110.881 330.159 110.959 330.17 111.033C330.546 112.333 331.137 113.549 331.646 114.596C331.773 114.857 331.915 115.109 332.032 115.357C332.163 115.595 332.285 115.82 332.407 116.045C332.64 116.48 332.857 116.865 333.048 117.186C333.407 117.822 333.635 118.221 333.645 118.235C333.675 118.276 333.676 118.336 333.663 118.406C333.772 118.496 333.87 118.573 333.969 118.649C334.24 118.875 334.443 119.065 334.606 119.201C334.62 119.191 334.634 119.182 334.663 119.163C334.809 119.043 334.898 118.902 334.947 118.766C334.993 118.654 334.99 118.533 334.94 118.465C334.993 118.449 335.06 118.425 335.122 118.423C335.477 118.327 335.962 118.204 336.571 118.018C337.165 117.842 337.859 117.599 338.58 117.276C338.8 117.168 339.019 117.061 339.243 116.931C338.907 117.198 338.674 117.375 338.71 117.454C338.746 117.532 339.088 117.505 339.543 117.341C340.008 117.191 340.623 116.899 341.153 116.459C341.65 116.063 342.077 115.57 342.336 115.109C342.528 115.43 342.643 115.617 342.663 115.645C342.799 115.86 343.171 115.874 343.481 115.686C343.804 115.488 343.95 115.165 343.815 114.95C343.805 114.936 343.735 114.84 343.629 114.666C343.533 114.506 343.397 114.291 343.212 114.007C343.126 113.861 343.016 113.71 342.91 113.536C342.804 113.362 342.688 113.175 342.577 112.964C342.34 112.552 342.072 112.098 341.775 111.604C341.583 111.283 341.386 110.926 341.165 110.564C341.029 110.349 340.879 110.144 340.733 109.915C340.261 109.212 339.813 108.451 339.349 107.701C339.315 107.683 339.281 107.665 339.261 107.638C339.251 107.624 339.105 107.396 338.859 107.03C338.628 106.655 338.262 106.125 337.826 105.499C336.969 104.238 335.793 102.599 334.649 100.917C334.364 100.497 334.092 100.067 333.816 99.6603C333.555 99.244 333.307 98.818 333.056 98.4154C333 98.31 332.93 98.2141 332.874 98.1086C332.819 98.0032 332.763 97.8977 332.717 97.806C332.615 97.6087 332.504 97.3978 332.398 97.2239C332.297 97.0267 332.191 96.8527 332.099 96.6692C332.018 96.4994 331.922 96.3391 331.826 96.1789C331.635 95.8584 331.435 95.5846 331.269 95.3285C331.133 95.1135 331.017 94.9259 330.922 94.7656C330.957 94.8437 330.993 94.9218 331.039 95.0136C331.343 95.6053 331.8 96.4626 332.356 97.4569C332.922 98.4649 333.584 99.6332 334.281 100.879C334.519 101.292 334.756 101.704 334.979 102.126C335.47 103.001 335.98 103.903 336.49 104.806C337.254 106.171 338.251 107.42 338.959 108.68Z" fill="#2C3B8C"/>
<path d="M333.483 118.712C333.469 118.721 333.455 118.731 333.45 118.754C333.666 119.079 333.796 119.257 333.816 119.284C333.896 119.394 334.037 119.442 334.201 119.433C334.278 119.422 334.37 119.401 334.451 119.367C334.274 119.241 334.048 119.107 333.793 118.932C333.694 118.855 333.582 118.788 333.483 118.712Z" fill="#2C3B8C"/>
<path d="M320.442 92.4742C320.436 92.7853 320.405 93.0924 320.398 93.4035C320.408 93.4172 320.394 93.4268 320.404 93.4405C320.398 93.6077 320.407 93.7653 320.402 93.9325C320.438 94.9714 320.295 96.0283 320.258 97.0549C320.255 97.1385 320.204 97.214 320.157 97.2661C320.178 97.7019 320.295 98.1541 320.219 98.5736C320.253 98.7956 320.278 99.0039 320.312 99.2258C320.376 99.6328 320.463 100.044 320.537 100.465C320.585 100.677 320.62 100.899 320.669 101.111C320.718 101.324 320.776 101.55 320.825 101.762C320.841 101.813 320.847 101.85 320.862 101.9C320.858 101.924 320.844 101.933 320.84 101.957C320.817 102.013 320.79 102.092 320.773 102.186C320.756 102.279 320.749 102.386 320.728 102.502C320.715 102.572 320.717 102.633 320.704 102.702C320.483 102.749 320.355 102.836 320.362 102.933C320.372 102.947 320.372 103.151 320.434 103.498C320.467 103.659 320.492 103.868 320.536 104.103C320.595 104.33 320.649 104.579 320.724 104.856C320.836 105.271 320.988 105.741 321.16 106.238C321.201 106.353 321.228 106.478 321.28 106.607C321.499 107.256 321.772 107.95 322.098 108.63C322.056 108.659 322.003 108.674 321.96 108.703C321.875 108.76 321.779 108.804 321.708 108.852C321.523 108.977 321.405 109.078 321.435 109.119C321.435 109.119 321.495 109.201 321.585 109.324C321.665 109.434 321.775 109.584 321.919 109.753C321.939 109.78 321.959 109.807 321.979 109.835C322.303 110.25 322.76 110.759 323.246 111.249C323.563 111.566 323.884 111.861 324.2 112.118C324.39 112.378 324.58 112.638 324.784 112.889C325.048 113.221 325.303 113.54 325.561 113.836C325.581 113.864 325.591 113.877 325.611 113.905C325.82 114.132 326.004 114.355 326.217 114.559C326.395 114.745 326.564 114.918 326.722 115.076C326.742 115.104 326.787 115.135 326.807 115.163C326.881 115.235 326.945 115.294 327.019 115.367C327.509 115.833 327.967 116.199 328.331 116.464C328.75 116.775 329.029 116.954 329.054 116.958C329.235 117.06 329.516 116.891 329.711 116.576C329.725 116.566 329.715 116.553 329.729 116.543C329.799 116.435 329.83 116.332 329.861 116.229C330.157 116.459 330.442 116.675 330.728 116.891C331.072 117.129 331.392 117.363 331.706 117.56C331.751 117.652 331.807 117.757 331.843 117.835C331.879 117.913 331.914 117.992 331.964 118.06C332.233 118.574 332.401 118.89 332.411 118.904C332.516 119.078 332.854 119.074 333.198 118.904C333.293 118.86 333.379 118.802 333.44 118.741C333.454 118.731 333.468 118.721 333.473 118.698C333.585 118.765 333.674 118.828 333.772 118.905C334.028 119.08 334.249 119.237 334.43 119.34C334.754 119.55 334.936 119.653 334.964 119.634C334.993 119.614 334.854 119.483 334.597 119.248C334.424 119.098 334.222 118.908 333.96 118.696C333.862 118.619 333.763 118.543 333.655 118.453C333.678 118.396 333.676 118.336 333.636 118.281C333.616 118.254 333.399 117.869 333.04 117.232C332.863 116.902 332.631 116.527 332.398 116.091C332.276 115.867 332.155 115.642 332.023 115.404C331.906 115.156 331.765 114.904 331.637 114.642C331.118 113.582 330.537 112.379 330.162 111.079C330.14 110.992 330.105 110.914 330.093 110.84L330.039 110.59C330.006 110.428 329.962 110.253 329.915 110.101C329.825 109.774 329.753 109.413 329.711 109.094C329.659 108.761 329.658 108.496 329.739 108.258C329.82 108.019 330.002 107.774 330.218 107.546L331.112 106.615L329.849 106.895C329.758 106.916 329.667 106.937 329.59 106.948L329.46 106.974L329.407 106.989C329.34 107.014 329.249 107.035 329.178 107.083L329.164 107.092L329.154 107.079L329.148 107.042L329.122 106.977C329.106 106.926 329.101 106.889 329.095 106.852L329.069 106.788L329.032 106.65C329.01 106.562 328.979 106.461 328.957 106.373C328.936 106.285 328.904 106.184 328.883 106.096C328.861 106.009 328.815 105.917 328.794 105.829C328.737 105.663 328.694 105.488 328.636 105.322C328.407 104.659 328.171 104.103 327.971 103.625C327.58 102.682 327.324 102.099 327.257 102.124C327.219 102.129 327.245 102.398 327.362 102.85C327.417 103.099 327.487 103.399 327.597 103.754C327.745 104.247 327.9 104.838 328.08 105.493C328.113 105.655 328.157 105.83 328.2 106.005C328.221 106.093 328.243 106.181 328.264 106.268C328.286 106.356 328.293 106.453 328.314 106.541C328.336 106.629 328.343 106.726 328.365 106.814L328.388 106.962L328.422 107.184C328.445 107.332 328.468 107.48 328.491 107.628L328.526 107.85L328.543 107.961L328.545 108.021C328.54 108.044 328.565 108.048 328.565 108.048C328.684 108.008 328.818 107.959 328.938 107.919C328.934 107.942 328.92 107.952 328.901 107.985C328.814 108.186 328.762 108.406 328.748 108.62C328.734 108.833 328.749 109.028 328.763 109.223C328.806 109.602 328.858 109.935 328.93 110.296C328.959 110.481 329.002 110.656 329.031 110.841L329.081 111.114C329.103 111.201 329.124 111.289 329.146 111.377C329.49 112.78 330.029 114.071 330.516 115.174C330.653 115.449 330.766 115.721 330.883 115.969C330.991 116.203 331.112 116.427 331.224 116.638C331.169 116.593 331.115 116.548 331.061 116.503C329.907 115.564 328.598 114.383 327.39 112.991C326.181 111.599 325.064 109.981 324.223 108.219L323.907 107.553C323.795 107.342 323.726 107.102 323.629 106.882C323.449 106.431 323.254 105.99 323.112 105.534C323.029 105.304 322.956 105.087 322.873 104.857C322.8 104.64 322.717 104.41 322.658 104.184C322.541 103.732 322.423 103.28 322.291 102.837C322.184 102.399 322.09 101.951 322.007 101.517C321.958 101.304 321.909 101.092 321.875 100.87C321.84 100.648 321.802 100.449 321.777 100.241C321.704 99.8202 321.626 99.4228 321.573 99.0296C321.519 98.6363 321.476 98.2567 321.419 97.8867C321.319 97.1974 321.26 96.5629 321.202 95.9887C321.196 95.9517 321.19 95.9147 321.189 95.8544C321.125 95.2432 321.083 94.7197 321.028 94.2661C320.986 93.7426 320.933 93.3494 320.917 93.0944C320.898 92.9231 320.776 91.5335 320.766 91.5198C320.746 91.2882 320.667 92.1998 320.462 92.2974C320.474 92.3714 320.465 92.418 320.442 92.4742Z" fill="#2FBAF5"/>
<path d="M321.075 102.657L321.051 102.653C321.049 102.594 321.043 102.557 321.041 102.498L321.045 102.475C321.033 102.544 321.059 102.607 321.075 102.657Z" fill="#2FBAF5"/>
<path d="M331.809 96.2118C331.904 96.372 332 96.5322 332.082 96.7021C332.173 96.8856 332.279 97.0595 332.381 97.2568C332.482 97.454 332.598 97.6416 332.699 97.8388C332.755 97.9443 332.811 98.0498 332.857 98.1415C332.913 98.247 332.983 98.3428 333.038 98.4483C333.29 98.8509 333.537 99.2768 333.799 99.6931C334.075 100.1 334.346 100.53 334.632 100.95C335.775 102.632 336.951 104.271 337.809 105.532C338.23 106.167 338.6 106.674 338.842 107.063C339.073 107.438 339.233 107.657 339.243 107.671C339.263 107.698 339.298 107.716 339.332 107.734C339.781 108.494 340.244 109.244 340.715 109.948C340.861 110.177 340.997 110.392 341.147 110.597C341.529 111.178 341.894 111.708 342.23 112.197C342.662 112.846 343.023 113.399 343.265 113.788C343.507 114.177 343.652 114.406 343.672 114.433C343.758 114.58 344.1 114.553 344.424 114.355C344.562 114.282 344.652 114.201 344.731 114.107C344.844 113.97 344.894 113.834 344.834 113.752C344.824 113.738 344.668 113.496 344.402 113.103C344.236 112.847 344.006 112.532 343.76 112.166C343.67 112.043 343.58 111.919 343.48 111.783C343.41 111.687 343.35 111.605 343.28 111.509C342.81 110.865 342.246 110.122 341.676 109.341C341.201 108.721 340.75 108.044 340.288 107.354C340.439 107.212 340.493 107.053 340.433 106.97C340.423 106.957 340.263 106.738 339.997 106.345C339.741 105.965 339.347 105.455 338.887 104.825C338.093 103.766 337.055 102.463 336.003 101.109C335.873 100.931 335.763 100.78 335.648 100.653C335.588 100.571 335.528 100.489 335.468 100.406C335.168 99.9956 334.864 99.6081 334.574 99.2111C334.284 98.814 334.008 98.4073 333.738 98.0376C333.668 97.9417 333.598 97.8459 333.528 97.75C333.458 97.6542 333.412 97.5624 333.342 97.4666C333.226 97.2789 333.096 97.1009 332.98 96.9133C332.865 96.7257 332.745 96.5614 332.639 96.3875C332.523 96.1999 332.403 96.0355 332.279 95.8945C332.035 95.5892 331.82 95.325 331.612 95.0977C331.403 94.8705 331.229 94.661 331.095 94.5063C331.035 94.4242 330.96 94.3516 330.91 94.2832C330.86 94.2147 330.82 94.1599 330.766 94.1148C330.682 94.0285 330.628 93.9834 330.613 93.993C330.599 94.0026 330.601 94.0629 330.642 94.178C330.658 94.2287 330.694 94.3068 330.729 94.3848C330.765 94.4629 330.811 94.5547 330.857 94.6464C330.887 94.6875 330.892 94.7245 330.922 94.7656C331.018 94.9258 331.134 95.1134 331.27 95.3285C331.431 95.6078 331.617 95.8913 331.809 96.2118Z" fill="#2FBAF5"/>
<path d="M324.696 82.573C324.681 82.5826 324.681 82.5826 324.667 82.5922C324.637 82.5511 324.607 82.51 324.577 82.469C324.547 82.4279 324.517 82.3868 324.477 82.332C324.447 82.291 324.417 82.2499 324.401 82.1992C324.305 82.039 324.205 81.902 324.125 81.7925C323.965 81.5734 323.875 81.4502 323.861 81.4598C323.847 81.4694 323.884 81.6078 324.001 81.8557C324.053 81.9845 324.139 82.131 324.22 82.3009C324.25 82.3419 324.266 82.3926 324.282 82.4433C324.312 82.4844 324.328 82.5351 324.368 82.5898C324.418 82.6583 324.443 82.7227 324.493 82.7912C324.372 82.975 324.328 83.1477 324.427 83.2243C324.447 83.2517 324.833 83.6048 325.465 84.1796C325.515 84.2481 325.565 84.3166 325.605 84.3713C326.054 84.9272 326.581 85.5323 327.166 86.1593C328.362 87.4172 329.77 88.8792 331.258 90.4506C332.76 92.0125 334.353 93.6975 335.86 95.4403C336.367 96.018 336.846 96.6149 337.314 97.1982C337.303 97.3284 337.292 97.4586 337.28 97.5888C337.275 97.7561 337.254 97.8726 337.228 98.0124L337.18 98.4127C337.182 98.473 337.163 98.5059 337.145 98.5388C337.141 98.5621 337.141 98.5621 337.151 98.5758L337.146 98.5991L337.144 98.6828L337.137 98.7897L337.138 98.85C337.134 98.8733 337.14 98.9103 337.12 98.8829C337.027 98.8433 336.916 98.8366 336.722 98.8039C336.469 98.7494 336.265 98.7031 336.11 98.6649C335.775 98.5845 335.569 98.4779 335.508 98.5396C335.489 98.5726 335.505 98.6232 335.575 98.7191C335.645 98.8149 335.764 98.9189 335.931 99.0311C336.098 99.1433 336.303 99.2499 336.523 99.3469C336.557 99.3647 336.591 99.3825 336.626 99.4003C336.66 99.418 336.704 99.4495 336.738 99.4673C336.773 99.485 336.817 99.5165 336.865 99.5247C336.9 99.5424 336.954 99.5876 336.998 99.6191C337.189 99.7353 337.391 99.8652 337.578 100.005C337.616 99.9993 337.629 99.9293 337.652 99.8731L337.72 99.7044C337.765 99.592 337.801 99.4659 337.846 99.3534C337.896 99.2177 337.941 99.1052 337.991 98.9695L338.049 98.7871L338.095 98.6746L338.14 98.5622C338.159 98.5293 338.177 98.4964 338.167 98.4827C338.172 98.4594 338.186 98.4497 338.186 98.4497L338.2 98.4401L338.21 98.4538L338.22 98.4675C338.25 98.5086 338.284 98.5264 338.319 98.5441C338.879 99.3109 339.4 100.083 339.873 100.847C339.893 100.875 339.913 100.902 339.929 100.953L340.007 101.35C340.084 101.748 340.143 102.178 340.124 102.559C340.124 102.763 340.105 102.94 340.075 103.103C340.048 103.183 340.045 103.266 340.008 103.332C339.99 103.365 339.981 103.412 339.977 103.435C339.958 103.468 339.94 103.501 339.921 103.534C339.802 103.778 339.588 103.922 339.402 103.987C339.387 103.996 339.359 104.015 339.335 104.011C339.32 104.021 339.296 104.017 339.282 104.027C339.243 104.032 339.215 104.051 339.176 104.057C339.124 104.072 339.081 104.101 339.087 104.138C339.082 104.161 339.117 104.179 339.175 104.201C339.209 104.219 339.234 104.223 339.282 104.231C339.306 104.235 339.331 104.239 339.355 104.243C339.379 104.247 339.418 104.242 339.442 104.246C339.505 104.244 339.567 104.243 339.644 104.232C339.721 104.221 339.803 104.186 339.894 104.166C339.975 104.131 340.071 104.087 340.156 104.03C340.241 103.972 340.327 103.914 340.392 103.829C340.548 103.663 340.644 103.475 340.745 103.264C340.818 103.072 340.876 102.89 340.914 102.68C341.513 103.85 341.996 104.976 342.341 106.03C342.873 107.633 343.121 109.02 343.252 110.015C343.373 110.996 343.388 111.599 343.38 111.646C343.371 111.692 343.387 111.743 343.403 111.794C343.503 111.931 343.593 112.054 343.683 112.177C343.806 112.258 343.947 112.306 344.097 112.307C344.473 112.298 344.769 111.976 344.75 111.6C344.759 111.553 344.723 110.923 344.577 109.877C344.571 109.84 344.565 109.803 344.549 109.753C344.588 109.747 344.612 109.751 344.65 109.746C345.031 109.714 345.318 109.582 345.319 109.438C345.323 109.415 345.289 109.193 345.259 108.803C345.22 108.4 345.158 107.85 345.079 107.188C344.99 106.512 344.869 105.735 344.659 104.895C344.596 104.692 344.547 104.48 344.474 104.264C344.426 104.051 344.314 103.84 344.251 103.638C344.105 103.205 343.892 102.797 343.679 102.388C343.31 101.738 342.87 101.135 342.446 100.584C342.505 100.462 342.537 100.359 342.553 100.265C342.599 100.153 342.612 100.083 342.612 100.083C342.639 100.004 342.346 99.8943 341.972 99.8194C341.9 99.8072 341.851 99.799 341.778 99.7868C341.38 99.2994 340.997 98.8627 340.683 98.4615C340.499 98.2384 340.348 98.033 340.194 97.8509C340.217 97.7947 340.235 97.7617 340.25 97.7521C340.272 97.6959 340.154 97.5919 339.934 97.4949C339.854 97.3853 339.784 97.2895 339.724 97.2073C339.494 96.8924 339.364 96.7144 339.336 96.7336C339.321 96.7432 339.317 96.7666 339.319 96.8269C339.093 96.4886 338.83 96.2162 338.587 95.9712C338.449 95.8398 338.334 95.7125 338.206 95.5948C338.067 95.4634 337.929 95.332 337.8 95.2143C337.523 94.9515 337.262 94.7394 337.001 94.5273L336.902 94.4507C336.868 94.4329 336.838 94.3919 336.828 94.3782C336.774 94.333 336.744 94.2919 336.7 94.2605C336.615 94.1742 336.531 94.088 336.451 93.9785C336.381 93.8826 336.301 93.7731 336.221 93.6635C336.201 93.6362 336.191 93.6225 336.171 93.5951C336.204 93.5525 336.222 93.5196 336.255 93.4771C336.273 93.4442 336.292 93.4113 336.32 93.392C336.483 93.1191 336.598 92.8983 336.554 92.8668C336.554 92.8668 336.475 92.8176 336.338 92.7465C336.201 92.6754 336.02 92.5728 335.809 92.4292C335.72 92.3663 335.627 92.3266 335.529 92.25C335.631 92.0991 335.701 91.9907 335.681 91.9634C335.681 91.9634 335.602 91.9141 335.494 91.8238C335.371 91.7431 335.228 91.635 335.027 91.5051C334.772 91.33 334.458 91.133 334.109 90.9183C333.952 90.8198 333.795 90.7214 333.653 90.6133C333.598 90.5681 333.53 90.5326 333.476 90.4874C333.533 90.449 333.604 90.4009 333.651 90.3488C333.83 90.1868 333.953 90.0633 333.923 90.0222C333.923 90.0222 333.838 89.936 333.728 89.7854C333.604 89.6443 333.44 89.4486 333.231 89.2213C332.804 88.7532 332.239 88.1536 331.616 87.5925C331.024 87.0724 330.388 86.5812 329.83 86.2832C329.796 86.2654 329.762 86.2476 329.738 86.2436C329.464 86.1014 329.244 86.0044 329.064 85.9621C328.41 85.2996 327.796 84.6919 327.256 84.1567C326.726 83.6352 326.295 83.1904 325.978 82.8728C325.641 82.5279 325.438 82.3376 325.418 82.3102C325.364 82.2651 325.277 82.2625 325.186 82.2831C325.017 82.3149 324.851 82.4069 324.696 82.573Z" fill="#2C3B8C"/>
<path d="M320.623 80.9871L320.056 98.0297C320.031 98.0256 320.017 98.2394 320.022 98.6245C320.019 98.7081 320.031 98.7821 320.028 98.8657L319.598 111.932L324.222 116.457L334.46 120.341L343.71 116.553L343.968 116.236C343.982 116.227 343.982 116.227 343.982 116.227C343.982 116.227 343.982 116.227 343.986 116.203L345.888 113.857L346.668 110.121L346.51 104.75L342.761 98.1627L342.721 98.108L340.417 96.5554L338.857 94.6236L321.48 77.7925L320.623 80.9871ZM324.818 115.789C324.724 115.689 324.555 115.516 324.357 115.303C324.188 115.13 323.986 114.94 323.777 114.713C323.564 114.509 323.317 114.287 323.095 114.07C322.858 113.862 322.606 113.663 322.379 113.469L332.503 118.943C331.644 118.583 330.624 118.147 329.604 117.711C328.999 117.465 328.408 117.209 327.852 116.972C327.559 116.862 327.281 116.744 327.013 116.638C326.754 116.547 326.496 116.455 326.262 116.368C326.028 116.281 325.828 116.211 325.643 116.132C325.55 116.092 325.467 116.066 325.385 116.04C325.316 116.005 325.248 115.969 325.179 115.934C324.999 115.891 324.887 115.824 324.818 115.789ZM331.398 94.8938C331.598 95.1677 331.808 95.4552 332.042 95.7469C332.402 96.2398 332.793 96.7738 333.198 97.3585C333.594 97.9295 334.006 98.5512 334.437 99.2003C334.859 99.8357 335.301 100.498 335.766 101.165C336.232 101.832 336.722 102.503 337.217 103.151C337.721 103.812 338.215 104.46 338.695 105.117C339.165 105.761 339.607 106.423 340.039 107.072C340.878 108.366 341.667 109.592 342.392 110.615C343.118 111.638 343.753 112.477 344.221 113.06C344.526 113.448 344.75 113.726 344.884 113.88C344.685 114.015 344.467 114.183 344.269 114.377C344.208 114.439 344.146 114.501 344.085 114.563C343.924 114.283 343.706 113.898 343.439 113.445C343.157 113.001 342.85 112.493 342.503 111.931C342.151 111.391 341.784 110.801 341.402 110.22C341.021 109.64 340.649 109.073 340.297 108.533C340.122 108.263 339.956 108.007 339.79 107.751C339.649 107.499 339.493 107.257 339.357 107.042C338.818 106.158 338.422 105.587 338.38 105.616C338.337 105.645 338.637 106.26 339.081 107.187C339.188 107.422 339.329 107.674 339.457 107.935C339.598 108.187 339.76 108.467 339.907 108.756C340.23 109.314 340.569 109.924 340.912 110.51C341.255 111.096 341.594 111.706 341.917 112.264C342.226 112.833 342.529 113.364 342.796 113.817C343.181 114.519 343.46 115.046 343.571 115.257C343.534 115.323 343.483 115.398 343.46 115.454C343.442 115.487 343.423 115.52 343.405 115.553L331.398 94.8938ZM341.392 100.19C341.318 100.322 341.224 100.426 341.11 100.503C341.043 100.528 340.996 100.58 340.919 100.591C340.905 100.601 340.905 100.601 340.881 100.597L340.804 100.608C340.765 100.613 340.713 100.628 340.674 100.634L340.419 100.663L340.303 100.68C340.279 100.676 340.299 100.703 340.299 100.703L340.305 100.74L340.306 100.8L340.337 101.046C340.36 101.194 340.388 101.379 340.4 101.453C340.439 101.651 340.468 101.836 340.501 101.998C340.548 102.354 340.6 102.687 340.553 102.943C340.517 103.214 340.406 103.411 340.297 103.525C340.246 103.6 340.203 103.629 340.161 103.658C340.128 103.701 340.114 103.71 340.124 103.724C340.134 103.738 340.158 103.742 340.211 103.727C340.263 103.711 340.33 103.687 340.416 103.629C340.583 103.537 340.775 103.305 340.868 102.997C340.962 102.688 340.967 102.317 340.963 101.931C340.948 101.737 340.933 101.542 340.929 101.361C340.926 101.241 340.916 101.227 340.924 101.18L340.933 101.134C340.933 101.134 340.923 101.12 340.937 101.111L340.961 101.115L341.01 101.123C341.01 101.123 341.024 101.113 341.034 101.127L341.073 101.121C341.202 101.095 341.312 101.041 341.446 100.992C341.67 100.861 341.853 100.676 341.989 100.483C342.026 100.417 342.058 100.374 342.081 100.318C342.181 100.455 342.291 100.606 342.391 100.743C343.003 101.638 343.49 102.597 343.9 103.506C344.104 103.961 344.284 104.412 344.441 104.859C344.524 105.089 344.587 105.291 344.65 105.494C344.687 105.633 344.724 105.771 344.737 105.905C344.704 105.948 344.672 105.99 344.639 106.033L344.621 106.066L344.606 106.075L344.588 106.108C344.569 106.141 344.555 106.151 344.537 106.184L344.504 106.226C344.49 106.236 344.471 106.269 344.485 106.259C344.475 106.246 344.465 106.232 344.441 106.228C344.421 106.2 344.441 106.228 344.333 106.137C344.204 106.02 344.076 105.902 344.03 105.81L343.677 105.21L343.509 105.855C343.403 106.233 343.244 106.627 343.137 107.005C343.017 107.393 342.959 107.78 343.011 108.113C343.062 108.446 343.242 108.692 343.367 108.833C343.505 108.965 343.594 109.028 343.622 109.008C343.651 108.989 343.591 108.907 343.509 108.737C343.423 108.591 343.34 108.36 343.329 108.082C343.317 107.804 343.425 107.486 343.575 107.139C343.662 106.937 343.763 106.726 343.868 106.492C343.878 106.505 343.898 106.533 343.908 106.546L344.022 106.674C344.072 106.742 344.122 106.811 344.172 106.879C344.222 106.948 344.268 107.039 344.318 107.108C344.354 107.186 344.404 107.254 344.45 107.346C344.493 107.317 344.53 107.251 344.576 107.199C344.623 107.147 344.67 107.095 344.717 107.043C344.779 106.981 344.83 106.906 344.891 106.844C344.939 107.404 344.928 107.943 344.902 108.431C344.862 109.133 344.786 109.757 344.716 110.273C344.554 111.303 344.429 111.918 344.421 111.965C344.012 111.464 343.548 110.857 343.028 110.145C342.298 109.146 341.504 107.943 340.627 106.655C340.181 106.015 339.74 105.353 339.235 104.691C338.741 104.044 338.222 103.392 337.714 102.754C337.205 102.116 336.687 101.464 336.217 100.821C335.736 100.163 335.291 99.524 334.845 98.8845C334.409 98.2588 333.969 97.6563 333.549 97.0812C333.129 96.5061 332.71 95.9913 332.326 95.4943C332.074 95.0917 331.723 94.5521 331.321 93.9441C331.191 93.7661 331.09 93.5689 330.974 93.3813C330.848 93.18 330.722 92.9787 330.596 92.7774C330.349 92.3514 330.096 91.8885 329.829 91.4352C329.551 90.9682 329.288 90.4916 329.001 90.0109C328.714 89.5302 328.445 89.0166 328.162 88.5126C327.62 87.5087 327.054 86.5007 326.552 85.5515C326.05 84.6024 325.578 83.6943 325.168 82.9287C325.072 82.7685 325 82.6123 324.925 82.4795C325.073 82.6246 325.217 82.793 325.4 82.9558C326.138 83.7045 327.208 84.7612 328.5 86.0355C329.12 86.6802 329.804 87.3838 330.518 88.1285C331.233 88.8731 332.005 89.6396 332.751 90.4856C333.511 91.3221 334.305 92.1763 335.066 93.073C335.459 93.5234 335.842 93.9601 336.234 94.4105C336.443 94.6377 336.627 94.8609 336.836 95.0881L337.149 95.429C337.253 95.5426 337.371 95.6466 337.476 95.7602C337.907 96.2051 338.357 96.6171 338.806 97.029C338.671 97.0182 338.545 97.0211 338.424 97.0007C338.41 97.0103 338.376 96.9926 338.351 96.9885L338.255 96.9722L338.158 96.9559C338.133 96.9518 338.085 96.9436 338.051 96.9258L337.827 96.8521L337.627 96.7825C337.616 96.9127 337.62 97.0936 337.595 97.2335L337.581 97.4473C337.568 97.5172 337.565 97.6008 337.561 97.6241C337.531 97.7873 337.502 97.9504 337.472 98.1135C337.442 98.2767 337.412 98.4398 337.407 98.607C337.4 98.7139 337.4 98.7139 337.416 98.7646L337.417 98.8249L337.423 98.8619C337.423 98.8619 337.429 98.8989 337.419 98.8852C337.356 98.8867 337.289 98.9115 337.208 98.9458C337.102 98.9761 337.021 99.0105 336.95 99.0586C336.816 99.1081 336.735 99.1424 336.74 99.1794C336.736 99.2027 336.833 99.2191 336.997 99.2106C337.074 99.1996 337.175 99.1926 337.277 99.1856C337.378 99.1786 337.566 99.1742 337.774 99.1973C337.789 99.1877 337.793 99.1643 337.797 99.141L337.81 99.0711C337.818 99.0245 337.827 98.9779 337.811 98.9272C337.804 98.8299 337.839 98.7038 337.848 98.6572C337.873 98.5173 337.923 98.3816 337.977 98.2225C338.031 98.0635 338.085 97.9044 338.129 97.7316L338.156 97.6521L338.164 97.6055C338.168 97.5822 338.173 97.5589 338.187 97.5493C338.231 97.5807 338.255 97.5848 338.362 97.6148C338.532 97.6434 338.668 97.6542 338.789 97.6746C338.813 97.6787 338.847 97.6964 338.872 97.7005L338.896 97.7046L338.93 97.7224C338.979 97.7305 339.013 97.7483 339.037 97.7524C339.096 97.7742 339.154 97.7961 339.213 97.8179C339.237 97.822 339.247 97.8357 339.261 97.8261L339.304 97.7973L339.375 97.7492C339.418 97.7203 339.451 97.6778 339.508 97.6394C339.72 97.8433 339.937 98.0239 340.15 98.2279C340.59 98.6261 341.005 99.0203 341.392 99.4337C341.467 99.5062 341.527 99.5884 341.601 99.6609C341.52 99.8995 341.466 100.059 341.392 100.19ZM339.647 96.4619L339.627 96.4345C339.627 96.4345 339.627 96.4345 339.641 96.4249L339.681 96.4796C339.667 96.4892 339.657 96.4755 339.647 96.4619ZM338.417 95.1861C338.373 95.1546 338.329 95.1232 338.299 95.0821C338.09 94.8549 337.868 94.6372 337.669 94.4237C337.932 94.6961 338.185 94.9548 338.417 95.1861ZM321.108 84.3595C321.154 84.247 321.189 84.1209 321.239 83.9851C321.289 83.8494 321.328 83.6999 321.368 83.5505C321.462 83.242 321.521 82.9157 321.605 82.5935C321.748 81.945 321.931 81.3513 322.125 80.9755C322.143 80.9426 322.176 80.9001 322.194 80.8672C322.559 81.3368 322.903 81.9833 323.264 82.6804C323.355 82.8639 323.461 83.0379 323.572 83.2488C323.688 83.4364 323.808 83.6007 323.924 83.7883C324.17 84.154 324.406 84.5059 324.651 84.8715C325.143 85.6027 325.625 86.3203 326.076 86.9968C326.196 87.1611 326.302 87.335 326.422 87.4993C326.542 87.6636 326.624 87.8335 326.734 87.9841C326.925 88.3045 327.121 88.6017 327.297 88.8715C327.337 88.9262 327.372 89.0043 327.412 89.0591L339.269 109.513C339.279 109.527 339.289 109.54 339.285 109.564C339.402 109.812 339.515 110.083 339.653 110.358C339.786 110.657 339.947 110.936 340.119 111.229C340.462 111.815 340.835 112.443 341.145 113.071C341.456 113.7 341.699 114.353 341.631 114.931C341.605 115.214 341.505 115.486 341.376 115.716C341.236 115.933 341.053 116.118 340.859 116.29C340.788 116.338 340.712 116.409 340.641 116.457C340.479 116.526 340.306 116.581 340.144 116.65C339.618 116.862 339.068 117.069 338.517 117.277C337.413 117.716 336.288 118.127 335.447 118.49C335.242 118.587 335.051 118.675 334.875 118.754C334.712 118.823 334.57 118.919 334.46 118.972C334.416 118.941 334.361 118.896 334.293 118.86C334.194 118.783 334.062 118.689 333.919 118.581C333.84 118.532 333.776 118.473 333.688 118.41C333.599 118.347 333.511 118.284 333.422 118.221C333.044 117.965 332.587 117.66 332.062 117.32C331.537 116.979 330.943 116.603 330.291 116.205C329.652 115.797 328.97 115.358 328.219 114.884C327.493 114.413 326.718 113.935 325.998 113.357C325.265 112.789 324.592 112.16 324.06 111.374C323.92 111.182 323.795 110.981 323.655 110.789C323.529 110.588 323.417 110.377 323.291 110.176C323.068 109.754 322.86 109.322 322.655 108.868C322.46 108.426 322.28 107.976 322.1 107.525C322.094 107.488 322.088 107.451 322.083 107.414C321.999 106.98 321.902 106.555 321.8 106.154C321.768 106.052 321.761 105.955 321.739 105.867C321.729 105.853 321.734 105.83 321.734 105.83C321.693 105.367 321.643 104.89 321.592 104.413C321.505 103.45 321.375 102.515 321.261 101.631C321.147 100.747 321.011 99.9198 320.901 99.2168C320.84 98.8702 320.798 98.5509 320.752 98.2549C320.716 97.9726 320.661 97.7232 320.637 97.5149C320.641 97.4916 320.631 97.4779 320.625 97.4409L321.043 84.6488C321.056 84.5788 321.087 84.476 321.108 84.3595Z" fill="#2B136C"/>
<path d="M354.391 11.2239L354.36 11.4926L354.298 12.0299C354.266 12.209 354.266 12.3881 354.266 12.597L354.235 13.4926V13.5224C354.266 13.5224 354.266 13.5224 354.298 13.5523C354.515 13.4627 354.763 13.3433 355.012 13.2537C355.322 13.1343 355.633 13.0448 355.882 12.9851C355.944 12.9851 355.975 12.9552 356.006 12.9552V8.98509C355.913 8.98509 355.819 8.98509 355.695 8.98509C355.54 8.98509 355.354 8.98509 355.198 9.01494C354.857 9.04479 354.515 9.07464 354.235 9.07464C354.298 9.2836 354.329 9.4627 354.36 9.67166C354.391 9.88061 354.391 10.0896 354.422 10.2985C354.422 10.5075 354.391 10.7164 354.391 10.9254C354.422 11.0448 354.422 11.1343 354.391 11.2239Z" fill="#2C61BF"/>
<path d="M353.707 13.9403C353.707 14 353.707 14.0597 353.677 14.1492C353.707 14.0895 353.707 14.0298 353.737 13.9701C353.737 13.9403 353.707 13.9403 353.707 13.9403Z" fill="#2C61BF"/>
<path d="M351.596 4.41788C351.626 4.44773 351.655 4.50743 351.685 4.53728C351.685 4.53728 351.685 4.53728 351.715 4.50743L351.596 4.41788Z" fill="#2C61BF"/>
<path d="M350.384 19.5523C350.757 19.7911 351.099 20 351.378 20.1493C351.565 19.403 351.751 18.5374 352.03 17.6717C352.496 16.0896 353.055 14.5672 353.397 13.8806C353.242 13.8508 353.055 13.8209 352.9 13.7911C352.124 13.6418 351.378 13.4926 350.664 13.3433C349.235 13.0448 347.838 12.8359 346.688 12.6269C346.098 12.5374 345.57 12.4179 345.104 12.3582C344.639 12.2687 344.235 12.1493 343.893 12.0597H343.862C344.545 13.1344 345.663 14.9851 347.061 16.5672C348.117 17.8209 349.359 18.8956 350.384 19.5523Z" fill="#2C61BF"/>
<path d="M345.322 17.1045C345.166 16.8358 345.011 16.597 344.856 16.3284C344.949 16.5672 345.011 16.806 345.104 17.0448C345.166 17.0448 345.228 17.0448 345.322 17.1045Z" fill="#2C61BF"/>
<path d="M343.613 11.7911C343.707 11.7911 343.8 11.8209 343.893 11.8209C343.924 11.8209 343.924 11.8209 343.955 11.8209C343.831 11.7911 343.707 11.7612 343.582 11.7314C343.582 11.7612 343.613 11.7612 343.613 11.7911Z" fill="#2C61BF"/>
<path d="M347.838 20.3284C347.897 20.3582 347.927 20.3582 347.987 20.3881C347.957 20.3582 347.927 20.3284 347.868 20.2687C347.868 20.2985 347.868 20.3284 347.838 20.3284Z" fill="#2C61BF"/>
<path d="M348.862 8.65673C350.601 9.2239 352.341 9.70151 353.304 10.0597C353.304 10 353.273 9.91046 353.273 9.85076C353.148 9.19404 352.9 8.53733 352.558 7.97016C351.875 6.80599 351.005 5.79106 350.229 4.89554C349.452 4.00001 348.8 3.25375 348.365 2.65673C348.241 2.47763 348.117 2.32837 348.055 2.20897C347.868 2.47763 347.62 2.80599 347.34 3.19404C346.999 3.67166 346.564 4.17912 346.16 4.74628C345.756 5.31345 345.353 5.94031 345.073 6.56718C344.98 6.80599 344.887 7.07464 344.856 7.31345C345.85 7.64181 347.34 8.11942 348.862 8.65673Z" fill="#3894CD"/>
<path d="M343.955 11.7015C343.831 11.7015 343.707 11.7015 343.583 11.6716C343.552 11.6716 343.552 11.6716 343.552 11.6716C343.552 11.7015 343.583 11.7015 343.583 11.7313C343.676 11.7612 343.8 11.791 343.955 11.8209C344.297 11.8507 344.67 11.9104 345.136 11.9701C345.198 11.9701 345.229 11.9701 345.291 11.9701C345.073 11.9403 344.856 11.8806 344.639 11.8507C344.39 11.791 344.173 11.7612 343.955 11.7015Z" fill="#3894CD"/>
<path d="M354.267 13.5821C354.297 13.5821 354.327 13.5523 354.327 13.5523C354.297 13.5523 354.267 13.5523 354.267 13.5224V13.5821Z" fill="#2C3B8C"/>
<path d="M355.229 14.2388C354.577 14.2089 353.956 14.1492 353.863 13.9701C353.832 13.9701 353.801 13.9701 353.77 13.9403C353.739 14 353.739 14.0597 353.708 14.1194C353.614 14.9254 353.304 16.3881 353.055 17.8806C352.931 18.597 352.838 19.3134 352.745 19.9701L355.82 14.2388C355.633 14.2388 355.416 14.2388 355.229 14.2388Z" fill="#2C3B8C"/>
<path d="M343.573 11.7313C343.573 11.7015 343.543 11.7015 343.543 11.6716C343.454 11.6716 343.394 11.6716 343.334 11.6716V11.7313C343.424 11.7313 343.513 11.7612 343.603 11.7612C343.603 11.7612 343.573 11.7612 343.573 11.7313Z" fill="#2C3B8C"/>
<path d="M345.105 17.0448C345.322 17.6716 345.509 18.2388 345.664 18.7463C345.757 18.9851 345.819 19.2239 345.882 19.403C345.975 19.4627 346.068 19.5224 346.161 19.5522C346.285 19.6418 346.441 19.7015 346.596 19.791C346.751 19.8806 346.938 19.9403 347.124 20.0298C347.31 20.1194 347.497 20.2089 347.683 20.2686C347.714 20.2985 347.776 20.2985 347.807 20.3283C347.807 20.2985 347.838 20.2985 347.838 20.2686C347.869 20.2985 347.9 20.3582 347.962 20.388C348.056 20.4179 348.18 20.4776 348.273 20.5074C349.081 20.806 349.919 21.1045 350.571 21.3433C350.758 21.403 350.913 21.4925 351.037 21.5522C351.099 21.3134 351.13 21.0448 351.224 20.7164C351.255 20.5373 351.317 20.3582 351.348 20.1791C351.068 20.0298 350.727 19.8209 350.354 19.5821C349.329 18.9254 348.087 17.8507 347 16.597C345.571 15.0149 344.484 13.1642 343.801 12.0895C343.614 12.0298 343.459 12 343.304 11.9701V12.0895L343.335 12.2089C343.645 12.8657 344.142 14.388 344.701 15.9403C344.763 16.0895 344.794 16.2388 344.857 16.388C345.012 16.6567 345.167 16.8955 345.322 17.1642C345.229 17.0448 345.167 17.0448 345.105 17.0448Z" fill="#2C3B8C"/>
<path d="M343.614 11.7015C343.707 11.7015 343.831 11.7015 343.987 11.7313C344.173 11.791 344.39 11.8209 344.639 11.8806C344.825 11.9104 345.043 11.9701 345.291 12C345.726 12.0298 346.223 12.0895 346.751 12.1492C347.931 12.2686 349.298 12.388 350.788 12.6268C351.534 12.7462 352.279 12.8358 353.056 12.9552L353.242 12.9851H353.273H353.304V12.8955V12.8059V12.7462V12.7164V12.6567C353.304 12.4776 353.304 12.2686 353.304 12.0597L353.335 11.4627L353.366 11.1642C353.366 11.0746 353.366 10.9552 353.366 10.8955V10.388C353.366 10.2985 353.335 10.2089 353.335 10.0895C352.372 9.73132 350.602 9.25371 348.894 8.68655C347.372 8.17908 345.881 7.67162 344.856 7.34326C344.856 7.40296 344.825 7.49252 344.825 7.55222V7.67162V7.73132V7.82087C344.825 7.94028 344.856 8.05968 344.856 8.20893V8.29849C344.856 8.32834 344.794 8.35819 344.794 8.38804L344.639 8.53729L344.483 8.68655L344.39 8.7761C343.924 9.25371 343.614 9.79102 343.396 10.2985C343.396 10.3283 343.365 10.3582 343.365 10.388L343.334 11.7612C343.396 11.7612 343.459 11.7612 343.552 11.7612C343.583 11.7015 343.583 11.7015 343.614 11.7015Z" fill="#2FBAF5"/>
<path d="M348.024 0L347.434 0.776119C347.341 0.776119 347.248 0.776119 347.248 0.80597C347.248 0.80597 347.154 0.985075 346.999 1.25373C346.937 1.37313 346.844 1.49254 346.782 1.61194L342.558 6.95522L342.433 12.1194L344.142 20.6866L352.124 23.0746L357 14V8.02985L348.024 0ZM343.334 11.6716L343.365 10.2985C343.365 10.2687 343.396 10.2388 343.396 10.209C343.614 9.70149 343.924 9.16418 344.39 8.68657L344.483 8.59701L344.639 8.44776L344.794 8.29851C344.825 8.26866 344.856 8.23881 344.856 8.20895V8.1194C344.856 8 344.825 7.8806 344.825 7.73134V7.64179V7.58209V7.46269C344.825 7.40298 344.825 7.31343 344.856 7.25373C344.887 7.01492 344.98 6.77612 345.073 6.50746C345.353 5.8806 345.757 5.25373 346.161 4.68657C346.564 4.1194 346.999 3.58209 347.341 3.13433C347.62 2.77612 347.869 2.44776 348.055 2.14925C348.148 2.26866 348.241 2.41791 348.366 2.59702C348.8 3.16418 349.453 3.9403 350.229 4.83582C351.006 5.73134 351.875 6.71642 352.559 7.91045C352.9 8.50746 353.149 9.13433 353.273 9.79104C353.273 9.85075 353.304 9.9403 353.304 10C353.304 10.0896 353.335 10.1791 353.335 10.2985V10.806C353.335 10.8955 353.335 10.9851 353.335 11.0746L353.304 11.3731L353.273 11.9701C353.273 12.1791 353.273 12.3582 353.273 12.5672V12.6269V12.6567V12.7164V12.806V12.8955C353.273 12.9254 353.242 12.8955 353.242 12.8955H353.211L353.024 12.8657C352.248 12.7463 351.503 12.6567 350.757 12.5373C349.266 12.2985 347.9 12.1791 346.72 12.0597C346.192 12 345.695 11.9701 345.26 11.9104C345.198 11.9104 345.167 11.9104 345.105 11.9104C344.639 11.8507 344.266 11.791 343.924 11.7612C343.893 11.7612 343.893 11.7612 343.862 11.7612C343.769 11.7612 343.676 11.7313 343.583 11.7313C343.489 11.7313 343.396 11.7015 343.303 11.7015L343.334 11.6716ZM351.596 4.41791L351.72 4.53731C351.72 4.53731 351.72 4.53731 351.689 4.56716C351.658 4.50746 351.627 4.47761 351.596 4.41791ZM352.621 5.61194C352.621 5.58209 352.621 5.58209 352.621 5.61194C352.621 5.58209 352.621 5.61194 352.621 5.61194ZM354.391 9.67164C354.36 9.46269 354.329 9.25373 354.267 9.07463C354.546 9.07463 354.888 9.04478 355.23 9.01493C355.385 9.01493 355.571 9.01492 355.727 8.98507C355.851 8.98507 355.944 8.98507 356.037 8.98507V12.9552C356.006 12.9552 355.944 12.9851 355.913 12.9851C355.664 13.0448 355.354 13.1642 355.043 13.2537C354.795 13.3433 354.546 13.4328 354.329 13.5522C354.298 13.5522 354.267 13.5821 354.267 13.5821V13.5224V13.4925L354.298 12.597C354.298 12.4179 354.298 12.209 354.329 12.0299L354.391 11.4925L354.422 11.2239C354.422 11.1343 354.453 11.0448 354.453 10.9254C354.453 10.7164 354.484 10.5075 354.484 10.2985C354.453 10.0896 354.422 9.8806 354.391 9.67164ZM353.024 17.9104C353.273 16.4179 353.583 14.9552 353.677 14.1493C353.677 14.0896 353.708 14 353.708 13.9403H353.739C353.77 13.9403 353.801 13.9403 353.832 13.9701C353.925 14.1493 354.577 14.209 355.199 14.2388C355.385 14.2388 355.602 14.2388 355.789 14.2388L352.714 19.9701C352.807 19.3433 352.9 18.6269 353.024 17.9104ZM344.701 15.8806C344.142 14.3582 343.645 12.806 343.334 12.1493L343.303 12.0299V11.9104C343.427 11.9403 343.614 12 343.8 12.0299H343.831C344.173 12.1194 344.577 12.2388 345.042 12.3284C345.508 12.4179 346.067 12.5075 346.626 12.597C347.807 12.806 349.173 12.9851 350.602 13.3134C351.347 13.4627 352.093 13.6119 352.838 13.7612C352.993 13.791 353.18 13.8209 353.335 13.8507C352.993 14.5373 352.403 16.0597 351.968 17.6418C351.72 18.5075 351.503 19.3731 351.316 20.1194C351.285 20.2985 351.223 20.4776 351.192 20.6567C351.13 20.9851 351.068 21.2836 351.006 21.4925C350.881 21.4328 350.726 21.3731 350.54 21.2836C349.919 21.0448 349.08 20.7463 348.241 20.4478C348.148 20.4179 348.024 20.3582 347.931 20.3284C347.869 20.2985 347.838 20.2985 347.776 20.2687C347.744 20.2388 347.682 20.2388 347.651 20.209C347.465 20.1194 347.248 20.0597 347.092 19.9701C346.906 19.8806 346.751 19.8209 346.564 19.7313C346.409 19.6418 346.254 19.5522 346.129 19.4925C346.036 19.4328 345.943 19.3731 345.85 19.3433C345.788 19.1642 345.726 18.9254 345.633 18.6866C345.477 18.1791 345.291 17.6119 345.073 16.9851C344.98 16.7463 344.918 16.5075 344.825 16.2687C344.825 16.1791 344.763 16.0299 344.701 15.8806Z" fill="#2B136C"/>
<path opacity="0.7" d="M22.2064 113.63C22.0557 113.376 21.905 113.086 21.7167 112.797C21.3776 112.217 21.0385 111.602 20.6617 110.95C20.2096 110.153 19.7198 109.393 19.3053 108.669C19.23 108.85 19.1546 109.067 19.0416 109.284C18.9286 109.501 18.8155 109.755 18.7025 109.972L18.4764 110.298C18.4011 110.407 18.3634 110.479 18.288 110.588C18.062 110.986 17.8736 111.421 17.6852 111.855C16.9694 113.63 16.5172 115.549 16.1405 116.997C16.0651 117.215 16.0274 117.432 15.9521 117.613C15.9521 117.613 16.0274 117.685 16.1405 117.794C16.2535 117.903 16.4042 118.047 16.6679 118.228C16.894 118.41 17.1577 118.627 17.4968 118.844C17.5722 118.88 17.6852 118.953 17.7606 119.025C18.4011 118.554 19.2676 117.939 20.3226 117.215C20.8878 116.852 21.5283 116.418 22.2064 116.02C22.3948 115.911 22.5455 115.802 22.7339 115.694C22.8846 115.621 22.9977 115.549 23.1484 115.476C22.9977 115.187 22.8093 114.825 22.5455 114.39C22.4702 114.173 22.3572 113.919 22.2064 113.63Z" fill="#2FBAF5"/>
<path opacity="0.7" d="M18.3631 100.666C18.4761 101.318 18.6268 102.187 18.7398 103.019C18.7398 103.092 18.7775 103.201 18.7775 103.273C19.0789 103.997 19.3427 104.83 19.6817 105.663L19.7571 105.844L19.9078 106.134C19.9832 106.315 20.0962 106.532 20.1715 106.713L20.3222 107.003C20.3222 107.039 20.3976 107.111 20.3599 107.148L20.2469 107.292C20.2092 107.329 20.2092 107.365 20.1715 107.401C20.2092 107.437 20.2469 107.474 20.2846 107.51C20.3599 107.582 20.473 107.655 20.5483 107.691C20.699 107.799 20.8121 107.872 20.9251 107.98C21.1888 108.162 21.4149 108.306 21.5656 108.451C21.9047 108.741 22.0554 108.994 22.0177 109.031C21.98 109.067 21.754 108.922 21.4149 108.741C21.754 109.103 22.0554 109.465 22.3945 109.827C22.6959 110.189 22.9973 110.515 23.2611 110.877C23.2611 110.841 23.2611 110.805 23.2234 110.769C23.0727 110.008 22.922 109.248 22.7713 108.524V108.487H22.8089H22.8843H23.035H23.3364L23.9392 108.451C24.316 108.451 24.7305 108.451 25.1072 108.415C25.484 108.415 26.0115 108.415 26.1245 108.415H26.4259C26.5013 108.415 26.5766 108.379 26.6897 108.379C26.9534 108.379 27.5186 108.234 28.0084 108.162C29.9299 107.908 31.663 108.089 33.0947 108.234C34.4888 108.379 35.5814 108.56 36.4103 108.669C31.3616 105.373 21.1888 101.426 18.4007 100.376C18.3254 100.448 18.3631 100.557 18.3631 100.666Z" fill="#2FBAF5"/>
<path opacity="0.7" d="M15.6401 103.092C15.6039 103.02 15.5314 102.911 15.4952 102.838C15.459 102.911 15.4228 102.947 15.3866 103.02C15.459 103.056 15.5314 103.056 15.6401 103.092Z" fill="#2FBAF5"/>
<path opacity="0.7" d="M31.3614 118.192C32.8685 118.989 34.3755 119.858 35.4682 120.618C35.5812 120.691 35.7319 120.799 35.8449 120.872C35.9956 119.894 36.071 118.772 36.0333 117.685C35.958 115.73 35.6565 113.774 35.0914 112.435C34.903 111.964 34.7523 111.565 34.6016 111.24C33.9988 111.131 33.3206 110.986 32.6047 110.877C31.286 110.66 29.7036 110.443 28.1965 110.552C27.7821 110.588 27.5183 110.66 26.8778 110.696C26.7271 110.696 26.5764 110.733 26.4634 110.733H26.0866C25.7475 110.733 25.8229 110.733 25.7475 110.696C25.6345 110.696 25.5215 110.66 25.3708 110.66V110.986C25.3331 110.986 25.4838 111.602 25.5591 112C25.6345 112.435 25.7475 112.869 25.8229 113.304C25.8605 113.557 25.9359 113.774 25.9736 114.028C26.0489 114.354 26.0866 114.643 26.162 114.969C26.2373 115.259 26.275 115.585 26.3503 115.875C26.6141 115.983 26.8778 116.092 27.2169 116.237C28.3472 116.671 29.8543 117.396 31.3614 118.192Z" fill="#2FBAF5"/>
<path d="M20.3605 107.184C20.3605 107.148 20.3229 107.075 20.3229 107.039L20.1721 106.749C20.0591 106.532 19.9838 106.351 19.9084 106.17L19.7577 105.88L19.6824 105.699C19.3433 104.866 19.0795 104.033 18.7781 103.309C19.0042 104.939 19.1926 106.496 18.9665 106.532C18.7404 106.568 18.0999 104.939 17.5348 103.309C17.3087 102.657 17.0826 102.006 16.8943 101.426C16.8566 101.426 16.8566 101.462 16.8189 101.462C16.6305 101.607 16.4045 101.788 16.1784 102.006C16.0654 102.114 15.9523 102.259 15.8393 102.368C15.7639 102.44 15.7263 102.513 15.6509 102.585C15.6132 102.657 15.5379 102.73 15.5002 102.802L15.4625 102.838C15.5002 102.911 15.5379 102.983 15.6132 103.092C15.5379 103.056 15.4249 103.056 15.3495 103.019C15.2742 103.092 15.2365 103.201 15.1988 103.273C15.1234 103.454 15.0104 103.635 14.8974 103.852C14.822 104.07 14.7467 104.287 14.6713 104.504C14.596 104.721 14.5583 104.975 14.4829 105.192C14.2945 106.17 14.2569 107.256 14.3322 108.379C14.4453 110.588 14.822 112.905 14.7467 114.643C14.7467 115.114 14.7467 115.513 14.7467 115.875C15.1988 114.535 15.7263 112.905 16.5175 111.312C16.7436 110.841 17.0073 110.407 17.3087 109.972C17.3841 109.863 17.4594 109.755 17.5348 109.646L17.7608 109.393C17.8739 109.248 17.9869 109.031 18.0999 108.85C18.2129 108.632 18.326 108.451 18.4013 108.27C18.4767 108.162 18.5144 108.053 18.5897 107.944C18.6651 107.799 18.7404 107.655 18.8158 107.546C18.9665 107.292 19.1549 107.039 19.3433 106.967C19.3809 106.967 19.3809 106.93 19.4186 106.93L19.494 106.967C19.5316 107.003 19.5693 107.003 19.6447 107.039L19.7954 107.111L19.9461 107.256C20.0214 107.292 20.0591 107.365 20.1345 107.437C20.1721 107.401 20.1721 107.365 20.2098 107.329L20.3605 107.184Z" fill="#3894CD"/>
<path d="M21.4155 108.741C21.1894 108.632 20.9633 108.524 20.6996 108.415C20.5489 108.343 20.3982 108.27 20.2475 108.198C20.1721 108.162 20.1344 108.125 20.0591 108.089C20.0214 108.053 19.9461 108.053 19.9084 108.017C19.8707 107.981 19.833 107.944 19.7577 107.944C19.72 107.944 19.72 107.908 19.6823 107.908L19.6446 107.872C19.6446 107.872 19.6446 107.908 19.607 107.908C19.5316 108.017 19.4939 108.125 19.4562 108.234C19.4186 108.379 19.3432 108.524 19.3055 108.669V108.705C19.72 109.429 20.2098 110.189 20.6619 110.986C21.0387 111.602 21.3778 112.217 21.7169 112.833C21.8676 113.123 22.056 113.412 22.2067 113.666C22.3574 113.919 22.4704 114.209 22.6211 114.426C22.8472 114.861 23.0732 115.223 23.2239 115.513C23.2616 115.476 23.337 115.476 23.3746 115.44C23.563 115.331 23.7514 115.259 23.9398 115.15C24.0152 115.114 24.1282 115.078 24.2035 115.006L24.3166 114.933L24.3919 114.897C24.4296 114.897 24.4296 114.897 24.4296 114.861C24.3919 114.752 24.3542 114.643 24.3166 114.535L24.2035 114.209C24.1659 114.028 24.0905 113.847 24.0528 113.666C23.9398 113.231 23.8268 112.833 23.6761 112.398C23.563 111.964 23.45 111.674 23.2993 110.914C23.0356 110.552 22.7341 110.226 22.4327 109.864C22.056 109.465 21.7545 109.103 21.4155 108.741Z" fill="#3894CD"/>
<path d="M34.0374 124.638C32.6056 124.384 30.9855 123.986 29.4031 123.407C27.3309 122.682 25.4093 121.632 24.1283 120.655C23.4878 120.184 22.998 119.822 22.6213 119.496C22.2822 119.206 22.0938 118.989 22.1315 118.88C22.1691 118.808 22.4706 118.844 22.885 118.989C23.3371 119.134 23.9776 119.387 24.6558 119.677C26.0499 120.365 27.9714 121.017 29.9306 121.451C31.8898 121.886 33.8866 122.103 35.4314 122.175C35.5444 121.741 35.6575 121.27 35.7328 120.799C35.6198 120.727 35.5068 120.655 35.3561 120.546C34.2634 119.786 32.7563 118.953 31.2493 118.12C29.7422 117.323 28.2351 116.599 27.0671 116.092C26.7657 115.947 26.4643 115.838 26.2006 115.73V115.802V115.838H26.1629L26.0499 115.875L25.8238 115.947L25.334 116.128C25.0326 116.237 24.7312 116.345 24.3921 116.454C24.2037 116.526 24.0153 116.599 23.8269 116.671C23.6385 116.744 23.4502 116.816 23.2618 116.889C23.0734 116.961 22.9227 117.07 22.7343 117.142C22.0184 117.468 21.3779 117.794 20.7751 118.084C19.7955 118.591 18.9289 119.025 18.2507 119.315C18.3261 119.351 18.4014 119.423 18.5145 119.46C19.381 119.93 20.4737 120.437 21.6417 120.98C21.9431 121.125 22.2445 121.234 22.5459 121.379C22.8473 121.524 23.1487 121.632 23.4502 121.777C24.053 122.031 24.6935 122.32 25.334 122.538L26.2759 122.864C26.5773 122.972 26.9164 123.081 27.2178 123.189C27.8583 123.37 28.4989 123.552 29.1017 123.733C30.345 124.022 31.513 124.276 32.5303 124.493C33.0201 124.602 33.4345 124.71 33.849 124.783C34.0374 124.747 34.0374 124.71 34.0374 124.638Z" fill="#2C3B8C"/>
<path d="M39.4997 124.457C39.4997 124.348 39.2736 114.245 39.1229 109.682V109.465L38.9722 109.32C34.5263 105.192 18.702 99.3259 18.0239 99.1086C17.8355 99.0362 17.6094 99 17.3833 99C15.1604 99 12.9752 103.237 12.5607 104.106L12.4854 104.214L13.5403 119.279L26.6142 125.072L35.5813 126.557L39.5374 124.783L39.4997 124.457ZM32.7555 124.529C31.7382 124.312 30.5703 124.022 29.3269 123.769C28.7241 123.588 28.0836 123.407 27.4431 123.226C27.104 123.153 26.8026 123.045 26.5012 122.9L25.5592 122.574C24.9187 122.357 24.2782 122.067 23.6754 121.813C23.374 121.669 23.0726 121.56 22.7711 121.415C22.4697 121.27 22.1683 121.162 21.8669 121.017C20.6989 120.51 19.6063 120.003 18.7397 119.496C18.6644 119.46 18.5513 119.387 18.476 119.351C19.1542 119.025 20.0207 118.591 21.0003 118.12C21.6032 117.83 22.2813 117.504 22.9595 117.178C23.1479 117.106 23.2986 117.033 23.487 116.925C23.6754 116.852 23.8638 116.78 24.0522 116.708C24.2406 116.635 24.4289 116.563 24.6173 116.49C24.9187 116.382 25.2202 116.273 25.5592 116.164L26.049 115.983L26.2751 115.911L26.3881 115.875H26.4258C26.4258 115.875 26.4258 115.875 26.4258 115.838V115.766C26.3505 115.476 26.3128 115.15 26.2374 114.861C26.1621 114.535 26.1244 114.245 26.049 113.919C26.0114 113.666 25.936 113.448 25.8983 113.195C25.823 112.76 25.7099 112.326 25.6346 111.891C25.5592 111.493 25.4462 110.914 25.4462 110.877V110.552C25.5592 110.552 25.7099 110.588 25.823 110.588C25.8983 110.588 25.823 110.588 26.1621 110.624H26.5388C26.6895 110.624 26.8026 110.624 26.9533 110.588C27.5938 110.552 27.8575 110.479 28.272 110.443C29.779 110.334 31.3615 110.552 32.6802 110.769C33.396 110.877 34.0742 111.022 34.677 111.131C34.8278 111.457 34.9785 111.891 35.1669 112.326C35.732 113.666 36.0334 115.621 36.1088 117.577C36.1465 118.663 36.0711 119.786 35.9204 120.763C35.845 121.27 35.732 121.741 35.619 122.139C34.0742 122.031 32.0397 121.85 30.1181 121.415C28.1589 120.981 26.2374 120.329 24.8434 119.641C24.1275 119.351 23.487 119.061 23.0726 118.953C22.6204 118.808 22.3567 118.772 22.319 118.844C22.2813 118.916 22.4321 119.134 22.8088 119.46C23.1479 119.786 23.6377 120.148 24.3159 120.618C25.5592 121.596 27.5184 122.646 29.5907 123.37C31.1731 123.95 32.8309 124.312 34.2249 124.602C34.2249 124.638 34.2249 124.71 34.2626 124.783C33.6974 124.747 33.2453 124.638 32.7555 124.529ZM33.0193 108.234C31.5875 108.089 29.8921 107.908 27.9329 108.162C27.4808 108.198 26.8779 108.379 26.6142 108.379C26.5388 108.379 26.4635 108.415 26.3504 108.415H26.049C25.936 108.415 25.4085 108.415 25.0318 108.415C24.655 108.415 24.2406 108.415 23.8638 108.451L23.2609 108.487H22.9595H22.8088H22.7335H22.6958V108.524C22.8465 109.284 22.9972 110.008 23.1479 110.769C23.1479 110.805 23.1479 110.841 23.1856 110.877C23.3363 111.638 23.4493 111.891 23.5624 112.362C23.6754 112.797 23.8261 113.195 23.9391 113.63C23.9768 113.811 24.0522 113.992 24.0898 114.173L24.2029 114.499C24.2405 114.607 24.2782 114.716 24.3159 114.825C24.3536 114.861 24.3159 114.861 24.2782 114.861L24.2029 114.897L24.0898 114.969C24.0145 115.006 23.9015 115.042 23.8261 115.114C23.6377 115.223 23.4493 115.331 23.2609 115.404C23.2233 115.44 23.1479 115.44 23.1102 115.476C22.9595 115.549 22.8465 115.621 22.6958 115.694C22.5074 115.802 22.3567 115.911 22.1683 116.02C21.4901 116.418 20.8496 116.816 20.2845 117.214C19.2295 117.939 18.3629 118.554 17.7224 119.025C17.6471 118.953 17.5341 118.916 17.4587 118.844C17.1196 118.627 16.8559 118.409 16.6298 118.228C16.4037 118.047 16.2154 117.903 16.1023 117.794C15.9893 117.685 15.914 117.613 15.914 117.613C15.9516 117.432 16.027 117.214 16.1023 116.997C16.5168 115.549 16.9312 113.63 17.6471 111.855C17.8355 111.421 18.0239 110.986 18.2499 110.588C18.3253 110.479 18.3629 110.407 18.4383 110.298L18.6644 109.972C18.8151 109.755 18.9281 109.501 19.0035 109.284C19.0788 109.067 19.1918 108.886 19.2672 108.669V108.632C19.3049 108.487 19.3802 108.343 19.4179 108.198C19.4556 108.089 19.5309 107.981 19.5686 107.872C19.5686 107.872 19.5686 107.836 19.6063 107.836L19.644 107.872C19.6816 107.872 19.6816 107.908 19.7193 107.908C19.757 107.944 19.7947 107.981 19.87 107.981C19.9077 108.017 19.9831 108.017 20.0207 108.053C20.0961 108.089 20.1338 108.125 20.2091 108.162C20.3598 108.234 20.5105 108.306 20.6612 108.379C20.9627 108.524 21.1887 108.632 21.3771 108.705C21.7539 108.886 21.9423 109.031 21.9799 108.994C22.0176 108.958 21.9046 108.705 21.5278 108.415C21.3394 108.27 21.1134 108.089 20.8873 107.944C20.7743 107.872 20.6236 107.763 20.5105 107.655C20.4352 107.582 20.3222 107.546 20.2468 107.474C20.2091 107.437 20.1714 107.401 20.1338 107.365C20.0584 107.292 20.0207 107.256 19.9454 107.184L19.7947 107.039L19.644 106.967C19.5686 106.93 19.5686 106.93 19.4933 106.894L19.4179 106.858C19.3802 106.858 19.3802 106.894 19.3426 106.894C19.1542 106.967 18.9658 107.22 18.8151 107.474C18.7397 107.618 18.6644 107.727 18.589 107.872C18.5137 107.981 18.476 108.089 18.4006 108.198C18.2876 108.379 18.1746 108.596 18.0992 108.777C17.9862 108.958 17.8731 109.139 17.7601 109.32L17.5341 109.574C17.4587 109.682 17.3833 109.791 17.308 109.9C17.0066 110.334 16.7428 110.769 16.5168 111.24C15.7256 112.833 15.1981 114.462 14.746 115.802C14.746 115.44 14.746 115.042 14.746 114.571C14.8213 112.833 14.4445 110.552 14.3315 108.306C14.2938 107.184 14.2938 106.097 14.4822 105.12C14.5576 104.866 14.5953 104.649 14.6706 104.432C14.746 104.214 14.8213 103.997 14.8967 103.78C15.0097 103.599 15.0851 103.382 15.1981 103.201C15.2358 103.092 15.3111 103.019 15.3488 102.947C15.3865 102.875 15.4241 102.838 15.4618 102.766L15.4995 102.73C15.5372 102.657 15.6125 102.585 15.6502 102.513C15.7256 102.44 15.7632 102.368 15.8386 102.295C15.9516 102.15 16.0647 102.042 16.1777 101.933C16.4037 101.716 16.6298 101.535 16.8182 101.39C16.8559 101.39 16.8559 101.354 16.8936 101.354C17.0819 101.897 17.308 102.585 17.5341 103.237C18.0992 104.866 18.7397 106.496 18.9658 106.46C19.1918 106.423 19.0411 104.866 18.7774 103.237C18.7774 103.164 18.7397 103.056 18.7397 102.983C18.6267 102.114 18.476 101.281 18.363 100.63C18.363 100.521 18.3253 100.448 18.3253 100.34C21.1134 101.39 31.2861 105.337 36.3348 108.632C35.5059 108.56 34.3756 108.415 33.0193 108.234Z" fill="#2B136C"/>
<path d="M12.0269 73.3654L6.88409 72.7919C6.79885 72.8466 6.74203 72.8739 6.65679 72.9285C7.05457 72.9012 7.3103 72.9558 7.33872 73.0377C7.36713 73.2016 6.82727 73.42 6.06011 73.8297C5.69074 74.0208 5.23612 74.2939 4.78151 74.567C4.5542 74.7035 4.29848 74.8674 4.07117 75.0039L3.87227 75.1132C3.84386 75.1405 3.84386 75.1405 3.81544 75.1405L3.78704 75.1678L3.70178 75.2497C3.64495 75.277 3.70178 75.3316 3.70178 75.3589L3.73021 75.4136V75.4409V75.4682C3.75862 75.632 3.78704 75.7686 3.78704 75.9324C3.81545 76.069 3.81544 76.2328 3.84385 76.3694C3.87226 76.5878 3.87227 76.779 3.90068 76.9975C4.01433 77.0794 4.12799 77.1613 4.24164 77.2705C4.41212 77.4344 4.55419 77.5709 4.66785 77.7348C4.69626 77.6529 4.72467 77.5709 4.75308 77.489C4.86674 77.1886 5.00881 76.8063 5.20771 76.424C5.6055 75.6866 6.0601 74.9766 6.37265 75.0586C6.65679 75.1405 6.74202 75.9597 6.74202 76.7517C6.77044 77.134 6.77045 77.5436 6.77045 77.8167C6.77045 77.9532 6.77045 78.0898 6.77045 78.1717C6.77045 78.2536 6.77045 78.3083 6.77045 78.3083C6.77045 78.3356 6.259 78.2809 5.66232 78.199C5.34977 78.1444 5.06564 78.1171 4.86674 78.0625C4.89516 78.1444 4.92357 78.2263 4.92357 78.3083C4.92357 78.3629 4.52578 78.4175 4.01434 78.4175C4.01434 78.4448 4.01434 78.4448 4.01434 78.4721C4.04275 78.636 4.04276 78.7725 4.07117 78.909C4.09958 79.1275 4.12798 79.2641 4.12798 79.2641C4.12798 79.346 3.64496 79.4825 3.04828 79.5644C2.45159 79.6464 1.94015 79.6464 1.91174 79.5371C1.91174 79.5371 1.88333 79.346 1.88333 79.0456C1.88333 78.909 1.88333 78.7452 1.88333 78.5267C1.88333 78.3356 1.88332 78.1444 1.91174 77.8986C1.94015 77.4617 1.96856 76.9701 1.99698 76.424C1.99698 76.2874 1.99699 76.1509 2.0254 76.0143C2.0254 75.8778 2.0254 75.7413 2.0254 75.632V75.6047V75.5501V75.4409L1.99698 75.2497L1.96857 74.8674L1.94016 74.6489C1.91175 74.6762 1.91175 74.7035 1.88333 74.7308C1.8265 74.8674 1.76967 75.0039 1.71284 75.1405C1.68443 75.2224 1.65602 75.277 1.6276 75.3589C1.59919 75.4409 1.57078 75.5228 1.54237 75.6047C1.48554 75.7686 1.42872 75.9324 1.37189 76.0963C0.945692 77.4071 0.718384 78.8544 0.377423 78.8544C0.377423 78.8544 0.377412 78.8544 0.348999 78.8544C0.405826 79.2094 0.462663 79.5918 0.51949 79.9741C0.576317 80.2745 0.60473 80.5749 0.661557 80.8479C0.689971 80.8479 0.689957 80.8753 0.71837 80.8753C0.832024 80.9572 0.974102 81.0391 1.173 81.1756C1.54237 81.4214 2.0254 81.7491 2.50843 82.1041C2.79257 82.3226 3.0767 82.5138 3.304 82.7322C3.98593 82.8142 4.63944 82.978 5.15088 83.1965C5.32136 83.2511 5.435 83.333 5.54866 83.4149C5.6339 83.3603 5.77597 83.333 5.88962 83.3603C7.76491 83.7153 9.58337 83.2238 11.4302 82.8415C11.4302 82.7868 11.4303 82.7322 11.4587 82.6503C11.7428 81.9949 12.3111 81.558 12.9077 81.203C13.2487 80.9845 13.7886 80.9299 14.0727 80.6295C14.3 80.3837 14.4137 79.9468 14.5273 79.6464C14.6126 79.4552 14.783 79.3733 14.9535 79.346L15.0956 78.6633V76.2874L12.0269 73.3654Z" fill="#2C61BF"/>
<path d="M2.11028 74.3212C2.08187 74.3485 2.08186 74.3758 2.05345 74.4305C2.02504 74.5124 1.96821 74.5943 1.91138 74.7035L1.93981 74.922L1.96821 75.3043L1.99662 75.4955V75.6047V75.6593V75.6866C1.99662 75.8232 1.99662 75.9597 1.99662 76.069C1.99662 76.2055 1.99663 76.3421 1.96821 76.4786C1.9398 77.0248 1.91139 77.5163 1.88298 77.9533C1.88298 78.1717 1.85455 78.3902 1.85455 78.5813C1.85455 78.7725 1.85455 78.9364 1.85455 79.1002C1.85455 79.4006 1.88298 79.5645 1.88298 79.5918C1.88298 79.701 2.39442 79.7283 3.01951 79.6191C3.6162 79.5371 4.12763 79.3733 4.09922 79.3187C4.09922 79.3187 4.0708 79.1821 4.04239 78.9637C4.01398 78.8544 4.01397 78.6906 3.98556 78.5267C3.98556 78.4994 3.98556 78.4994 3.98556 78.4721C4.52542 78.4721 4.92321 78.4175 4.89479 78.3629C4.89479 78.281 4.86638 78.199 4.83796 78.1171C5.03686 78.1717 5.32101 78.199 5.63355 78.2536C6.23024 78.3356 6.74167 78.3902 6.74167 78.3629C6.74167 78.3629 6.74167 78.3083 6.74167 78.2263C6.74167 78.1444 6.74167 78.0079 6.74167 77.8713C6.74167 77.5709 6.74167 77.1886 6.71326 76.8063C6.71326 76.0417 6.62802 75.1951 6.34389 75.1132C6.05976 75.0312 5.57672 75.714 5.17893 76.4786C4.98003 76.8609 4.83797 77.2432 4.72432 77.5436C4.69591 77.6529 4.6675 77.7075 4.63908 77.7894C4.52543 77.6255 4.38336 77.489 4.21288 77.3252C4.09923 77.2159 3.98557 77.134 3.87192 77.0521C3.8435 76.8609 3.8435 76.6424 3.81509 76.424C3.78667 76.2874 3.78667 76.1509 3.75826 75.987C3.72984 75.8505 3.70143 75.6866 3.70143 75.5228V75.4955C3.70143 75.4955 3.70143 75.4955 3.70143 75.4682L3.67302 75.4136C3.67302 75.3863 3.61619 75.3043 3.67302 75.3043L3.75826 75.2224L3.78668 75.1951C3.78668 75.1951 3.78667 75.1951 3.84349 75.1678L4.04239 75.0586C4.29811 74.922 4.52542 74.7582 4.75273 74.6216C5.23576 74.3485 5.66196 74.0754 6.03133 73.8843C6.79849 73.4747 7.33835 73.2289 7.30994 73.0923C7.30994 73.0104 7.05423 72.9558 6.62802 72.9831C6.3723 73.0104 6.05975 73.0377 5.71879 73.1197C5.26418 73.2016 4.72431 73.3654 4.18446 73.5566C3.90032 73.6658 3.64461 73.7477 3.36048 73.857L3.16158 73.9389L2.84902 74.0754L2.45125 74.2393L2.11028 74.3212Z" fill="#3894CD"/>
<path d="M15.6069 77.6529L14.8682 75.4955L12.2257 72.7919L5.77589 72L1.25815 74.0481L1.20132 74.4031C1.17291 74.4851 1.11609 74.5397 1.08768 74.6216C0.974025 74.8401 0.860357 75.1132 0.71829 75.4136C0.63305 75.5774 0.604643 75.7413 0.547817 75.9324C0.49099 76.1236 0.434163 76.3147 0.40575 76.5059C0.320509 76.9155 0.235262 77.3252 0.150022 77.8167C0.0931949 78.0625 0.0932053 78.3083 0.0363785 78.554C0.0363785 78.7998 -0.0204587 79.0729 0.00795468 79.346C0.00795468 79.8102 0.0647815 80.3018 0.292089 80.7933V80.8752L0.348919 80.9026C0.377333 80.9572 0.377336 80.9845 0.40575 81.0391C0.689884 81.5853 1.17291 82.0222 1.68435 82.3772C2.19579 82.7049 2.70724 82.9507 3.24709 83.1965C3.75853 83.4149 4.26998 83.6334 4.78142 83.7973C5.80431 84.1796 6.82718 84.4527 7.79324 84.48C8.02055 84.48 8.24786 84.48 8.47517 84.48C8.67406 84.4527 8.87295 84.4254 9.07184 84.398C9.27074 84.3707 9.44121 84.3434 9.58328 84.3161C9.75376 84.2888 9.89583 84.2615 10.0095 84.2342C10.5209 84.125 10.8051 84.0157 10.8335 84.0157C11.0324 83.9611 11.0608 83.6334 10.9471 83.3057L14.5556 80.7114L15.6069 77.6529ZM14.0442 79.5098C13.9305 79.4552 13.7601 79.4006 13.5896 79.346C13.4759 79.2914 13.3339 79.2641 13.1918 79.2094C13.0497 79.1548 12.9077 79.1002 12.7656 79.0456C12.4815 78.9363 12.1405 78.7998 11.8279 78.6633C11.5154 78.5267 11.1744 78.4175 10.8619 78.3083C10.7198 78.2536 10.5493 78.199 10.4073 78.1444C10.3789 78.1444 10.3505 78.1171 10.322 78.1171L14.2999 78.0352C14.3567 78.0625 14.3851 78.0625 14.4136 78.0625C14.4136 78.0625 14.442 78.0625 14.442 78.0352H14.5556L14.0442 79.5098ZM2.96296 74.9766C3.38916 74.8401 4.04267 74.7035 4.63936 74.2939C4.78142 74.1847 4.92348 74.0754 5.03713 73.9662C5.03713 73.9662 5.1792 73.9116 5.32127 73.7477C5.37809 73.6931 5.43493 73.6112 5.49176 73.5293C5.74748 73.5293 6.20209 73.5293 6.79877 73.5293C7.708 73.5293 8.87295 73.5293 9.92425 73.8024C10.4357 73.9389 10.9187 74.1847 11.3165 74.5124C11.5154 74.6489 11.6859 74.8401 11.8279 75.0312C11.97 75.1951 12.1121 75.3862 12.2257 75.5501C12.311 75.6866 12.3962 75.8232 12.453 75.9324C12.453 76.0963 12.4246 76.2601 12.3962 76.3694C12.3678 76.5332 12.2826 76.6424 12.2541 76.7517C12.0268 76.7244 11.7711 76.7244 11.5438 76.6971C10.9187 76.6971 10.2652 76.8336 9.66852 77.0248C9.55486 77.0521 9.44122 77.1067 9.32757 77.134C9.27074 77.0794 9.15709 77.0248 9.04344 76.9155C8.92978 76.8063 8.78771 76.6697 8.64564 76.5059L8.58881 76.4513L8.5604 76.424L8.53198 76.3967C8.50357 76.3694 8.47517 76.342 8.47517 76.342C8.36151 76.4786 9.01502 75.5501 9.78218 75.1132C9.78218 75.0859 9.72534 75.0585 9.66852 75.0312L9.52645 74.9493C9.44121 74.8947 9.35598 74.8674 9.27074 74.8128C9.10026 74.7308 8.95818 74.6216 8.81612 74.5397C8.75929 74.5124 8.70247 74.4578 8.64564 74.4305L8.53198 74.3485C8.44674 74.2939 8.38992 74.2666 8.30468 74.212C8.02054 74.0481 7.79325 74.0208 7.76483 74.0754C7.73642 74.1301 7.87849 74.2666 8.04897 74.4851C8.10579 74.5397 8.16261 74.6216 8.21944 74.6762L8.30468 74.7855C8.33309 74.8128 8.33309 74.8401 8.36151 74.8674C8.38992 74.922 8.41833 74.9493 8.44674 75.0039C8.47516 75.0312 8.47517 75.0312 8.47517 75.0585L8.50357 75.0859C8.50357 75.0859 8.53199 75.1132 8.50357 75.1132C8.41833 75.1405 8.3615 75.1678 8.30468 75.1951L8.21944 75.2497L8.19103 75.277L8.10578 75.3589L7.96371 75.4955L7.79324 75.632C7.56593 75.7686 7.33862 75.9051 7.0829 76.0143C7.11132 76.0963 7.16814 76.2328 7.22497 76.3147C7.2818 76.424 7.33862 76.5332 7.36704 76.6424C7.42386 76.7517 7.48068 76.8609 7.53751 76.9428C7.56592 77.0248 7.62276 77.0794 7.65117 77.1613C7.73641 77.2978 7.82166 77.4344 7.9069 77.5436C7.67959 77.5709 7.53753 77.5709 7.33863 77.5436C7.13974 77.5163 6.94084 77.4344 6.71353 77.3798C6.48623 77.2978 6.20209 77.2432 5.94637 77.2159C5.69065 77.1886 5.43492 77.2432 5.23603 77.2978C5.12238 77.3251 5.03714 77.3525 4.9519 77.4071C4.92348 77.3525 4.89506 77.2978 4.83824 77.2432C4.69617 77.0521 4.55411 76.8063 4.38363 76.5605C4.21315 76.342 3.98584 76.0143 3.95743 75.9597C3.9006 75.9051 3.84378 75.8232 3.78695 75.7686C3.81537 75.7413 3.84377 75.6866 3.9006 75.632C3.92901 75.6047 4.07108 75.4955 4.15632 75.4136C4.26998 75.3316 4.35521 75.277 4.46887 75.1951C4.83824 74.922 5.12237 74.8128 5.12237 74.7308C5.12237 74.6762 5.03714 74.6489 4.86666 74.6489C4.72459 74.6489 4.49728 74.6762 4.24156 74.7308C4.12791 74.7582 3.98583 74.8128 3.84377 74.8674C3.7017 74.922 3.58806 74.9493 3.36075 75.0859C3.16186 75.1951 2.90613 75.3043 2.67882 75.4409C2.76406 75.6593 2.84931 75.8505 2.93455 76.069C3.16186 76.5878 3.24709 76.779 3.38916 77.0794C3.53123 77.3525 3.64488 77.5982 3.73012 77.8167C3.84378 78.0352 3.9006 78.2263 3.95743 78.3356C3.55964 78.554 3.10502 78.8544 2.67882 79.1275C2.45152 79.2914 2.19579 79.4279 1.99689 79.5098C1.96848 79.5371 1.91166 79.5371 1.88325 79.5644C1.96849 79.4006 2.05372 79.2094 2.13896 79.0183C2.28103 78.636 2.36627 78.2263 2.4231 77.7894C2.53675 76.9428 2.53676 76.1236 2.53676 75.5228C2.53676 75.3862 2.53676 75.2497 2.53676 75.1132C2.67882 75.0585 2.82089 75.0039 2.96296 74.9766ZM4.3268 79.701C4.3268 79.701 4.3268 79.7283 4.3268 79.701V79.8102C4.3268 79.8648 4.32681 79.9195 4.35522 79.9741C4.35522 80.0833 4.38363 80.1925 4.38363 80.3291C4.41204 80.5475 4.41205 80.8206 4.44046 81.0391C4.55411 81.0118 4.69617 80.9845 4.83824 80.9572C4.9803 80.9299 5.12238 80.9026 5.23603 80.9026H5.4065H5.49176H5.54857C5.6054 80.9026 5.66223 80.9026 5.74747 80.9026C5.88954 80.9026 6.03161 80.9299 6.20209 80.9299C6.23051 80.9299 6.28733 80.9026 6.34416 80.9026C6.37257 80.9026 6.37256 80.9572 6.40097 80.9572L6.4294 81.0118C6.4294 81.0391 6.42939 81.0391 6.4578 81.0937C6.51463 81.2849 6.59987 81.4487 6.68511 81.6126C6.77035 81.7764 6.82719 81.9403 6.91243 82.1041C6.99767 82.2407 7.0829 82.3772 7.16814 82.5138C7.31021 82.7595 7.48069 82.9507 7.59434 83.0872C7.62275 83.1145 7.65116 83.1419 7.67958 83.1692L7.4807 83.1965C7.08291 82.8688 6.34416 82.4045 5.577 81.9676C5.00873 81.6126 4.44046 81.2303 4.01426 80.9845C3.81536 80.8753 3.64488 80.766 3.53123 80.6841L4.3268 79.701ZM7.82165 83.1145C7.82165 83.0599 7.79324 83.0053 7.79324 82.9507C7.76483 82.7868 7.65117 82.5684 7.59434 82.2953C7.56593 82.1587 7.5091 82.0222 7.45227 81.8584C7.39545 81.6945 7.36703 81.5307 7.31021 81.3668C7.25338 81.203 7.22497 81.0118 7.16814 80.8479L7.0545 80.411C6.99767 80.2472 6.96926 80.0833 6.91243 79.9468C6.68512 79.9741 6.4294 80.0014 6.20209 80.0014C6.08844 79.9741 5.97477 79.9468 5.83271 79.9195C5.43492 79.8375 5.52016 79.8375 5.46333 79.8375C5.46333 79.8102 5.46335 79.7829 5.49176 79.7829V79.7556C5.49176 79.7556 5.49176 79.7556 5.49176 79.7283V79.6464C5.49176 79.4279 5.49176 79.2094 5.49176 79.0456C5.49176 78.9637 5.49176 78.8817 5.49176 78.8271L8.27627 79.1548C8.3331 79.5098 8.61723 80.3018 8.92978 81.0664C9.12867 81.5853 9.35598 82.0768 9.55487 82.4591C9.58329 82.5411 9.6401 82.623 9.66852 82.7049L7.82165 83.1145ZM10.663 81.7764L10.6346 81.8037C10.4073 81.476 10.1515 81.0664 9.86742 80.6568C9.38439 79.9468 8.87295 79.2914 8.58881 79.0456L9.44121 78.3083C9.55487 78.4175 9.69695 78.554 9.89584 78.7452C10.2652 79.1002 10.7766 79.6191 11.0608 80.1652C11.2028 80.4383 11.2881 80.7114 11.2597 80.9299C11.2597 81.1483 11.1744 81.3122 11.0608 81.4487C10.9187 81.5853 10.7766 81.7218 10.663 81.7764ZM14.1294 76.1236C14.1294 76.0963 14.1579 76.0963 14.1579 76.0963L14.1863 76.1509C14.1578 76.1509 14.1578 76.1509 14.1294 76.1236ZM11.3165 73.5566L11.3733 73.5293C11.3449 73.5566 11.3449 73.5566 11.3165 73.5566Z" fill="#2B136C"/>
</svg>
