<svg width="360" height="224" viewBox="0 0 360 224" fill="none" xmlns="http://www.w3.org/2000/svg">
<g clip-path="url(#clip0_7_27944)">
<g opacity="0.1">
<path d="M112.974 23.8964C112.974 23.8964 161.175 -2.99707 238.825 20.6994C316.476 44.3959 388.897 64.289 391.201 103.439C393.538 142.625 390.973 202.591 461.918 196.759C495.814 188.461 479.092 122.186 479.092 122.186C479.092 122.186 476.235 105.306 490.677 107.136C505.118 108.966 537.737 113.979 499.828 155.369C461.918 196.759 525.255 256.403 568.659 170.607C492.042 222.194 532.477 150.244 536.144 141.384C555.963 92.6696 489.415 92.12 489.415 92.12C446.637 95.6843 467.545 144.172 467.545 144.172C482.656 203.147 406.821 178.539 409.764 120.545C409.471 1.05108 245.82 8.57066 191.187 7.93675C136.588 7.30472 134.095 16.8558 97.5084 30.7216C60.9214 44.5875 23.0447 43.9581 1.4217 40.4836C-20.2012 37.0091 -39.0957 41.9407 -39.0957 41.9407" fill="#2FBAF5"/>
</g>
<g opacity="0.3">
<path d="M-39.0612 41.9426C-39.0593 41.9079 -38.4248 41.6984 -37.1613 41.3838C-35.8978 41.0692 -34.0054 40.6494 -31.5243 40.2267C-29.0432 39.804 -25.9388 39.3803 -22.2533 39.0928C-18.5677 38.8052 -14.3355 38.6519 -9.56616 38.8065C-8.39247 38.8703 -7.14785 38.903 -5.90706 39.0053C-4.66622 39.1076 -3.35638 39.2136 -2.04837 39.3543C0.563817 39.7053 3.27961 40.0619 6.13344 40.426C11.8084 41.1177 17.9818 41.5576 24.6229 41.6745C31.2639 41.7915 38.3362 41.6182 45.7801 40.9774C53.2221 40.3713 61.0338 39.3323 69.0867 37.6792C77.1395 36.0261 85.4661 33.7956 93.8361 30.766C102.241 27.7383 110.717 24.0177 119.453 19.9975C123.819 18.0048 128.259 15.9463 132.927 14.1442C137.595 12.3421 142.453 10.8639 147.467 9.7077C157.521 7.53621 168.02 6.74774 178.63 6.45315C179.29 6.41929 179.948 6.42019 180.642 6.38822L181.647 6.37312L182.652 6.35804C184.002 6.36171 185.317 6.36349 186.669 6.33242C188.019 6.33607 189.369 6.33976 190.721 6.30869C192.071 6.31234 193.421 6.316 194.771 6.31967C200.172 6.33433 205.608 6.31613 211.112 6.33643C222.121 6.34225 233.296 6.49645 244.659 7.0093C255.987 7.52026 267.471 8.35327 278.993 9.74589C290.516 11.1385 302.116 13.0231 313.601 15.7378C325.087 18.4524 336.494 21.9642 347.487 26.7427C358.444 31.5193 369.024 37.5297 378.333 45.2481C382.97 49.1237 387.307 53.4012 391.174 58.0713C395.04 62.7413 398.398 67.8367 401.222 73.2166C406.869 83.9765 410.172 95.8285 411.398 107.672L411.545 108.795C411.593 109.181 411.643 109.532 411.657 109.916L411.813 112.155L411.968 114.393C412.016 114.779 411.997 115.126 412.011 115.51L412.054 116.628L412.106 118.861L412.149 119.978L412.153 120.536L412.125 121.057L412.077 123.214L412.102 125.306C412.283 130.891 413.195 136.411 414.918 141.662C418.331 152.126 424.888 161.437 433.368 167.856C435.496 169.47 437.704 170.879 440.064 172.052C442.389 173.224 444.797 174.156 447.258 174.743C447.873 174.881 448.489 175.019 449.107 175.122C449.724 175.225 450.344 175.294 450.963 175.362C451.272 175.414 451.584 175.396 451.895 175.413C452.206 175.43 452.516 175.447 452.795 175.427L453.696 175.406L454.599 175.351C456.965 175.131 459.187 174.381 461.021 173.121C461.922 172.473 462.759 171.718 463.463 170.885C463.646 170.686 463.8 170.415 463.949 170.214C464.024 170.114 464.135 169.98 464.21 169.88L464.437 169.509C464.589 169.273 464.74 169.038 464.859 168.765L465.247 167.985C465.399 167.749 465.485 167.44 465.601 167.203C465.72 166.931 465.839 166.658 465.923 166.384L466.177 165.527L466.303 165.116L466.397 164.668L466.582 163.807C466.666 163.533 466.683 163.22 466.735 162.909L466.887 162.011L466.971 161.11C467.207 158.684 467.101 156.169 466.855 153.682C466.786 153.051 466.714 152.455 466.61 151.822C466.506 151.189 466.4 150.591 466.33 149.96C466.226 149.327 466.086 148.727 465.98 148.129C465.876 147.496 465.735 146.896 465.56 146.295L465.333 145.376L465.218 144.952C465.22 144.917 465.22 144.917 465.222 144.882L465.191 144.811C464.914 144.169 464.672 143.529 464.462 142.925C464.011 141.681 463.561 140.402 463.18 139.127C462.384 136.575 461.726 134.03 461.208 131.459C460.172 126.315 459.663 121.026 460.122 115.755C460.263 114.439 460.438 113.124 460.682 111.813C460.961 110.504 461.307 109.234 461.724 107.933C462.589 105.401 463.795 102.958 465.402 100.781C466.189 99.6735 467.109 98.6781 468.025 97.7523C468.975 96.8283 470.025 95.9794 471.07 95.2348C473.228 93.7492 475.541 92.5857 477.907 91.7387C480.273 90.8916 482.66 90.2896 485.035 89.896C486.222 89.7166 487.409 89.5372 488.592 89.4272L489.045 89.3821C489.185 89.3549 489.497 89.337 489.739 89.3502L490.638 89.3642C491.225 89.3961 491.812 89.4279 492.364 89.458C496.954 89.7421 501.39 90.2968 505.74 91.1603C510.09 92.0238 514.287 93.1578 518.292 94.6298C522.296 96.1365 526.14 98.0179 529.61 100.436C533.079 102.855 536.136 105.843 538.37 109.344C539.485 111.112 540.388 112.973 541.08 114.892C541.772 116.812 542.184 118.785 542.426 120.715C542.667 122.644 542.736 124.564 542.634 126.44L542.596 127.135C542.583 127.378 542.572 127.587 542.524 127.828C542.465 128.278 542.44 128.729 542.381 129.179C542.322 129.629 542.263 130.079 542.17 130.527L542.065 131.183L541.925 131.837C541.251 135.32 540.245 138.541 539.076 141.578C538.795 142.295 538.437 143.146 538.121 143.861C537.807 144.541 537.457 145.253 537.143 145.933C536.517 147.258 535.891 148.583 535.267 149.873C534.056 152.42 532.919 154.867 531.891 157.216C529.835 161.912 528.182 166.213 527.039 170.053C526.863 170.741 526.689 171.393 526.477 172.113C526.429 172.355 526.136 173.279 525.812 174.795C525.722 175.173 525.63 175.586 525.569 176.071C525.476 176.519 525.413 177.038 525.35 177.557C525.224 178.596 525.124 179.81 525.161 181.031C525.233 182.255 525.457 183.243 525.731 183.92C526.041 184.598 526.333 184.963 526.665 185.225C527.294 185.747 527.981 185.854 528.151 185.898C528.391 185.946 528.631 185.993 528.905 186.043C529.181 186.058 529.421 186.106 529.732 186.123C530.804 186.146 532.023 186.004 533.283 185.758C533.599 185.671 533.948 185.62 534.265 185.533C534.579 185.48 534.932 185.36 535.283 185.275C535.95 185.102 536.655 184.862 537.361 184.621C540.183 183.659 543.198 182.325 546.332 180.718C549.464 179.146 552.752 177.269 556.152 175.224C556.366 175.096 556.581 174.968 556.796 174.841L557.118 174.649L557.369 174.489L557.691 174.297C558.515 173.784 559.339 173.272 560.165 172.724C560.989 172.211 561.815 171.664 562.674 171.153L563.32 170.735L564.002 170.285C564.468 169.996 564.899 169.706 565.367 169.383C568.922 167.033 572.587 164.584 576.32 162.138C574.97 164.678 573.617 167.288 572.263 169.897C571.57 171.184 570.875 172.505 570.182 173.791C569.836 174.434 569.487 175.112 569.141 175.755C568.794 176.399 568.444 177.111 568.101 177.685C567.377 178.9 566.688 180.117 565.962 181.367C565.618 181.975 565.238 182.582 564.894 183.19C564.666 183.561 564.44 183.897 564.212 184.268C563.758 184.975 563.268 185.715 562.812 186.457C562.324 187.162 561.833 187.902 561.309 188.64C561.046 189.009 560.818 189.38 560.556 189.749C560.293 190.118 560.033 190.452 559.771 190.821C559.248 191.525 558.723 192.263 558.129 192.997C557.572 193.698 556.978 194.433 556.42 195.134C555.861 195.87 555.236 196.533 554.608 197.266C552.137 200.058 549.46 202.805 546.448 205.359C543.435 207.913 540.123 210.242 536.485 212.204C535.592 212.713 534.634 213.149 533.675 213.585C533.213 213.804 532.719 213.986 532.222 214.203L531.478 214.511C531.231 214.602 530.984 214.693 530.736 214.784C530.242 214.966 529.713 215.147 529.22 215.294C528.725 215.476 528.2 215.587 527.673 215.733C526.651 216.06 525.568 216.245 524.482 216.465C522.316 216.835 520.122 217.064 517.873 217.047C515.623 217.029 513.352 216.766 511.129 216.262C506.647 215.287 502.328 213.206 498.646 210.253C494.927 207.333 491.844 203.542 489.656 199.207C487.468 194.872 486.171 190.063 485.885 185.134C485.564 180.204 486.358 175.16 487.932 170.402C489.575 165.648 492.033 161.183 495.123 157.204C495.531 156.704 495.905 156.201 496.311 155.736C496.717 155.27 497.125 154.769 497.566 154.305L498.192 153.608L498.782 152.943L499.962 151.613C501.549 149.818 503.1 148.021 504.587 146.15C506.073 144.28 507.493 142.371 508.812 140.387C510.132 138.403 511.384 136.38 512.435 134.242C512.977 133.191 513.415 132.135 513.855 131.044C514.261 129.951 514.596 128.889 514.863 127.789C515.362 125.621 515.446 123.43 514.931 121.451C514.415 119.472 513.297 117.738 511.678 116.326C510.06 114.879 508.009 113.758 505.839 112.908C503.637 112.022 501.283 111.371 498.853 110.856C496.423 110.341 493.951 109.962 491.408 109.615C491.099 109.564 490.756 109.51 490.479 109.495L489.653 109.415C489.378 109.366 489.1 109.385 488.822 109.405C488.684 109.397 488.546 109.39 488.408 109.382L488.027 109.397C486.983 109.479 486.002 109.705 485.183 110.113C484.365 110.522 483.675 111.111 483.146 111.919C482.618 112.726 482.185 113.679 481.92 114.744C481.654 115.81 481.488 116.951 481.458 118.134C481.426 118.724 481.429 119.317 481.466 119.911C481.503 120.506 481.54 121.1 481.613 121.661L482.002 123.425L482.414 125.398C482.689 126.703 482.928 128.04 483.167 129.377C484.125 134.69 484.837 140.06 485.269 145.484C485.702 150.908 485.82 156.385 485.52 161.909C485.185 167.431 484.398 172.998 482.65 178.408C482.229 179.779 481.707 181.109 481.152 182.403L480.717 183.39C480.56 183.73 480.405 184.035 480.248 184.375L479.747 185.324L479.21 186.27C479.021 186.573 478.829 186.911 478.64 187.215C478.45 187.518 478.261 187.821 478.037 188.123C477.623 188.727 477.209 189.332 476.728 189.898C476.282 190.466 475.767 191.031 475.288 191.562C475.031 191.827 474.774 192.092 474.517 192.357L474.115 192.753L473.715 193.114C472.62 194.135 471.398 194.974 470.142 195.777L469.176 196.352C468.854 196.544 468.5 196.699 468.18 196.855C467.537 197.204 466.83 197.479 466.157 197.756C465.802 197.911 465.452 197.996 465.133 198.118C464.781 198.239 464.428 198.359 464.077 198.444L463.023 198.735L462.635 198.854C462.493 198.916 462.323 198.872 462.217 198.901L461.661 198.94C460.271 199.039 458.915 199.14 457.529 199.169C454.787 199.298 451.983 199.285 449.219 199.17C446.456 199.055 443.666 198.799 440.915 198.44C435.384 197.652 429.885 196.273 424.713 193.971C419.539 191.704 414.726 188.516 410.65 184.531C406.573 180.546 403.298 175.839 400.8 170.825C398.268 165.809 396.444 160.519 395.072 155.183C393.7 149.847 392.783 144.431 392.107 139.028C390.755 128.223 390.441 117.439 389.906 106.888L389.807 104.896C389.773 104.232 389.74 103.569 389.671 102.938C389.636 102.309 389.566 101.678 389.46 101.079L389.336 100.167L389.144 99.2504C388.653 96.8196 387.847 94.4413 386.792 92.1888C384.685 87.6492 381.544 83.6458 377.999 80.0733C374.419 76.499 370.468 73.3924 366.295 70.5524C362.121 67.7123 357.791 65.2122 353.419 62.8492C344.601 58.1889 335.569 54.2835 326.553 50.7274C317.571 47.1732 308.603 44.003 299.798 41.0159C282.187 35.0764 265.192 29.9021 249.257 24.9596C247.249 24.3279 245.273 23.7327 243.332 23.1394C241.356 22.5443 239.417 21.9162 237.508 21.3596C235.6 20.8029 233.691 20.2463 231.783 19.6896C229.87 19.2024 227.994 18.6823 226.117 18.197C218.601 16.3253 211.305 14.8836 204.299 13.8409C197.258 12.7963 190.504 12.2202 184.081 11.9061C177.657 11.6268 171.599 11.6112 165.938 11.9308C154.584 12.5334 144.84 14.0946 137.019 15.9345C133.092 16.8361 129.647 17.7988 126.687 18.7529C123.729 19.6723 121.256 20.5833 119.241 21.3449C117.261 22.1084 115.771 22.7592 114.744 23.1912C113.751 23.625 113.218 23.8748 113.22 23.8401C113.187 23.8035 113.689 23.4823 114.652 22.9771C115.614 22.4719 117.107 21.7516 119.058 20.882C121.043 20.0491 123.485 19.0668 126.449 18.0431C129.413 17.0195 132.862 15.9874 136.794 14.9815C144.624 12.9679 154.412 11.2349 165.845 10.4623C171.544 10.0751 177.676 9.99018 184.139 10.2019C190.602 10.4137 197.428 10.9588 204.541 11.9376C211.655 12.9165 219.024 14.2925 226.61 16.1332C228.487 16.6185 230.4 17.1057 232.349 17.56C234.257 18.1167 236.202 18.6405 238.145 19.199C240.088 19.7576 242.029 20.3508 244.005 20.946C245.981 21.5412 247.957 22.1363 249.932 22.7315C265.909 27.5368 282.946 32.5741 300.669 38.3802C309.512 41.2997 318.551 44.4389 327.64 47.9293C336.727 51.4544 345.899 55.3326 354.887 60.037C359.365 62.3709 363.83 64.948 368.139 67.8302C372.449 70.7125 376.601 73.9347 380.381 77.6592C382.286 79.5397 384.047 81.5518 385.661 83.6953C387.274 85.8735 388.741 88.1832 389.921 90.6863C391.102 93.1547 391.996 95.8165 392.576 98.531L392.797 99.5535L392.95 100.572C393.05 101.275 393.118 101.94 393.184 102.641C393.249 103.341 393.283 104.005 393.316 104.669L393.415 106.66C393.981 117.283 394.406 127.934 395.769 138.53C396.452 143.794 397.377 149.071 398.726 154.196C400.075 159.322 401.845 164.331 404.222 169.025C406.6 173.684 409.653 178.031 413.405 181.614C417.121 185.231 421.534 188.119 426.303 190.19C431.072 192.261 436.23 193.552 441.452 194.288C444.065 194.639 446.719 194.853 449.344 194.961C452.006 195.036 454.637 195.039 457.31 194.906C458.628 194.873 459.983 194.772 461.305 194.67L461.757 194.625C461.792 194.627 461.826 194.629 461.826 194.629L461.932 194.6L462.846 194.336C463.162 194.248 463.446 194.124 463.728 194.035C464.012 193.911 464.326 193.859 464.61 193.735C465.177 193.487 465.743 193.273 466.278 192.989C466.563 192.83 466.845 192.741 467.096 192.58L467.884 192.101C468.925 191.425 469.931 190.748 470.808 189.89L471.171 189.596L471.5 189.266C471.72 189.034 471.939 188.837 472.159 188.605C472.565 188.139 473.006 187.675 473.378 187.207C473.784 186.742 474.125 186.203 474.498 185.7C474.686 185.432 474.839 185.161 474.99 184.926C475.144 184.655 475.331 184.387 475.484 184.116L475.944 183.305L476.371 182.457C476.524 182.187 476.645 181.88 476.798 181.609L477.192 180.725C477.672 179.531 478.153 178.338 478.531 177.104C480.08 172.171 480.814 166.949 481.099 161.703C481.384 156.458 481.222 151.153 480.781 145.902C480.339 140.652 479.619 135.421 478.686 130.283C478.446 128.981 478.203 127.713 477.926 126.444L477.51 124.54L477.284 123.587L477.171 123.127L477.115 122.88C477.088 122.74 477.061 122.599 477.036 122.423C476.94 121.651 476.874 120.951 476.844 120.218C476.815 119.484 476.82 118.753 476.823 118.056C476.868 116.595 477.053 115.107 477.41 113.628C477.767 112.149 478.403 110.651 479.309 109.271C480.215 107.892 481.56 106.711 483.057 105.921C486.085 104.343 489.436 104.491 492.046 104.876C497.238 105.542 502.522 106.421 507.642 108.407C510.183 109.416 512.708 110.738 514.923 112.67C516.013 113.635 517.025 114.77 517.856 116.035C518.688 117.299 519.337 118.729 519.706 120.212C520.076 121.696 520.236 123.203 520.228 124.631C520.218 126.093 520.002 127.51 519.72 128.889C519.403 130.265 518.986 131.567 518.536 132.831C518.052 134.094 517.535 135.321 516.951 136.508C515.784 138.884 514.453 141.077 513.055 143.231C511.624 145.348 510.163 147.394 508.601 149.365C507.04 151.336 505.448 153.235 503.826 155.064C503.419 155.529 503.013 155.995 502.609 156.426L501.983 157.124L501.427 157.79C501.057 158.223 500.688 158.656 500.318 159.089C499.983 159.524 499.611 159.991 499.276 160.426C496.517 164.039 494.329 167.997 492.925 172.172C491.556 176.348 490.905 180.668 491.195 184.9C491.45 189.13 492.577 193.233 494.456 196.889C496.3 200.544 498.966 203.72 502.054 206.152C505.142 208.585 508.719 210.278 512.448 211.107C514.295 211.521 516.188 211.729 518.091 211.762C519.96 211.759 521.839 211.583 523.692 211.265C524.602 211.071 525.513 210.877 526.428 210.613C526.886 210.463 527.34 210.383 527.764 210.232C528.188 210.081 528.646 209.932 529.069 209.781C529.28 209.722 529.493 209.629 529.706 209.536L530.344 209.257C530.77 209.072 531.194 208.92 531.621 208.7C532.439 208.291 533.291 207.919 534.111 207.476C537.356 205.736 540.346 203.599 543.105 201.24C545.865 198.881 548.357 196.334 550.647 193.705C551.202 193.039 551.792 192.374 552.348 191.707C552.903 191.041 553.426 190.337 553.947 189.669C554.468 189 554.957 188.295 555.478 187.626C555.738 187.292 555.964 186.956 556.227 186.587C556.453 186.251 556.715 185.882 556.941 185.546C557.43 184.84 557.882 184.168 558.37 183.463C558.824 182.756 559.278 182.049 559.695 181.375C559.921 181.038 560.149 180.668 560.375 180.331L560.565 180.028C560.678 179.86 560.793 179.657 560.871 179.487C560.948 179.352 560.911 179.385 560.948 179.352L560.984 179.319L561.022 179.252L561.061 179.184L561.063 179.149C561.063 179.149 561.064 179.115 561.063 179.149C560.99 179.215 560.919 179.246 560.846 179.312L560.811 179.31L560.775 179.343L560.631 179.439L560.488 179.536C560.129 179.761 559.771 179.985 559.378 180.208C555.905 182.319 552.51 184.26 549.2 185.926C545.889 187.593 542.694 189.057 539.517 190.174C536.343 191.256 533.181 192.094 529.86 192.053C529.409 192.064 528.962 192.005 528.479 191.978C528.03 191.954 527.518 191.822 527.038 191.726C526.868 191.682 526.459 191.555 525.813 191.346C525.508 191.225 525.103 191.028 524.698 190.832C524.495 190.751 524.262 190.565 524.028 190.412C523.794 190.26 523.56 190.108 523.295 189.885C522.299 189.099 521.328 187.862 520.682 186.363C520.037 184.865 519.713 183.174 519.635 181.428C519.557 179.682 519.707 178.191 519.846 176.91C519.949 176.288 520.015 175.7 520.115 175.147C520.214 174.595 520.309 174.113 520.401 173.7C520.773 171.943 521.07 170.948 521.118 170.707C521.332 169.952 521.546 169.197 521.793 168.479C523.057 164.332 524.788 159.861 526.92 155.029C527.986 152.613 529.162 150.099 530.375 147.517C530.999 146.226 531.625 144.902 532.286 143.579C532.598 142.933 532.912 142.254 533.225 141.574C533.539 140.894 533.777 140.349 534.058 139.633C535.141 136.904 536.061 133.993 536.641 130.958L536.742 130.371L536.844 129.784C536.899 129.404 536.954 129.024 537.009 128.643C537.065 128.263 537.085 127.881 537.143 127.466C537.154 127.258 537.198 127.086 537.209 126.877L537.241 126.287C537.326 124.723 537.273 123.153 537.082 121.574C536.891 119.996 536.559 118.445 536.019 116.917C535.479 115.39 534.763 113.922 533.87 112.515C532.084 109.7 529.587 107.23 526.62 105.117C523.653 103.005 520.214 101.32 516.55 99.9358C512.851 98.5502 508.929 97.466 504.853 96.6522C500.777 95.8384 496.514 95.2932 492.202 94.9892C491.65 94.9592 491.132 94.9311 490.58 94.9011L489.784 94.8927C489.749 94.8908 489.784 94.8927 489.644 94.9199L489.261 94.9688C488.183 95.0496 487.136 95.2018 486.087 95.3887C483.991 95.7278 481.886 96.2406 479.908 96.9694C477.929 97.6981 476.009 98.639 474.284 99.7997C472.592 100.997 471.059 102.447 469.789 104.155C467.251 107.536 465.874 111.852 465.452 116.428C465.03 121.004 465.46 125.836 466.377 130.625C466.836 133.019 467.467 135.423 468.169 137.795C468.519 138.999 468.94 140.172 469.361 141.344C469.572 141.913 469.782 142.517 470.029 143.053L470.183 143.41C470.245 143.553 470.272 143.693 470.299 143.834L470.408 144.363L470.632 145.351C470.805 145.987 470.942 146.657 471.078 147.326C471.215 147.996 471.352 148.665 471.454 149.333C471.556 150 471.658 150.668 471.759 151.37C471.861 152.038 471.927 152.738 471.994 153.404C472.261 156.136 472.35 158.963 472.09 161.841L471.997 162.916L471.835 163.988C471.782 164.333 471.726 164.713 471.638 165.057L471.373 166.123L471.239 166.673L471.071 167.221L470.736 168.283C470.614 168.625 470.455 169 470.332 169.342C470.175 169.681 470.051 170.058 469.894 170.398L469.389 171.416C469.197 171.754 469.006 172.092 468.78 172.428L468.475 172.934C468.362 173.102 468.251 173.235 468.138 173.404C467.914 173.705 467.688 174.041 467.429 174.341C466.429 175.541 465.228 176.625 463.932 177.53C461.307 179.339 458.209 180.286 455.183 180.539L454.036 180.616L452.893 180.624C452.511 180.638 452.132 180.618 451.752 180.597C451.372 180.576 450.993 180.556 450.613 180.535C449.855 180.459 449.132 180.385 448.378 180.239C447.657 180.13 446.905 179.95 446.188 179.772C443.319 179.059 440.573 177.969 437.945 176.641C435.317 175.314 432.874 173.752 430.548 171.953C421.239 164.862 414.208 154.724 410.534 143.34C408.661 137.663 407.741 131.655 407.582 125.653L407.567 123.387L407.653 121.162L407.683 120.606L407.677 120.083L407.665 119.037L407.607 116.909L407.595 115.863C407.579 115.514 407.564 115.164 407.55 114.78L407.423 112.648L407.297 110.516C407.281 110.166 407.231 109.815 407.183 109.429L407.067 108.378C405.956 96.9583 402.828 85.7082 397.534 75.4553C394.904 70.3298 391.705 65.487 388.037 61.0019C384.403 56.5187 380.265 52.3914 375.828 48.666C366.919 41.2133 356.716 35.293 346.031 30.6009C335.345 25.9088 324.146 22.3735 312.87 19.6354C301.559 16.8953 290.136 14.9506 278.718 13.5289C267.301 12.1072 255.925 11.2103 244.669 10.6336C233.414 10.0569 222.278 9.8351 211.272 9.75978C205.768 9.73949 200.336 9.68821 194.937 9.63881C193.587 9.63514 192.239 9.59673 190.889 9.59307C189.539 9.5894 188.223 9.58762 186.873 9.58395C185.523 9.5803 184.208 9.57849 182.892 9.57671L181.889 9.55704L180.884 9.57214C180.227 9.57125 179.567 9.6051 178.909 9.6042C168.374 9.79833 158.051 10.5267 148.246 12.5724C143.374 13.6665 138.625 15.0461 134.065 16.7844C129.502 18.5575 125.068 20.5117 120.703 22.4697C111.937 26.4185 103.359 30.0988 94.818 33.0842C86.2773 36.0697 77.8491 38.2598 69.6946 39.8725C61.54 41.4852 53.6304 42.4144 46.1212 42.982C38.614 43.5149 31.4765 43.6149 24.8047 43.4266C18.1348 43.2036 11.8961 42.6904 6.19032 41.9274C3.34026 41.4938 0.626415 41.1025 -1.94939 40.7186C-3.25545 40.5431 -4.4963 40.4408 -5.73526 40.3038C-6.97422 40.1668 -8.18428 40.1359 -9.35608 40.0374C-14.0508 39.7823 -18.2792 39.8662 -21.9245 40.0514C-25.5699 40.2366 -28.6686 40.556 -31.1459 40.9093C-33.6214 41.2277 -35.5427 41.5415 -36.8024 41.7866C-38.3652 41.8759 -39.0286 41.9792 -39.0612 41.9426Z" fill="#2FBAF5"/>
</g>
<g opacity="0.1">
<path d="M76.5736 24.7758C76.5736 24.7758 181.944 -22.0429 301.362 61.31C317.327 73.3274 484.192 150.025 471.639 24.22C471.639 24.22 457.619 -55.4621 496.528 -51.5362C535.438 -47.6103 533.819 0.664424 530.84 17.2622C527.895 33.8619 537.742 26.592 542.96 -3.82148C548.179 -34.235 583.336 -22.4292 583.336 -22.4292C536.161 -5.48013 550.342 47.6601 535.017 47.4198C507.499 45.4019 539.896 -25.8 498.529 -37.3856C467.188 -46.7889 485.642 8.63923 481.817 40.801C462.425 168.32 305.615 72.238 244.276 41.4487C182.937 10.6593 93.0606 14.452 61.0678 29.787C29.0749 45.122 15.3896 42.1136 15.3896 42.1136" fill="#2FBAF5"/>
</g>
<g opacity="0.2">
<path d="M15.3897 42.1137C15.3916 42.0789 16.0111 42.1474 17.2211 42.1783C18.4312 42.2092 20.1993 42.1659 22.4984 41.9076C23.6469 41.7957 24.9393 41.5872 26.3371 41.3496C27.0369 41.2134 27.7713 41.0791 28.542 40.9119C28.7165 40.8865 28.9274 40.8283 29.1364 40.8048C29.3473 40.7466 29.5218 40.7212 29.7327 40.663C30.1181 40.5794 30.5399 40.4629 30.9598 40.3812C31.8014 40.183 32.6431 39.9849 33.5213 39.7538C34.3994 39.5228 35.3138 39.2589 36.2284 38.995C37.1447 38.6963 38.1302 38.4015 39.1175 38.0718C39.6103 37.9244 40.1029 37.7769 40.5976 37.5947C41.0921 37.4126 41.6213 37.2322 42.1159 37.0501C46.278 35.6386 50.7426 33.7557 55.604 31.5808C58.0193 30.4576 60.4729 29.2669 63.1681 28.0893C63.4882 27.9325 63.8429 27.7775 64.1611 27.6554C64.5139 27.5352 64.8339 27.3784 65.1867 27.2582C65.8941 26.9831 66.567 26.706 67.2744 26.4309C67.9818 26.1557 68.7199 25.9519 69.4273 25.6768C70.1673 25.4382 70.8747 25.1631 71.6128 24.9593C77.5637 23.1223 84.0135 21.6609 90.8989 20.467C97.7824 19.3079 105.101 18.4164 112.783 17.8581C128.147 16.7417 144.938 16.7481 162.712 18.4107C171.6 19.242 180.708 20.4686 189.993 22.2623C199.28 24.0212 208.675 26.3435 218.137 29.3315C227.565 32.3177 237.023 36.0371 246.187 40.6814C255.32 45.2891 264.509 50.109 273.803 54.9346C292.497 64.5218 311.746 74.1042 331.72 82.4369C336.73 84.521 341.781 86.5028 346.871 88.417C351.962 90.2964 357.093 92.0735 362.301 93.7153C363.596 94.0993 364.887 94.5527 366.184 94.9019L370.102 96.0556L374.025 97.1398C375.322 97.489 376.655 97.8053 377.986 98.1564C383.247 99.4527 388.589 100.544 393.944 101.393C404.621 103.053 415.495 103.644 426.029 102.195C431.297 101.471 436.456 100.183 441.304 98.2517C446.152 96.32 450.726 93.7113 454.777 90.5168C458.83 87.2875 462.395 83.4742 465.36 79.245C468.36 75.0177 470.791 70.4112 472.781 65.6412C474.739 60.8347 476.221 55.8629 477.427 50.8761C477.704 49.6019 477.979 48.3625 478.256 47.0884L478.445 46.1578L478.599 45.2255L478.91 43.326L479.221 41.4265L479.376 40.4941L479.459 39.5927C479.594 38.3805 479.664 37.0951 479.732 35.8444C479.971 30.8051 479.833 25.7105 479.554 20.643C479.275 15.5756 478.822 10.5335 478.436 5.52996C478.016 0.524499 477.63 -4.47907 477.382 -9.47515C477.169 -14.4694 477.093 -19.4561 477.751 -24.5423C478.096 -27.0672 478.58 -29.6192 479.583 -32.1432C480.102 -33.4042 480.724 -34.6596 481.584 -35.8324C482.444 -37.0052 483.507 -38.0972 484.763 -38.9001C486.02 -39.7377 487.435 -40.288 488.836 -40.5952C490.238 -40.9023 491.628 -41.001 492.974 -40.9278C494.321 -40.8547 495.592 -40.6811 496.824 -40.4051C497.132 -40.3535 497.439 -40.2671 497.748 -40.2155L498.634 -39.9583C499.215 -39.8222 499.793 -39.6166 500.372 -39.4457C502.687 -38.7276 504.988 -37.7315 507.102 -36.5017C509.216 -35.2718 511.21 -33.7349 512.916 -32.0045C514.657 -30.2723 516.111 -28.3466 517.349 -26.2933C518.59 -24.2746 519.581 -22.1302 520.365 -19.997C521.967 -15.6939 522.872 -11.3241 523.472 -7.07548C524.072 -2.82682 524.331 1.33361 524.491 5.38418C524.652 9.43475 524.715 13.3755 524.785 17.1772C524.856 20.979 524.964 24.7131 525.294 28.2154C525.623 31.7176 526.095 35.1231 527.151 38.0027C527.662 39.4243 528.319 40.7143 529.131 41.6992C529.323 41.9884 529.555 42.1752 529.751 42.3949C529.981 42.6165 530.214 42.8033 530.446 42.9902C530.947 43.331 531.413 43.6699 531.99 43.8755L532.397 44.0369C532.533 44.0792 532.704 44.1233 532.84 44.1656L533.283 44.2942L533.728 44.388L534.173 44.4819L534.62 44.541L535.067 44.6001C535.17 44.6058 535.241 44.5748 535.345 44.5804C535.728 44.5315 536.079 44.4461 536.367 44.2526C536.689 44.0611 536.98 43.7981 537.313 43.3981C537.612 42.9963 537.917 42.4902 538.223 41.9493C538.497 41.3718 538.77 40.7944 538.977 40.1784C539.425 38.9484 539.809 37.6104 540.159 36.2705C540.858 33.5907 541.42 30.9034 541.976 28.3204C542.531 25.7373 543.118 23.2256 543.699 20.8181C544.893 16.0398 546.27 11.7243 547.788 8.00883C548.031 7.36001 548.31 6.67832 548.588 6.03138C548.628 5.92903 548.781 5.65862 548.978 5.21636C549.175 4.77411 549.449 4.19663 549.799 3.48396C550.536 2.02573 551.582 -0.00806872 553.169 -2.46538C554.722 -4.92456 556.172 -6.76217 557.211 -8.02981C557.73 -8.66363 558.172 -9.16224 558.469 -9.52938C558.801 -9.89465 558.987 -10.1285 559.094 -10.1923C559.607 -10.7219 560.121 -11.2515 560.632 -11.7463C563.047 -14.1239 565.913 -16.5465 569.358 -18.7636C569.789 -19.0538 570.218 -19.3092 570.649 -19.5994C571.079 -19.8548 571.545 -20.1431 572.008 -20.3966C572.472 -20.6502 572.936 -20.9037 573.4 -21.1572L573.756 -21.3469L573.793 -21.3798C573.829 -21.4127 573.898 -21.4089 573.969 -21.4399L574.004 -21.438L573.969 -21.4399L573.902 -21.4784L573.833 -21.4821L573.799 -21.484L573.764 -21.4859L573.386 -21.5413C569.773 -21.9467 565.932 -21.9811 562.187 -21.2438C558.443 -20.5065 554.793 -18.9627 551.913 -16.2968C550.489 -14.9456 549.294 -13.338 548.294 -11.5108C548.061 -11.0357 547.827 -10.5606 547.596 -10.1202C547.395 -9.60846 547.196 -9.13145 546.995 -8.61972C546.761 -8.1446 546.662 -7.5925 546.496 -7.07889L546.245 -6.2911L546.119 -5.87983C546.077 -5.74275 546.069 -5.60378 546.027 -5.46669C545.893 -4.91646 545.794 -4.36436 545.66 -3.81414L545.569 -3.401C545.527 -3.26391 545.517 -3.09021 545.475 -2.95312L545.321 -2.02074C545.08 -0.77945 544.874 0.463721 544.599 1.70313C544.083 4.18385 543.495 6.73029 542.803 9.2711C542.111 11.8119 541.348 14.3837 540.376 16.979C539.89 18.2767 539.369 19.5724 538.78 20.8645C538.659 21.1715 538.466 21.5443 538.273 21.917C537.964 22.4926 537.691 23.0701 537.384 23.6109C536.77 24.7274 536.09 25.7706 535.354 26.5669C534.651 27.3997 533.894 27.9509 533.183 28.2956C532.439 28.6036 531.772 28.7764 530.88 28.6234C530.64 28.5756 530.435 28.5296 530.199 28.4122C529.996 28.3315 529.794 28.216 529.627 28.1024C529.294 27.8752 529.031 27.617 528.77 27.3241C528.282 26.7401 527.944 25.9552 527.722 24.9327C527.501 23.9102 527.463 22.6886 527.533 21.4032L527.56 20.9168L527.586 20.4305C527.603 20.1178 527.622 19.7704 527.673 19.4596L527.795 18.4906L527.896 17.9037C528.003 17.2127 528.145 16.5235 528.253 15.7977C528.358 15.1414 528.465 14.4503 528.572 13.7592C529.317 8.32929 529.592 2.62992 529.384 -3.09572C529.175 -8.82135 528.488 -14.6427 526.995 -20.2988C525.502 -25.9549 523.24 -31.4785 519.722 -36.1992C517.981 -38.5587 515.948 -40.6552 513.623 -42.454C512.46 -43.3535 511.222 -44.1524 509.946 -44.8838C508.67 -45.6151 507.32 -46.246 505.929 -46.7745C504.538 -47.303 503.109 -47.764 501.64 -48.1226L501.093 -48.2568L500.545 -48.3563L499.415 -48.5919C498.659 -48.7026 497.906 -48.8481 497.148 -48.9241C496.77 -48.9795 496.392 -49.0348 496.013 -49.0555L494.91 -49.1503C494.532 -49.2056 494.185 -49.1896 493.803 -49.1755C493.422 -49.1614 493.078 -49.2149 492.695 -49.1661L491.617 -49.0852C491.268 -49.0345 490.885 -48.9857 490.536 -48.9349C490.187 -48.8842 489.836 -48.7987 489.487 -48.748L488.962 -48.6372C488.787 -48.6118 488.611 -48.5517 488.434 -48.4916C485.658 -47.7365 483.218 -46.1618 481.163 -44.0086C480.136 -42.9494 479.205 -41.7457 478.406 -40.4302C477.608 -39.1146 476.874 -37.7259 476.243 -36.2968C475.609 -34.833 475.077 -33.3287 474.613 -31.786C474.148 -30.2433 473.751 -28.6621 473.386 -27.0443C473.055 -25.4246 472.76 -23.803 472.498 -22.1796C472.27 -20.5195 472.041 -18.8595 471.916 -17.1938C471.31 -10.502 471.285 -3.67398 471.638 3.20936C471.798 6.63272 472.06 10.0964 472.428 13.5311C472.611 15.2484 472.795 16.9657 473.013 18.6849L473.359 21.2472L473.565 22.5476L473.767 23.9175L474.004 26.5785C474.06 27.4526 474.118 28.292 474.175 29.1662C474.289 30.8797 474.367 32.6261 474.377 34.3688C474.466 37.8232 474.379 41.3376 474.121 44.8079C473.604 51.7834 472.254 58.7832 469.675 65.4724C469.03 67.1447 468.283 68.7766 467.47 70.3701C466.622 71.9616 465.741 73.5166 464.724 75.0293C463.709 76.5072 462.659 77.9833 461.477 79.3476C460.295 80.712 459.048 82.0031 457.733 83.2558C456.386 84.4718 455.008 85.6164 453.567 86.6531C452.126 87.6898 450.585 88.6514 449.048 89.5435C445.941 91.291 442.644 92.7147 439.262 93.7853C432.529 95.9979 425.515 97.0105 418.571 97.365C411.629 97.6847 404.689 97.3424 397.842 96.5523C390.995 95.7622 384.275 94.5608 377.638 93.0852C371.002 91.6096 364.451 89.8251 358.05 87.8397C345.214 83.867 332.768 79.0792 320.875 73.6595C317.902 72.3133 314.966 70.8994 312.069 69.418C309.172 67.9365 306.312 66.4222 303.495 64.7361C302.791 64.3145 302.087 63.893 301.421 63.4038C301.087 63.1766 300.721 62.9128 300.387 62.6856L299.42 62.0059C298.119 61.099 296.816 60.2268 295.549 59.3217C294.248 58.4148 292.944 57.5774 291.639 56.7399C290.969 56.3202 290.336 55.8677 289.666 55.4481C288.997 55.0284 288.362 54.6106 287.692 54.191C277.183 47.5224 266.491 41.6801 255.788 36.6734C245.085 31.6668 234.405 27.4976 223.888 24.1736C202.855 17.4907 182.576 14.124 164.424 13.0332C146.272 11.9425 130.251 13.0581 117.166 14.9255C104.082 16.793 93.901 19.3758 87.0394 21.4072C83.5904 22.4393 80.9812 23.308 79.252 23.9109C77.4882 24.5119 76.6044 24.8472 76.5718 24.8106C76.5392 24.774 77.3959 24.2979 79.1308 23.5907C80.8657 22.8836 83.448 21.8741 86.8662 20.7706C93.7047 18.5289 103.864 15.7011 116.995 13.627C130.125 11.553 146.227 10.2327 164.562 11.1244C169.154 11.3738 173.843 11.7331 178.662 12.2389C183.482 12.7447 188.428 13.4664 193.47 14.3327C194.738 14.5758 196.01 14.7494 197.276 15.0273C198.544 15.2704 199.811 15.5135 201.114 15.7584C203.68 16.316 206.248 16.8388 208.845 17.4677C214.041 18.6908 219.33 20.128 224.641 21.7755C235.301 25.0376 246.12 29.1794 256.965 34.1241C267.808 39.1035 278.64 44.9186 289.324 51.5618C289.993 51.9815 290.665 52.3664 291.333 52.8208C292.002 53.2405 292.67 53.6949 293.305 54.1126C294.642 54.9867 295.982 55.826 297.285 56.6982C298.62 57.607 299.923 58.4792 301.258 59.388L302.26 60.0696C302.594 60.2968 302.893 60.5221 303.194 60.7127C303.83 61.1305 304.499 61.5502 305.171 61.9351C307.855 63.5095 310.683 64.9872 313.547 66.4321C316.413 67.8421 319.316 69.2194 322.292 70.5309C334.088 75.806 346.438 80.4492 359.142 84.3102C365.513 86.2242 371.963 87.9336 378.498 89.3688C385.033 90.804 391.654 91.9303 398.33 92.6763C405.008 93.3876 411.743 93.6839 418.408 93.3492C425.076 92.9797 431.745 91.9483 438.021 89.8503C444.298 87.7523 450.184 84.5529 454.961 80.1086C459.738 75.6643 463.367 70.0426 465.709 63.8981C468.086 57.7554 469.311 51.132 469.775 44.5021C470.026 41.1708 470.069 37.8281 469.972 34.5127C469.924 32.8377 469.842 31.1607 469.724 29.5167C469.666 28.6773 469.607 27.8379 469.547 27.0332L469.332 24.6173L469.122 23.3864L468.918 22.0512L468.542 19.4175C468.291 17.6617 468.109 15.9097 467.895 14.121C467.531 10.6169 467.238 7.08184 467.049 3.55238C466.669 -3.4718 466.636 -10.512 467.259 -17.5165C467.423 -19.2498 467.623 -21.016 467.855 -22.7455C468.087 -24.475 468.391 -26.2356 468.761 -27.9576C469.132 -29.6796 469.537 -31.3998 470.044 -33.0796C470.552 -34.7941 471.163 -36.4683 471.84 -38.104C472.552 -39.7378 473.368 -41.3659 474.317 -42.9171C475.267 -44.4683 476.386 -45.9407 477.637 -47.3013C478.923 -48.66 480.373 -49.8704 481.951 -50.8648C483.528 -51.8593 485.267 -52.6359 487.061 -53.1656C490.616 -54.2268 494.357 -54.2674 497.761 -53.8385C498.622 -53.7569 499.445 -53.6077 500.302 -53.4566L501.57 -53.2135L502.186 -53.0755L502.802 -52.9375C504.478 -52.5677 506.11 -52.026 507.739 -51.4149C509.333 -50.8056 510.922 -50.0921 512.399 -49.2453C513.911 -48.3966 515.35 -47.4822 516.712 -46.4325C519.439 -44.368 521.833 -41.9034 523.833 -39.2163C525.868 -36.5273 527.478 -33.6524 528.84 -30.6864C530.168 -27.7223 531.214 -24.6689 532.016 -21.5939C533.655 -15.4421 534.395 -9.30431 534.655 -3.26226C534.881 2.77792 534.627 8.72237 533.863 14.4997C533.755 15.2255 533.68 15.9532 533.537 16.6771C533.43 17.3682 533.324 18.0593 533.182 18.7485L533.123 19.1982L533.12 19.2677L533.114 19.3719C533.11 19.4414 533.108 19.4761 533.104 19.5456C533.101 19.6151 533.099 19.6498 533.129 19.7212C533.128 19.7559 533.158 19.8273 533.227 19.831C533.333 19.8019 533.408 19.7015 533.448 19.5991C533.484 19.5662 533.488 19.4968 533.524 19.4639C533.643 19.1916 533.796 18.9212 533.917 18.6141C534.43 17.4573 534.908 16.2987 535.319 15.1015C536.176 12.709 536.932 10.2762 537.547 7.87055C538.199 5.43209 538.745 3.02274 539.223 0.609636C539.461 -0.59692 539.7 -1.80348 539.902 -2.97717L540.055 -3.87479C540.097 -4.01188 540.105 -4.15084 540.148 -4.32267L540.244 -4.8053C540.383 -5.45974 540.521 -6.07945 540.66 -6.7339C540.704 -6.90573 540.712 -7.0447 540.756 -7.21653L540.886 -7.69728C540.972 -8.0062 541.058 -8.31511 541.18 -8.65689C541.387 -9.27285 541.526 -9.9273 541.802 -10.5395C542.043 -11.1536 542.284 -11.7677 542.525 -12.3817C542.801 -12.9939 543.109 -13.5695 543.417 -14.1451C544.65 -16.4475 546.221 -18.5921 548.083 -20.3725C549.946 -22.1529 552.1 -23.5689 554.337 -24.5972C556.54 -25.6274 558.829 -26.3392 561.105 -26.8079C563.344 -27.2437 565.57 -27.4364 567.72 -27.4938C569.87 -27.5512 571.975 -27.4368 574.006 -27.2219C574.35 -27.1684 574.729 -27.1478 575.073 -27.0943C575.554 -27.0333 576.001 -26.9741 576.446 -26.8803C577.338 -26.7273 578.264 -26.5724 579.12 -26.3866C579.53 -26.2946 579.975 -26.2007 580.386 -26.1088C580.796 -26.0168 581.241 -25.9229 581.617 -25.8328C581.993 -25.7427 582.402 -25.6159 582.777 -25.5258C582.983 -25.4798 583.188 -25.4338 583.357 -25.355L583.902 -25.186C585.331 -24.7251 586.658 -24.3045 588.018 -23.8473C588.734 -23.6342 589.413 -23.3883 590.094 -23.1771C590.671 -22.9715 591.216 -22.8025 591.759 -22.5988C589.389 -21.6822 587.056 -20.7985 584.759 -19.9477C582.564 -19.0565 580.201 -18.2442 578.418 -17.2957C577.956 -17.0769 577.458 -16.8252 576.996 -16.6064L576.641 -16.4515L576.463 -16.3567L576.392 -16.3257L576.355 -16.2928L576.033 -16.1012C575.604 -15.8458 575.177 -15.6251 574.749 -15.4045C574.32 -15.149 573.927 -14.9265 573.532 -14.6692C573.139 -14.4466 572.744 -14.1893 572.35 -13.932C569.264 -11.9394 566.723 -9.77781 564.563 -7.63032C564.123 -7.16645 563.682 -6.70257 563.24 -6.20396C563.165 -6.10349 562.981 -5.90443 562.688 -5.60677C562.395 -5.3091 562.023 -4.84148 561.542 -4.27527C560.615 -3.14097 559.351 -1.53718 557.914 0.684441C556.513 2.90794 555.546 4.7718 554.885 6.09481C554.571 6.77462 554.301 7.28261 554.141 7.692C553.945 8.09951 553.863 8.33895 553.789 8.43942C553.513 9.05163 553.237 9.66383 552.998 10.2432C551.599 13.6863 550.274 17.691 549.125 22.2628C548.55 24.566 547.969 26.9735 547.413 29.5566C546.823 32.1378 546.261 34.825 545.516 37.7114C545.126 39.1536 544.7 40.6287 544.132 42.1658C543.848 42.917 543.492 43.7339 543.104 44.5142C542.679 45.3273 542.185 46.1367 541.553 46.9386C540.92 47.7405 540.081 48.5311 539.044 49.1368C538.007 49.7425 536.811 50.0956 535.63 50.1708C535.317 50.1887 535.005 50.2065 534.694 50.1897L533.936 50.1137L533.179 50.0377C532.939 49.9898 532.699 49.9419 532.46 49.8941L531.74 49.7504L531.025 49.5373C530.787 49.4547 530.547 49.4069 530.311 49.2895L529.601 48.9722C528.654 48.5723 527.75 48.0005 526.919 47.363C526.522 47.0279 526.125 46.6927 525.731 46.288C525.372 45.8853 524.977 45.5153 524.687 45.1163C523.391 43.4779 522.486 41.6518 521.825 39.804C521.164 37.9562 520.746 36.0868 520.397 34.2211C520.083 32.3574 519.874 30.4645 519.698 28.6082C519.384 24.8281 519.277 21.0592 519.211 17.1879C519.142 13.3514 519.112 9.44732 518.982 5.4681C518.85 1.52363 518.584 -2.49782 518.038 -6.4648C517.493 -10.4665 516.671 -14.4485 515.283 -18.2173C513.895 -21.9861 511.873 -25.5455 509.084 -28.38C507.673 -29.8155 506.079 -31.052 504.335 -32.0875C502.591 -33.1231 500.697 -33.9577 498.654 -34.5913C496.613 -35.2597 494.565 -35.7891 492.595 -35.8613C490.628 -35.9682 488.843 -35.6122 487.478 -34.7107C486.079 -33.8112 484.991 -32.2675 484.227 -30.3229C483.466 -28.413 483.002 -26.2431 482.706 -23.9943C482.114 -19.462 482.13 -14.6528 482.318 -9.83417C482.504 -4.9808 482.894 -0.0466965 483.278 4.99162C483.664 9.99521 484.081 15.0701 484.354 20.2418C484.627 25.4134 484.758 30.6471 484.469 35.9625C484.395 37.3173 484.289 38.6356 484.146 39.9868L484.021 41.0252L483.862 42.0271L483.513 43.9942L483.164 45.9613L483.006 46.9632L482.78 47.9265C482.501 49.2354 482.188 50.5424 481.909 51.8513C480.621 57.0776 479.057 62.2888 476.948 67.331C474.805 72.3714 472.184 77.2813 468.96 81.81C465.737 86.3387 461.841 90.4825 457.428 93.9709C452.98 97.4575 448.016 100.254 442.78 102.304C437.545 104.354 432.037 105.692 426.491 106.436C420.946 107.18 415.327 107.363 409.764 107.165C404.201 106.968 398.66 106.353 393.169 105.462C387.678 104.572 382.269 103.441 376.873 102.068C375.542 101.717 374.174 101.399 372.845 101.013L368.855 99.8903L364.904 98.7C363.575 98.3142 362.284 97.8607 360.956 97.4402C355.716 95.7617 350.519 93.9114 345.361 91.9935C340.239 90.0427 335.157 87.9896 330.114 85.8689C310.011 77.355 290.737 67.5969 272.156 57.8416C262.865 52.9814 253.715 48.0591 244.654 43.4204C235.662 38.7855 226.411 35.0773 217.123 32.0639C207.835 29.0505 198.546 26.6991 189.366 24.8763C180.187 23.0535 171.151 21.7612 162.373 20.8313C144.744 19.0372 128.066 18.8627 112.816 19.8111C105.207 20.3036 97.9277 21.0928 91.0844 22.1496C84.2393 23.2411 77.8296 24.6002 71.9534 26.3367C71.2153 26.5405 70.5079 26.8156 69.7697 27.0194C69.0643 27.2598 68.3261 27.4636 67.6552 27.7059C66.9496 27.9463 66.2768 28.2234 65.6058 28.4657C65.2531 28.5859 64.9348 28.7079 64.5821 28.8282C64.2293 28.9484 63.9092 29.1052 63.5891 29.262C61.0012 30.3758 58.4441 31.5609 55.9961 32.6474C51.0695 34.7491 46.5395 36.5587 42.3122 37.897C41.7831 38.0773 41.2885 38.2595 40.7612 38.405C40.2666 38.5872 39.7413 38.6981 39.2467 38.8802C38.2612 39.1751 37.2758 39.47 36.3268 39.7321C35.3797 39.9593 34.467 40.1885 33.5544 40.4177C32.6763 40.6487 31.8001 40.845 30.9604 41.0084C30.5404 41.0901 30.1205 41.1719 29.7351 41.2554C29.5243 41.3137 29.3497 41.339 29.1407 41.3625C28.9317 41.386 28.7573 41.4114 28.5463 41.4696C27.7775 41.6021 27.0086 41.7345 26.3107 41.8359C24.8821 42.0022 23.5898 42.2108 22.4104 42.2512C20.0806 42.4382 18.2492 42.3736 17.0429 42.2732C16.0016 42.3211 15.3878 42.1484 15.3897 42.1137Z" fill="#2FBAF5"/>
</g>
<g opacity="0.1">
<path d="M158.685 10.9792C158.685 10.9792 241.165 -5.79385 347.352 46.4219C453.539 98.6377 575.27 74.4153 503.532 8.80985C414.711 -72.4625 447.43 -82.671 473.073 -89.4659C425.654 -96.7114 394.424 -96.7009 427.648 -45.4877C460.872 5.72545 422.09 66.3713 360.473 35.6017C298.822 4.83016 318.987 1.98852 158.685 10.9792Z" fill="#2FBAF5"/>
</g>
<g opacity="0.2">
<path d="M158.685 10.9792C158.688 10.9097 159.944 10.7341 162.343 10.5508C164.744 10.3328 168.324 10.0744 172.878 9.72948C182.019 9.07631 195.258 8.19283 211.581 7.26783C219.742 6.80533 228.666 6.31461 238.243 5.92901C247.82 5.54341 258.052 5.19342 268.852 5.22275C269.51 5.22365 270.202 5.22642 270.895 5.22919C271.587 5.23197 272.243 5.26759 272.935 5.27037C274.283 5.30877 275.668 5.31433 277.051 5.35461C279.814 5.46991 282.614 5.55234 285.441 5.77562C291.098 6.1527 296.846 6.7786 302.667 7.96597C308.454 9.15147 314.28 10.8966 319.899 13.2576C325.519 15.5839 331.01 18.391 336.499 21.2328C341.988 24.0746 347.473 26.9859 353.066 29.8333C355.861 31.2744 358.658 32.6807 361.492 34.0542C364.291 35.4258 367.132 36.6603 370.052 37.7249C375.891 39.854 382.008 41.3362 388.179 41.8109C394.351 42.2856 400.615 41.6852 406.497 39.8445C409.421 38.9232 412.258 37.6836 414.938 36.1567C417.583 34.6279 420.072 32.7771 422.366 30.7066C424.66 28.6361 426.656 26.3055 428.454 23.79C430.218 21.2726 431.783 18.6049 433.01 15.7796C435.53 10.1674 436.967 4.11301 437.403 -1.99575C437.839 -8.10452 437.306 -14.2311 435.964 -20.1228C434.623 -26.0146 432.506 -31.6696 429.781 -36.9397C429.089 -38.2317 428.399 -39.5583 427.637 -40.8193L427.067 -41.791L426.494 -42.7281L425.922 -43.6651L425.315 -44.604C423.654 -47.1681 422.064 -49.7632 420.543 -52.3546C419.024 -54.9807 417.61 -57.6359 416.304 -60.355C415.032 -63.0722 413.833 -65.8552 412.918 -68.7621C412.443 -70.2164 412.073 -71.6999 411.775 -73.2144C411.476 -74.7289 411.285 -76.3073 411.268 -77.911C411.251 -79.5147 411.375 -81.1456 411.81 -82.7944C412.244 -84.4085 412.954 -86.0075 413.964 -87.3813C414.939 -88.7569 416.18 -89.9438 417.511 -90.8471C418.842 -91.7852 420.23 -92.4764 421.611 -93.0286C424.406 -94.1311 427.205 -94.6758 429.96 -95.0488C435.433 -95.7271 440.657 -95.6523 445.697 -95.3785C450.736 -95.1046 455.556 -94.5989 460.167 -94.0696C464.81 -93.5037 469.242 -92.8796 473.465 -92.2321L486.653 -90.2612L473.794 -86.8135C469.087 -85.5709 464.726 -84.3096 460.899 -82.7057C457.073 -81.1017 453.782 -79.1551 451.61 -76.7644C450.506 -75.57 449.744 -74.2874 449.187 -72.9587C448.63 -71.6301 448.382 -70.2498 448.308 -68.8949C448.235 -67.54 448.301 -66.2124 448.507 -64.912C448.716 -63.6463 448.995 -62.4116 449.349 -61.2774C449.5 -60.8859 449.618 -60.4962 449.768 -60.0699C449.891 -59.7845 450.445 -57.8729 452.003 -54.6872C452.375 -53.9004 452.752 -53.183 453.099 -52.5718C453.413 -51.9624 453.729 -51.4226 453.983 -50.9907C454.49 -50.1269 454.774 -49.6236 454.87 -49.4791C455.091 -49.0838 455.312 -48.6885 455.535 -48.328C456.839 -46.2013 458.44 -43.8147 460.274 -41.2411C462.107 -38.6676 464.277 -35.9017 466.68 -32.9836C471.485 -27.1128 477.365 -20.626 484.154 -13.6717C487.564 -10.1763 491.178 -6.60013 495.029 -2.90659C496.936 -1.06077 498.911 0.823553 500.955 2.71162C502.999 4.5997 505.074 6.55913 507.183 8.52043C511.429 12.5839 515.617 17.0623 519.351 22.2478C521.183 24.8561 522.936 27.6343 524.364 30.6735C525.791 33.7128 526.927 37.015 527.429 40.5266C527.931 44.0382 527.723 47.8597 526.527 51.3836C525.33 54.9422 523.252 58.1395 520.687 60.7527C518.119 63.4007 515.131 65.5032 511.99 67.2489C508.848 68.9946 505.518 70.3816 502.131 71.5564C495.325 73.8347 488.256 75.2277 481.079 76.0572C473.901 76.8868 466.616 77.153 459.283 77.0333C444.653 76.761 429.866 74.9123 415.35 71.8936C400.835 68.875 386.558 64.6498 372.782 59.4762C365.896 56.872 359.195 54.0341 352.61 50.9585C350.955 50.2065 349.336 49.4217 347.718 48.6021C346.099 47.8173 344.514 47.0343 342.893 46.2842C341.309 45.5012 339.688 44.7511 338.103 43.9682L336.923 43.3814L335.707 42.8275C334.895 42.4698 334.118 42.114 333.307 41.7563C320.534 35.9752 307.752 30.995 295.305 26.8692C282.823 22.7415 270.642 19.4316 259.044 16.885C247.446 14.3385 236.396 12.5186 226.214 11.3034C205.814 8.90572 188.852 8.85521 177.12 9.40245C171.254 9.67608 166.66 10.1233 163.561 10.4428C161.994 10.6015 160.809 10.7462 160.008 10.842C159.099 11.0017 158.681 11.0487 158.685 10.9792C158.687 10.9445 159.076 10.7914 159.881 10.6261C160.686 10.4608 161.842 10.21 163.415 9.94699C166.525 9.4191 171.092 8.83104 177.004 8.35085C188.791 7.42333 205.841 7.13018 226.395 9.25738C236.655 10.3027 247.816 11.9892 259.525 14.4025C271.269 16.8176 283.56 19.9941 296.186 24.0251C308.812 28.056 321.739 32.9048 334.689 38.6258C335.5 38.9835 336.312 39.3412 337.123 39.6989L338.341 40.218L339.558 40.7719C341.179 41.522 342.8 42.2721 344.419 43.057C346.04 43.8071 347.696 44.5591 349.28 45.342C350.865 46.125 352.486 46.8751 354.107 47.6252C360.593 50.5909 367.264 53.3575 374.087 55.8537C387.699 60.8442 401.813 64.8863 416.129 67.7547C430.445 70.6232 444.964 72.3179 459.287 72.5038C466.449 72.5794 473.529 72.2672 480.465 71.4245C487.4 70.5818 494.192 69.2087 500.508 67.0083C503.685 65.8917 506.733 64.5939 509.555 63.005C512.376 61.4161 514.971 59.5362 517.065 57.3155C519.192 55.1314 520.785 52.5698 521.696 49.8318C522.571 47.0919 522.765 44.1756 522.332 41.2949C521.9 38.4143 520.945 35.6098 519.671 32.9273C518.397 30.2448 516.804 27.7192 515.099 25.3269C511.62 20.5386 507.627 16.2798 503.508 12.4323C501.399 10.471 499.321 8.58104 497.277 6.69297C495.233 4.8049 493.223 2.91871 491.281 1.071C487.396 -2.6244 483.681 -6.24094 480.235 -9.73827C473.31 -16.7348 467.296 -23.2985 462.326 -29.3177C459.858 -32.309 457.623 -35.1482 455.692 -37.8316C453.76 -40.5149 452.059 -42.9767 450.659 -45.2479C450.403 -45.6451 450.148 -46.0422 449.893 -46.4394C449.797 -46.584 449.48 -47.1238 448.942 -48.059C448.69 -48.5256 448.341 -49.1021 447.997 -49.7828C447.653 -50.4635 447.244 -51.2175 446.808 -52.1122C445.094 -55.62 444.385 -57.8537 444.264 -58.1739C444.081 -58.6367 443.969 -59.1306 443.856 -59.5898C443.444 -60.9362 443.109 -62.4178 442.849 -63.9999C442.591 -65.6167 442.478 -67.365 442.614 -69.2391C442.751 -71.1133 443.137 -73.1132 443.936 -75.0907C444.769 -77.0315 445.947 -78.9536 447.489 -80.5772C448.227 -81.4082 449.062 -82.1293 449.932 -82.8486C450.8 -83.5332 451.737 -84.2139 452.703 -84.7886C454.603 -85.9747 456.665 -86.9776 458.824 -87.8359C463.108 -89.5892 467.677 -90.8392 472.42 -92.1146L472.715 -86.6979C468.526 -87.3436 464.13 -88.0006 459.59 -88.5608C455.051 -89.121 450.337 -89.6559 445.471 -89.9551C440.64 -90.2524 435.625 -90.3507 430.676 -89.7485C428.235 -89.4282 425.787 -88.9689 423.557 -88.0796C421.364 -87.2231 419.427 -85.9695 418.191 -84.2596C417.557 -83.423 417.123 -82.4361 416.823 -81.3723C416.522 -80.3084 416.389 -79.131 416.427 -77.9094C416.43 -76.6898 416.569 -75.4278 416.81 -74.1256C417.052 -72.858 417.362 -71.552 417.776 -70.2403C418.57 -67.6536 419.64 -65.0518 420.851 -62.4773C422.061 -59.9029 423.411 -57.3556 424.865 -54.8027C426.319 -52.2498 427.844 -49.7279 429.44 -47.2371L430.045 -46.2634L430.65 -45.2898L431.253 -44.2814L431.821 -43.2749C432.614 -41.9426 433.335 -40.5445 434.055 -39.1465C436.9 -33.5215 439.134 -27.4768 440.522 -21.1644C441.91 -14.852 442.451 -8.2372 441.919 -1.64581C441.388 4.94557 439.785 11.5135 436.994 17.6337C435.616 20.6948 433.9 23.5981 431.916 26.3474C429.934 29.062 427.683 31.6227 425.17 33.8904C422.658 36.1581 419.885 38.1328 416.954 39.8203C414.026 41.473 410.872 42.8 407.669 43.7757C401.225 45.7602 394.443 46.3324 387.826 45.7639C381.21 45.1953 374.788 43.592 368.68 41.3089C365.628 40.1326 362.685 38.8578 359.786 37.411C356.956 35.9681 354.127 34.5251 351.331 33.084C345.742 30.1671 340.261 27.1864 334.843 24.3136C329.425 21.4408 324.038 18.6393 318.591 16.2877C313.145 13.936 307.596 12.2059 301.984 10.995C296.371 9.78418 290.729 9.12917 285.179 8.68824C282.388 8.43209 279.625 8.31679 276.896 8.20337C275.513 8.16308 274.165 8.12467 272.817 8.08627C272.126 8.04875 271.469 8.04785 270.778 8.01034C270.121 8.00944 269.428 8.00668 268.772 7.97104C258.049 7.8065 247.858 8.01937 238.289 8.26601C228.72 8.51265 219.803 8.86442 211.615 9.18608C195.306 9.86789 182.051 10.4021 172.891 10.7755C168.311 10.9448 164.739 11.0643 162.311 11.1414C159.96 11.0834 158.679 11.0834 158.685 10.9792Z" fill="#2FBAF5"/>
</g>
</g>
<defs>
<clipPath id="clip0_7_27944">
<rect width="320.435" height="638.178" fill="white" transform="matrix(0.0542533 -0.998527 -0.998527 -0.0542533 582.999 224)"/>
</clipPath>
</defs>
</svg>
