<svg width="15" height="15" viewBox="0 0 15 15" fill="none" xmlns="http://www.w3.org/2000/svg">
<g clip-path="url(#clip0_7_27821)">
<path d="M10.3461 9.7109C7.8499 8.55727 4.35593 9.06753 4.20846 9.08977C3.87963 9.13946 3.65332 9.44622 3.70301 9.77504C3.7527 10.1039 4.0597 10.3299 4.38828 10.2805C4.42088 10.2755 7.6691 9.80025 9.84093 10.804C9.92266 10.8418 10.0086 10.8597 10.0932 10.8597C10.3207 10.8596 10.5384 10.7301 10.6401 10.5101C10.7796 10.2082 10.648 9.85043 10.3461 9.7109Z" fill="#C7FFFF"/>
<path d="M11.0477 7.54261C8.21276 6.23252 4.23727 6.81311 4.0694 6.83839C3.74073 6.88809 3.51459 7.19468 3.56412 7.52335C3.61357 7.85209 3.9204 8.07857 4.24899 8.02919C4.28656 8.02349 8.03871 7.47871 10.5425 8.63579C10.6244 8.6736 10.7102 8.69151 10.7947 8.69151C11.0223 8.69143 11.24 8.56193 11.3418 8.34181C11.4812 8.03995 11.3496 7.68214 11.0477 7.54261Z" fill="#C7FFFF"/>
<path d="M11.5195 5.27733C8.38804 3.83012 3.98996 4.47228 3.80427 4.5003C3.4756 4.54999 3.24945 4.85658 3.29898 5.18525C3.34851 5.51392 3.65543 5.74071 3.98385 5.69102C4.02584 5.68467 8.21391 5.07631 11.0143 6.37043C11.096 6.40824 11.182 6.42614 11.2665 6.42614C11.494 6.42614 11.7117 6.29657 11.8134 6.07652C11.953 5.77459 11.8213 5.41686 11.5195 5.27733Z" fill="#C7FFFF"/>
<path d="M7.50004 9.15527e-05C3.36447 9.15527e-05 0 3.36448 0 7.49981C0 11.6354 3.36447 14.9999 7.50004 14.9999C11.6355 14.9999 15 11.6354 15 7.49981C15 3.36448 11.6355 9.15527e-05 7.50004 9.15527e-05ZM7.50004 13.7957C4.02847 13.7957 1.20421 10.9715 1.20421 7.49981C1.20421 4.0284 4.02847 1.20422 7.50004 1.20422C10.9715 1.20422 13.7958 4.0284 13.7958 7.49981C13.7958 10.9715 10.9715 13.7957 7.50004 13.7957Z" fill="#C7FFFF"/>
</g>
<defs>
<clipPath id="clip0_7_27821">
<rect width="15" height="15" fill="white"/>
</clipPath>
</defs>
</svg>
