<svg width="15" height="15" viewBox="0 0 15 15" fill="none" xmlns="http://www.w3.org/2000/svg">
<path d="M13.6121 7.59405C13.4571 6.92062 12.9063 6.42385 12.2433 6.34991C10.6736 6.17456 9.08403 6.17374 7.50226 6.17456C5.91983 6.17374 4.33062 6.17456 2.76043 6.34991C2.09775 6.42402 1.54722 6.92078 1.39239 7.59405C1.17171 8.553 1.16907 9.5998 1.16907 10.5872C1.16907 11.5746 1.16907 12.6212 1.38974 13.5802C1.54458 14.2535 2.0951 14.7502 2.75811 14.8243C4.32797 14.9998 5.91718 15.0005 7.49945 14.9998C9.08188 15.0007 10.6708 14.9998 12.2411 14.8243C12.9038 14.7502 13.4547 14.2535 13.6095 13.5802C13.83 12.6212 13.8312 11.5746 13.8312 10.5872C13.831 9.59963 13.8326 8.553 13.6121 7.59405ZM4.78073 8.33729H3.86429V13.207H3.01303V8.33729H2.1133V7.53963H4.78073V8.33729ZM7.09284 13.2072H6.3271V12.7465C6.02289 13.0952 5.73406 13.2652 5.45268 13.2652C5.20603 13.2652 5.03631 13.1653 4.95972 12.9514C4.91803 12.8237 4.89223 12.6216 4.89223 12.3235V8.98426H5.65731V12.0934C5.65731 12.2727 5.65731 12.3658 5.66425 12.391C5.68262 12.5097 5.74068 12.57 5.84324 12.57C5.99675 12.57 6.15721 12.4517 6.32694 12.2116V8.98426H7.09268L7.09284 13.2072ZM9.99981 11.9397C9.99981 12.3303 9.97351 12.6116 9.92239 12.7906C9.82016 13.1048 9.61553 13.2652 9.31115 13.2652C9.03887 13.2652 8.77618 13.114 8.52027 12.7981V13.2073H7.75519V7.53963H8.52027V9.39054C8.76741 9.08633 9.02977 8.93248 9.31115 8.93248C9.61553 8.93248 9.82032 9.09278 9.92239 9.4089C9.97384 9.57879 9.99981 9.85802 9.99981 10.2578V11.9397ZM12.8876 11.2352H11.3573V11.9837C11.3573 12.3746 11.4851 12.5698 11.7482 12.5698C11.9366 12.5698 12.0462 12.4674 12.0899 12.2629C12.097 12.2214 12.1071 12.0514 12.1071 11.7445H12.8878V11.8562C12.8878 12.1028 12.8783 12.2727 12.8714 12.3491C12.8457 12.5185 12.7855 12.6722 12.6927 12.8075C12.4808 13.1142 12.1668 13.2654 11.7672 13.2654C11.3669 13.2654 11.0622 13.1213 10.841 12.833C10.6787 12.6216 10.5953 12.2887 10.5953 11.8399V10.3609C10.5953 9.90947 10.6693 9.57928 10.8319 9.36589C11.0529 9.0769 11.3574 8.93298 11.7483 8.93298C12.1323 8.93298 12.4366 9.0769 12.651 9.36589C12.8113 9.57928 12.8879 9.90947 12.8879 10.3609V11.2352H12.8876Z" fill="#C7FFFF"/>
<path d="M11.7414 9.62146C11.4856 9.62146 11.3574 9.81682 11.3574 10.2072V10.5979H12.1225V10.2072C12.1223 9.81682 11.9945 9.62146 11.7414 9.62146Z" fill="#C7FFFF"/>
<path d="M8.90171 9.62146C8.77566 9.62146 8.64795 9.68101 8.52008 9.80756V12.3814C8.64779 12.5094 8.77566 12.5699 8.90171 12.5699C9.12238 12.5699 9.23454 12.3814 9.23454 12.0001V10.1976C9.23454 9.81682 9.12238 9.62146 8.90171 9.62146Z" fill="#C7FFFF"/>
<path d="M9.32919 5.7853C9.61123 5.7853 9.90469 5.61393 10.2125 5.26125V5.72675H10.9859V1.45901H10.2125V4.72081C10.0412 4.96299 9.87872 5.08276 9.72405 5.08276C9.6205 5.08276 9.55962 5.02155 9.54275 4.90162C9.53332 4.87631 9.53332 4.78218 9.53332 4.60105V1.45901H8.76245V4.83363C8.76245 5.13503 8.78826 5.33899 8.83094 5.46819C8.90868 5.6844 9.08023 5.7853 9.32919 5.7853Z" fill="#C7FFFF"/>
<path d="M3.94553 3.40737V5.72676H4.80308V3.40737L5.83465 0H4.96751L4.38241 2.24892L3.77366 0H2.87128C3.05208 0.53084 3.24017 1.06433 3.42098 1.59566C3.69607 2.39432 3.86778 2.99646 3.94553 3.40737Z" fill="#C7FFFF"/>
<path d="M6.98402 5.78531C7.37144 5.78531 7.67251 5.63957 7.88607 5.34843C8.04835 5.13487 8.1261 4.7984 8.1261 4.34481V2.85039C8.1261 2.39415 8.04851 2.06066 7.88607 1.84512C7.67251 1.55315 7.37161 1.40741 6.98402 1.40741C6.59859 1.40741 6.29768 1.55315 6.08363 1.84512C5.91936 2.06066 5.84161 2.39415 5.84161 2.85039V4.34481C5.84161 4.7984 5.91936 5.13487 6.08363 5.34843C6.29752 5.63957 6.59859 5.78531 6.98402 5.78531ZM6.61496 2.69539C6.61496 2.30052 6.73473 2.10367 6.98402 2.10367C7.23331 2.10367 7.35275 2.30036 7.35275 2.69539V4.49055C7.35275 4.88541 7.23331 5.08293 6.98402 5.08293C6.73473 5.08293 6.61496 4.88541 6.61496 4.49055V2.69539Z" fill="#C7FFFF"/>
</svg>
