<svg width="131" height="131" viewBox="0 0 131 131" fill="none" xmlns="http://www.w3.org/2000/svg">
<g clip-path="url(#clip0_117_1163)">
<path d="M130.093 65.0466C130.093 101.007 101.007 130.093 65.0467 130.093C29.0859 130.093 0 101.007 0 65.0466C0 29.0859 29.0859 0 65.0467 0C101.007 0 130.093 29.0859 130.093 65.0466Z" fill="#FACDC5"/>
<path d="M65.1176 92.1356C63.9484 91.6552 63.121 91.0078 62.6356 90.1933C62.145 89.3085 61.7601 88.4158 61.4809 87.5152C61.3792 87.0976 61.2826 86.7504 61.1913 86.4737C61.1653 86.1214 61.104 85.7716 61.0074 85.4245L58.8238 76.0199L41.2738 94.5368L26.1571 95.6549L53.1908 67.4019C53.1543 66.9086 53.0121 66.4231 52.7642 65.9454C52.5868 65.4625 52.2227 64.8517 51.6721 64.113C52.617 63.4762 53.3557 62.9256 53.8882 62.461C54.4912 61.9913 54.9559 61.5672 55.2822 61.1887L51.8619 46.5612L46.78 46.8307L47.818 42.1835L64.5523 35.6313L68.2034 51.9425L85.2717 34.0989L100.388 32.9808L74.3259 59.9928C74.5842 60.6114 74.9965 61.3958 75.5628 62.346C74.6283 63.1237 73.8621 63.7827 73.2644 64.3229C72.6614 64.7927 72.1641 65.2546 71.7725 65.7087C72.2108 67.8021 72.6765 69.7871 73.1696 71.6639C73.7148 74.2454 74.1857 76.3009 74.5823 77.8305C74.8562 78.6605 75.1276 79.4553 75.3964 80.2149C75.7304 80.8988 76.1245 81.4366 76.5786 81.8281C77.0327 82.2197 77.6173 82.4599 78.3325 82.5487C79.1129 82.5619 80.0539 82.3505 81.1554 81.9148C82.6694 81.3068 84.3465 80.5096 86.1867 79.5231C88.0922 78.461 89.8594 77.4446 91.4883 76.4738C93.1823 75.4273 94.6376 74.5048 95.854 73.7062C97.1357 72.832 97.8744 72.2813 98.0702 72.0543L98.802 74.7637C97.8127 75.758 96.1473 77.1921 93.8058 79.0659C91.4643 80.9397 88.8787 82.867 86.0491 84.8478C83.2143 86.7581 80.3312 88.4948 77.3999 90.058C74.539 91.6159 72.0188 92.5109 69.8393 92.7429C67.9417 92.9542 66.3678 92.7517 65.1176 92.1356Z" fill="black"/>
</g>
<defs>
<clipPath id="clip0_117_1163">
<rect width="131" height="131" fill="white"/>
</clipPath>
</defs>
</svg>
