<svg width="131" height="131" viewBox="0 0 131 131" fill="none" xmlns="http://www.w3.org/2000/svg">
<path d="M130.093 65.0466C130.093 101.007 101.007 130.093 65.0467 130.093C29.0859 130.093 0 101.007 0 65.0466C0 29.0859 29.0859 0 65.0467 0C101.007 0 130.093 29.0859 130.093 65.0466Z" fill="#FACDC5"/>
<path d="M60.816 70.3349C60.816 70.3349 61.8736 71.3926 62.9313 72.9791C63.989 74.5656 65.5755 77.7386 65.0467 81.9693C65.0467 85.6712 62.9313 90.4307 59.2294 93.0748C57.1141 94.6613 54.9988 95.719 52.3546 95.719C49.7105 96.2478 47.0663 95.719 44.4221 94.6613C39.1338 92.546 35.4319 87.7865 34.3742 82.4981C33.8454 79.854 33.8454 77.2098 34.3742 74.5656C34.9031 71.9215 35.9607 69.8061 37.5472 68.2196C40.1914 64.5178 43.8933 62.4024 46.5375 61.8736C49.1816 60.8159 50.7681 60.8159 50.7681 60.2871C50.7681 59.7582 49.1816 59.2294 46.0086 59.7583C42.8356 60.2871 38.0761 61.8736 34.3742 65.5754C32.2589 67.6908 30.6724 70.3349 29.6147 73.5079C28.5571 76.6809 28.0282 80.3828 28.5571 83.5558C29.0859 90.9595 34.3743 98.3632 41.7779 101.536C45.4798 103.123 49.7104 104.18 53.4123 103.652C57.643 103.123 61.3448 102.065 64.5178 99.9497C67.6908 97.8343 70.335 94.6613 72.4503 91.4883C74.0368 88.3153 75.0945 85.1423 75.6234 81.9693C76.1522 75.6233 74.5657 70.335 72.4503 67.1619C72.4503 66.6331 71.9215 66.1043 71.9215 66.1043C71.9215 65.5755 71.3927 65.5754 71.3927 65.0466C70.8638 64.5178 70.335 63.989 70.335 63.4601C69.8062 62.4025 69.2773 62.4024 69.2773 61.8736C69.2773 61.8736 68.2196 60.8159 67.162 59.2294C66.1043 57.6429 64.5178 54.4699 65.0467 50.2393C65.0467 46.5374 67.162 41.7779 71.3927 39.1337C73.508 37.5472 75.6234 36.4895 78.2675 35.9607C80.9117 35.4319 83.5559 35.9607 86.2 37.0184C88.8442 38.0761 90.9595 39.6625 93.0749 41.7779C94.6614 43.8932 96.2479 46.5374 96.7767 49.1816C97.3056 51.8257 97.3056 54.4699 96.7767 57.1141C96.2479 59.7583 95.1902 61.8736 93.6037 63.4601C90.9595 67.162 87.2577 69.2773 84.6135 70.3349C81.9693 71.3926 80.3828 71.3926 80.3828 71.9215C80.3828 72.4503 81.9693 72.9791 85.1423 72.4503C86.7289 72.4503 88.8442 71.9214 90.4307 70.8638C92.546 69.8061 94.6614 68.2196 96.7767 66.6331C98.8921 64.5178 100.479 61.8736 101.536 58.7006C102.594 55.5276 103.123 51.8258 102.594 48.1239C102.065 44.4221 100.479 40.7202 98.3632 37.5472C96.2479 34.3742 93.0749 31.73 89.373 30.1435C85.6712 28.557 81.4405 27.4994 77.7387 28.0282C73.508 28.557 69.8061 29.6147 66.6331 31.7301C63.4601 33.8454 60.816 36.4896 58.7006 39.6626C56.5853 42.8356 56.0565 46.0086 55.5276 49.1816C54.9988 55.5276 56.5853 60.8159 58.7006 64.5178C59.2295 65.5754 59.7583 66.1043 60.2871 66.6331C60.816 67.162 61.3448 67.6908 61.3448 68.2196C60.2871 69.8061 60.816 70.3349 60.816 70.3349Z" fill="black"/>
</svg>
