<svg width="90" height="90" viewBox="0 0 90 90" fill="none" xmlns="http://www.w3.org/2000/svg">
<g clip-path="url(#clip0_121_62)">
<path d="M40.1515 15.2513C44.363 15.2513 47.7772 11.8372 47.7772 7.62564C47.7772 3.41411 44.363 0 40.1515 0C35.94 0 32.5259 3.41411 32.5259 7.62564C32.5259 11.8372 35.94 15.2513 40.1515 15.2513Z" fill="black"/>
<path d="M55.8259 38.9311C56.1988 39.0524 56.5818 39.1113 56.9627 39.1113C57.8693 39.1113 58.7594 38.7757 59.4478 38.1455L62.5941 35.2642L55.4668 38.7872C55.5842 38.8396 55.702 38.8908 55.8259 38.9311Z" fill="black"/>
<path d="M29.817 66.0464L22.4604 83.9018C21.5318 86.1562 22.6061 88.737 24.8608 89.666C25.411 89.8929 25.9808 90 26.541 90C28.2764 90 29.9227 88.9698 30.625 87.2656L38.278 68.6908C38.4741 68.2149 38.5856 67.708 38.6071 67.1935L39.1352 54.5734L29.8653 64.8896L29.817 66.0464Z" fill="black"/>
<path d="M49.8559 52.291V41.5609L48.2856 42.3371C47.9936 43.974 47.2551 45.5367 46.0821 46.8421L40.6011 52.9418H40.6885L45.2732 65.4412L41.201 84.6691C40.6959 87.0545 42.2203 89.3978 44.6057 89.9032C44.9141 89.9686 45.2214 89.9998 45.5246 89.9998C47.5662 89.9995 49.3997 88.5754 49.8397 86.4985L54.1752 66.0279C54.3471 65.2161 54.2867 64.3722 54.0009 63.593L49.8559 52.291Z" fill="black"/>
<path d="M78.8531 20.6602C78.2405 19.4213 76.7403 18.9141 75.5013 19.5258L42.2316 35.9718C41.361 35.4341 40.3455 35.1235 39.2902 35.1359C38.4602 35.1456 37.7446 35.2519 37.7446 35.2519L41.9558 38.2256C43.3042 39.1778 44.2641 40.5315 44.7174 42.0939C44.8616 41.5147 44.917 40.9154 44.8725 40.3179L77.7192 24.0119C78.9573 23.3994 79.4653 21.8988 78.8531 20.6602Z" fill="black"/>
<path d="M22.3249 62.4176C22.3102 63.3042 22.8474 64.1066 23.6727 64.4307C23.9253 64.5299 24.1884 64.5778 24.4492 64.5778C25.0405 64.5778 25.6189 64.3306 26.0304 63.8732L37.3189 51.3105C35.995 51.2242 34.7301 50.7801 33.6366 50.0077L20.998 41.0828C19.5898 40.0885 18.6055 38.6562 18.1793 37.0061L12.8225 37.4862C11.9395 37.5654 11.1983 38.1844 10.9634 39.0392C10.7282 39.8939 11.0488 40.8049 11.767 41.3245L18.7615 46.3831C21.1322 48.0977 22.5159 50.8622 22.4677 53.7874L22.3249 62.4176Z" fill="black"/>
<path d="M39.8269 41.0463L28.8516 33.2962V25.798C28.8516 25.3794 29.191 25.0404 29.6093 25.0404C30.0278 25.0404 30.3669 25.3797 30.3669 25.798V32.3666L38.4735 31.6402C38.7449 31.6158 39.0175 31.6037 39.29 31.6037C40.3594 31.6037 41.3949 31.788 42.3627 32.1312L49.8556 28.4271V25.7977C49.8556 25.3791 50.195 25.0401 50.6133 25.0401H50.7122C51.1334 25.0401 51.4739 25.3824 51.4698 25.8036C51.4633 26.5165 51.4583 27.4846 51.4783 27.5782L58.3072 24.2492C56.9741 20.2163 53.844 17.6814 50.0469 17.6814H30.2557C25.4784 17.6814 21.5724 21.5679 21.5486 26.334L21.4777 35.1618C21.4682 36.3677 22.0496 37.5012 23.0347 38.1971L35.6737 47.1219C36.3183 47.5773 37.0592 47.796 37.7927 47.796C39.0019 47.796 40.1919 47.2014 40.9001 46.0917C41.9671 44.4201 41.4467 42.1902 39.8269 41.0463Z" fill="black"/>
</g>
<defs>
<clipPath id="clip0_121_62">
<rect width="90" height="90" fill="white"/>
</clipPath>
</defs>
</svg>
