<svg width="90" height="90" viewBox="0 0 90 90" fill="none" xmlns="http://www.w3.org/2000/svg">
<path d="M77.999 55.2234L74.2978 69.0441L74.1937 69.0722L70.1493 84.1669L44.0043 77.1638L43.6921 77.2453L16.1634 69.8709L16.1156 69.6909L8.789 67.725L10.1756 62.5472L10.2656 62.5725L23.8471 11.8856L23.7571 11.8603L25.1887 6.52501L73.2965 19.4175L73.3415 19.26L86.5912 22.8094L77.9512 55.0406L77.999 55.2234ZM79.8243 26.7131L29.1346 13.1316L19.1278 50.4816L69.8118 64.0603L79.8243 26.7131ZM34.4081 37.665L37.7662 43.4166L46.5046 35.19L50.9568 42.9694L62.7271 32.5941L65.6718 56.6663L26.7974 46.2431L34.4081 37.665ZM36.9196 32.0063C34.7118 31.4128 33.3984 29.1403 33.9918 26.9325C34.5853 24.7247 36.8549 23.4084 39.0656 24.0019C41.2734 24.5953 42.5868 26.8678 41.9934 29.0756C41.3999 31.2834 39.1303 32.5997 36.9196 32.0063ZM60.8624 12.5972L59.6981 12.9094L49.0246 10.0491L64.769 5.83032L67.2046 14.9175L61.0453 13.2666L60.8624 12.5972ZM10.1728 26.1816L13.6659 39.2175L10.8056 49.8881L3.40869 22.275L19.3499 18.0028L17.699 24.1622L10.1728 26.1816ZM19.8506 83.6325L16.9874 72.9506L38.354 78.6769L19.8506 83.6325Z" fill="black"/>
</svg>
