<svg width="90" height="90" viewBox="0 0 90 90" fill="none" xmlns="http://www.w3.org/2000/svg">
<path d="M87.8627 33.5205L78.9374 39.1629C78.2899 39.553 77.5247 39.698 76.7799 39.5717C76.0351 39.4454 75.3599 39.0562 74.8762 38.4743L70.4427 32.8903V75.2284C70.4411 75.963 70.1495 76.6671 69.6315 77.1865C69.1135 77.706 68.4115 77.9985 67.679 78H22.3543C21.6217 77.9985 20.9197 77.706 20.4017 77.1865C19.8838 76.6671 19.5921 75.963 19.5906 75.2284V32.8437L15.1163 38.4743C14.6329 39.0547 13.9588 39.443 13.2153 39.5692C12.4718 39.6955 11.7078 39.5514 11.0609 39.1629L2.12978 33.5205C1.8313 33.3485 1.57613 33.1101 1.38388 32.8238C1.19162 32.5374 1.0674 32.2106 1.02076 31.8686C0.974122 31.5265 1.00631 31.1783 1.11485 30.8507C1.22339 30.5231 1.40539 30.2248 1.64686 29.9787L14.709 15.4381C16.2443 13.7266 18.1214 12.358 20.2183 11.4211C22.3153 10.4842 24.5853 10 26.8809 10H32.321C33.386 12.4916 35.1565 14.615 37.4132 16.1072C39.6698 17.5994 42.3135 18.3948 45.0166 18.3948C47.7197 18.3948 50.3634 17.5994 52.6201 16.1072C54.8768 14.615 56.6473 12.4916 57.7122 10H63.1465C65.4434 10.0007 67.7146 10.4857 69.8125 11.4236C71.9105 12.3614 73.7883 13.7312 75.3242 15.444L88.3573 29.9729C88.5983 30.2203 88.7796 30.5198 88.8872 30.8484C88.9949 31.1769 89.026 31.5259 88.9783 31.8684C88.9305 32.211 88.8051 32.538 88.6118 32.8244C88.4184 33.1107 88.1621 33.3489 87.8627 33.5205Z" fill="black"/>
<path d="M59.8344 34.7522C59.5679 34.4097 59.3503 34.0672 59.1851 33.7359C59.035 33.4344 58.9374 33.1515 58.9036 32.9207C58.8774 32.7345 58.8924 32.5856 58.9449 32.5074C58.9599 32.4851 58.9975 32.4293 59.1551 32.433C59.2752 32.433 59.4891 32.4739 59.8382 32.6452L62 33.7173L60.1347 32.1947C60.1159 32.1799 59.7031 31.8411 58.8886 31.3088C58.412 30.9961 57.8978 30.6797 57.3611 30.3707C57.0383 30.1846 56.708 30.0022 56.3702 29.8235C56.374 29.8197 56.374 29.8197 56.3777 29.816C56.0099 29.6187 55.6309 29.4252 55.248 29.239C54.3435 28.7402 55.4807 28.8742 55.4807 28.8742C55.4807 28.8742 54.2047 28.6248 53.09 27.5862C53.0825 27.5788 52.7747 27.2772 52.6621 27.1209C52.527 26.931 52.4144 26.7226 52.3206 26.4955C52.2192 26.2498 52.1442 25.9743 52.0954 25.6803C52.0428 25.3638 52.0166 25.0139 52.0241 24.6417L52.0316 24.2433L51.6563 24.3848C51.401 24.4816 50.2713 24.7422 48.9727 24.7422C48.9164 24.7422 48.8601 24.7422 48.8001 24.7422C48.0382 24.7273 47.3626 24.623 46.7884 24.4295C46.4619 24.3178 46.1691 24.1763 45.9139 24.0088C45.6399 23.8301 45.4072 23.6142 45.2196 23.3685L45.1332 23.2531C45.1332 23.2531 44.9944 23.0782 44.9944 23C44.9944 23.0596 44.8593 23.2531 44.8593 23.2531L44.7767 23.3611C44.589 23.6068 44.3526 23.819 44.0823 24.0014C43.8271 24.1689 43.5344 24.3103 43.2079 24.422C42.6374 24.6156 41.9581 24.7236 41.1962 24.7347C39.8263 24.7608 38.6102 24.4779 38.3437 24.3774L37.9684 24.2359L37.9759 24.6342C37.9834 25.0065 37.9572 25.3527 37.9046 25.6728C37.8558 25.9669 37.7808 26.2386 37.6794 26.488C37.5894 26.7151 37.473 26.9236 37.3379 27.1134C37.214 27.2847 37.0714 27.441 36.9138 27.5862C35.7991 28.6248 34.523 28.8742 34.523 28.8742C34.523 28.8742 35.6602 28.7439 34.7557 29.239C34.0238 29.6001 33.3107 29.9798 32.6389 30.367C32.1022 30.6759 31.588 30.9924 31.1114 31.3051C30.2969 31.8411 29.8803 32.1761 29.8653 32.191L28 33.7173L30.1618 32.6452C30.5109 32.4739 30.7248 32.433 30.8449 32.433C30.9988 32.4293 31.0401 32.4888 31.0551 32.5074C31.1076 32.5856 31.1226 32.7345 31.0964 32.9207C31.0626 33.1515 30.965 33.4344 30.8149 33.7359C30.6497 34.0672 30.4321 34.4097 30.1656 34.7522C29.8766 35.1244 29.5426 35.4855 29.1747 35.8205L29.0059 35.9732L29.1297 36.1667C29.5125 36.7623 29.8391 37.3542 30.098 37.9312C30.3044 38.3891 30.4658 38.8395 30.5822 39.2639C30.7773 39.9749 30.7698 40.3807 30.7698 40.3993L30.7623 40.5668L33.2695 41.9069L33.4383 42L33.581 41.8697C33.5922 41.8585 34.0051 41.4975 34.8158 41.0321C35.2962 40.7567 35.8216 40.4998 36.3771 40.2727C37.0714 39.9861 37.8145 39.7367 38.5839 39.5357C39.7137 39.2416 40.7458 39.0852 41.6503 39.0741C42.3671 39.0629 43.0052 39.1411 43.5419 39.3086C44.0148 39.4538 44.3263 39.6399 44.5027 39.7702C44.6904 39.9116 44.7729 40.0196 44.7729 40.0196V40.0159C44.7729 40.0159 44.9981 40.31 44.9981 40.47C44.9981 40.2876 45.2233 40.0159 45.2233 40.0159C45.2233 40.0159 45.2233 40.0159 45.2233 40.0196C45.2233 40.0159 45.3059 39.9079 45.4935 39.7702C45.6699 39.6399 45.9777 39.4538 46.4544 39.3086C46.9948 39.1448 47.6329 39.0666 48.346 39.0741C49.2505 39.089 50.2826 39.2416 51.4123 39.5357C52.1817 39.7367 52.9248 39.9861 53.6192 40.2727C54.1746 40.5035 54.7001 40.7604 55.1805 41.0321C55.9987 41.5012 56.4115 41.866 56.4153 41.8697L56.5579 42L59.0875 40.6524L59.2377 40.5743L59.2302 40.4067C59.2302 40.3919 59.2264 39.9824 59.4178 39.2714C59.5342 38.847 59.6956 38.3966 59.902 37.9387C60.1609 37.3654 60.4837 36.7698 60.8703 36.1742L60.9941 35.9806L60.8253 35.828C60.4537 35.4855 60.1234 35.1244 59.8344 34.7522ZM44.893 24.3029C44.9005 24.1614 44.9268 24.0572 44.9493 23.9865C44.9531 23.9828 44.9606 23.9753 44.9643 23.9716C44.9756 23.9604 44.9831 23.9493 44.9944 23.9418C45.0056 23.953 45.0131 23.9641 45.0244 23.9716C45.0281 23.9753 45.0357 23.9828 45.0394 23.9865C45.2233 24.5039 45.1445 25.8701 44.7579 26.5662C44.3338 27.3256 44.499 28.2488 44.499 28.2488C44.499 28.2488 44.0598 29.6113 43.9622 29.7788C43.6845 30.3446 42.8963 30.6573 42.1457 30.8286C42.6749 30.6908 42.8663 30.594 42.8663 30.594C43.4668 30.259 43.7371 29.7937 43.8046 29.6485C44.315 28.5243 43.4406 28.5764 43.4406 28.5764C44.7917 27.4931 44.2437 26.8268 44.2437 26.8268C43.3054 25.7733 40.9747 27.3703 40.9747 27.3703C40.0064 28.0366 39.83 28.0776 39.83 28.0776C39.4434 28.2302 39.3008 27.9473 39.5147 27.482C39.9539 26.5699 40.7383 26.2461 40.8359 26.2126C40.9372 26.1791 40.8959 26.2684 40.8959 26.2684C40.7345 26.6667 40.8509 26.7896 40.8509 26.7896C41.061 27.039 41.8717 26.3131 41.8717 26.3131C42.9602 25.4383 43.7783 25.483 43.7783 25.483C44.6115 25.5537 44.3563 26.2498 44.3563 26.2498C44.3563 26.2498 44.3301 26.3094 44.3563 26.3354C44.3826 26.3652 44.4239 26.3578 44.4614 26.328C44.9906 25.8478 44.8818 24.5821 44.893 24.3029ZM42.4685 28.9673C42.6636 28.9636 42.84 29.1087 42.765 29.6187C42.6899 30.1324 42.3371 30.2255 42.2883 30.233C42.2883 30.233 41.9168 30.3372 41.8867 29.7192C41.8567 29.105 42.2733 28.971 42.4685 28.9673ZM42.3033 28.2153C42.3709 27.8915 42.6486 26.9832 43.0202 27.0799C43.3955 27.1767 43.1065 27.8915 43.0465 28.0106C42.9639 28.1855 42.6449 28.5764 42.3859 28.5541C42.3859 28.5541 42.2358 28.5392 42.3033 28.2153ZM59.3915 37.7339C59.1739 38.2216 59.0012 38.7018 58.8811 39.156C58.7422 39.6697 58.701 40.0419 58.6859 40.2429L56.6292 41.3411C56.434 41.1885 56.0512 40.9056 55.4695 40.5743C54.9666 40.2876 54.4186 40.0196 53.8406 39.7776C53.12 39.4761 52.3468 39.2192 51.5474 39.0108C50.2 38.6609 49.1041 38.5306 48.2146 38.5306C46.3305 38.5306 45.3885 39.1225 44.9981 39.4687C44.6078 39.1225 43.6657 38.5306 41.7817 38.5306C40.8922 38.5306 39.7962 38.6609 38.4488 39.0108C37.6494 39.2192 36.8763 39.4761 36.1556 39.7776C35.5777 40.0196 35.0297 40.2876 34.5268 40.5743C33.945 40.9056 33.5622 41.1885 33.367 41.3411L31.3103 40.2429C31.299 40.0419 31.254 39.6697 31.1151 39.156C30.995 38.7018 30.8224 38.2216 30.6047 37.7339C30.3607 37.1867 30.0605 36.6283 29.7077 36.0662C30.3945 35.4111 30.9537 34.6777 31.3028 33.9779C31.6894 33.1998 31.7607 32.5707 31.5055 32.2022C31.4342 32.098 31.3366 32.0161 31.2202 31.964C31.1977 31.9528 31.1752 31.9453 31.1527 31.9379C31.239 31.8783 31.3291 31.8188 31.4304 31.7555C31.8958 31.4502 32.3987 31.1413 32.9279 30.836C33.5885 30.4563 34.2866 30.0841 35.0034 29.7304C35.2812 29.5964 35.4801 29.481 35.6114 29.3768C35.6903 29.3172 35.7466 29.2576 35.7841 29.1981C35.8704 29.0678 35.8554 28.9487 35.8404 28.8928C35.8366 28.8742 35.8254 28.8519 35.8141 28.8295C35.9229 28.7886 36.0355 28.7476 36.1519 28.6955C36.5985 28.502 36.9663 28.2712 37.2816 27.9882C37.4693 27.8207 37.6382 27.6309 37.7845 27.4261C37.9422 27.2028 38.0773 26.9571 38.1861 26.6891C38.3025 26.4062 38.3888 26.0935 38.4413 25.7621C38.4826 25.5202 38.5089 25.2596 38.5164 24.9879C38.7191 25.0362 38.978 25.0884 39.2745 25.1368C39.6911 25.2 40.3217 25.2745 41.0273 25.2745C41.0873 25.2745 41.1474 25.2745 41.2074 25.2745C42.0256 25.2596 42.7575 25.1442 43.3843 24.932C43.403 24.9246 43.4218 24.9208 43.4406 24.9134C43.4443 24.9134 43.4481 24.9097 43.4518 24.9097C43.4706 24.9022 43.4893 24.8985 43.5044 24.8911C43.5044 24.8911 43.5081 24.8911 43.5081 24.8873C43.5231 24.8799 43.5419 24.8762 43.5569 24.8687C43.5607 24.8687 43.5644 24.865 43.5682 24.865C43.5869 24.8576 43.6019 24.8501 43.6207 24.8464C43.6245 24.8464 43.6282 24.8427 43.632 24.8427C43.647 24.8352 43.662 24.8315 43.6733 24.8241C43.677 24.8203 43.6808 24.8203 43.6883 24.8166C43.7033 24.8092 43.722 24.8017 43.7371 24.7943C43.7408 24.7906 43.7446 24.7906 43.7483 24.7868C43.7596 24.7794 43.7746 24.7757 43.7858 24.7682C43.7896 24.7645 43.7971 24.7645 43.8009 24.7608C43.8159 24.7533 43.8309 24.7459 43.8459 24.7384C43.8497 24.7347 43.8572 24.7347 43.8609 24.731C43.8722 24.7273 43.8834 24.7198 43.8947 24.7161C43.8984 24.7124 43.906 24.7124 43.9097 24.7087C43.9247 24.7012 43.9397 24.6938 43.9547 24.6863C43.9622 24.6826 43.966 24.6789 43.9735 24.6789C43.9848 24.6752 43.996 24.6677 44.0035 24.664C44.011 24.6603 44.0148 24.6565 44.0223 24.6528C44.0336 24.6454 44.0486 24.6379 44.0598 24.6342C44.0673 24.6305 44.0748 24.6268 44.0786 24.623C44.0899 24.6193 44.0974 24.6119 44.1086 24.6082C44.1161 24.6044 44.1274 24.597 44.1349 24.5933C44.1424 24.5895 44.1537 24.5821 44.1612 24.5784C44.1687 24.5746 44.1762 24.5709 44.1837 24.5672C44.1912 24.5635 44.2025 24.556 44.21 24.5523C44.2212 24.5449 44.2325 24.5411 44.24 24.5337C44.2475 24.53 44.255 24.5263 44.2625 24.5188C44.27 24.5151 44.2775 24.5114 44.285 24.5039C44.2925 24.5002 44.3 24.4928 44.3075 24.489C44.3188 24.4816 44.3301 24.4741 44.3413 24.4667C44.3488 24.463 44.3526 24.4592 44.3601 24.4555C44.3676 24.4518 44.3751 24.4444 44.3826 24.4406C44.3901 24.4369 44.3976 24.4295 44.4051 24.4257C44.4164 24.4183 44.4276 24.4109 44.4389 24.4034C44.4464 24.3997 44.4502 24.396 44.4577 24.3922C44.4652 24.3885 44.4727 24.3811 44.4802 24.3774C44.4914 24.3699 44.5027 24.3625 44.5102 24.355C44.5177 24.7831 44.4839 25.1665 44.4839 25.1665C44.4502 25.4643 44.3 25.4048 44.3 25.4048C43.3993 25.1405 42.2883 25.8068 41.594 26.0413C41.4289 26.1083 41.4739 26.0488 41.4739 26.0488C41.7066 25.6467 41.4401 25.5574 41.4401 25.5574C40.423 25.1107 38.629 26.7412 38.5952 28.0441C38.5727 28.4982 38.9855 29.0901 39.8525 28.3568C40.7195 27.6234 41.3688 27.2847 41.3688 27.2847C42.3334 26.8082 41.913 27.8766 41.913 27.8766C40.8922 31.1859 38.978 30.877 38.978 30.877C37.8371 30.6908 38.4789 30.1027 38.4789 30.1027C38.8767 29.7751 39.1732 29.883 39.1732 29.883C39.1732 29.883 39.2332 29.9091 39.2445 29.883C39.2558 29.8533 39.222 29.8421 39.222 29.8421C38.9105 29.723 38.5239 29.9054 38.5239 29.9054C37.9084 30.1957 38.0172 30.635 38.0172 30.635C38.2574 31.6252 39.2257 31.3683 40.2841 31.2045C40.3817 31.1897 40.4718 31.1748 40.5619 31.1599C44.2775 30.5792 46.0415 30.7802 46.0415 30.7802C44.7917 30.4377 44.9306 29.2316 44.9306 29.2316C46.2329 30.9105 47.843 31.0147 50.5265 31.2976C51.8139 31.4279 51.904 30.6722 51.904 30.6722C51.9678 29.9798 51.1871 29.7788 50.8493 29.7974C50.6767 29.8086 50.6917 29.8719 50.6917 29.8719C50.6954 29.8979 50.7292 29.8905 50.7292 29.8905C51.1909 29.8235 51.7463 30.1771 51.6075 30.594C51.3898 31.2343 49.9711 30.8844 49.5019 30.8211C49.7534 30.7765 49.9636 30.5866 50.1287 30.3484C50.2113 30.4675 50.3426 30.5717 50.5378 30.6313C51.1196 30.81 51.3522 30.4414 51.3185 30.4042C51.2997 30.3819 51.2096 30.4563 51.2096 30.4563C51.2096 30.4563 50.9094 30.6834 50.5641 30.3037C50.5641 30.3037 50.3577 30.0915 50.5378 29.723C50.718 29.3544 51.1346 29.2576 51.8589 29.5554C51.8589 29.5554 52.3093 29.7341 52.9999 30.4228C52.9999 30.4228 53.713 31.2083 54.0095 30.9179C54.1934 30.7429 53.7055 30.1138 53.7055 30.1138C53.7055 30.1138 53.5779 29.9575 53.9682 29.9463C54.9703 29.9947 56.3177 31.0482 56.1075 31.7443C56.1075 31.7443 55.8711 32.608 53.7693 31.6475C52.6734 31.1636 51.8327 31.2716 51.8439 32.0161C51.8439 32.0161 51.4273 31.3683 49.0103 31.3125C47.9894 31.2902 47.4565 31.6475 46.9348 32.0272C46.9948 31.5954 47.4752 30.9477 45.1295 30.944C45.1295 30.944 42.2958 30.8137 42.0331 31.5507C42.0144 31.6252 42.0631 31.6922 42.0819 31.6587C42.1007 31.6252 42.1532 31.4763 42.3934 31.5172C42.6299 31.5545 43.0652 31.99 43.0427 32.9914C43.0202 33.9928 42.7087 34.2943 42.6261 34.3054C42.5435 34.3166 42.1495 34.1379 42.0819 32.7271C42.0819 32.7271 42.172 31.279 40.9635 31.3832C40.9635 31.3832 40.5881 31.3944 40.0852 31.6922C39.9576 31.7518 39.8788 31.7927 39.5222 31.5954C39.5222 31.5954 39.0006 31.2604 38.4563 31.748C37.8483 32.2953 36.9326 34.0523 36.9138 35.3478C36.8087 35.2249 36.6473 35.1281 36.3958 35.1616C36.3958 35.1616 35.9642 35.2286 35.9342 35.6791C35.9342 35.6791 35.9305 35.7275 35.9605 35.7386C35.9905 35.7461 36.0205 35.7237 36.0468 35.6791C36.0768 35.627 36.257 35.3068 36.5422 35.5302C36.9813 35.9173 36.1932 37.4138 35.0184 36.5502C35.0184 36.5502 33.8925 35.761 35.2174 33.2557C36.3733 31.1636 37.4055 31.923 37.4542 31.9677C37.4542 31.9677 37.6457 32.1129 37.473 32.3697C37.473 32.3697 37.3341 32.5893 37.0489 32.4367C37.0489 32.4367 37.0189 32.4144 36.9964 32.4442C36.9776 32.4739 37.0189 32.5149 37.0189 32.5149C37.0189 32.5149 37.4242 32.8574 37.7583 32.4553C37.7583 32.4553 37.9572 32.2283 37.9347 31.9379C37.9347 31.9379 37.9309 31.1897 36.88 31.4167C35.8291 31.6438 34.797 32.4926 33.9751 31.9304C33.3595 31.5061 34.6319 30.3856 35.2061 30.1324C35.2061 30.1324 35.6602 29.9128 36.0731 29.95C36.4859 29.9873 36.0881 30.3223 35.9717 30.5829C35.8291 30.8546 35.9792 31.4502 37.0827 30.3186C37.0827 30.3186 38.0623 29.2539 39.0231 29.4028C39.0231 29.4028 39.4735 29.4661 39.4922 30.0357C39.4885 30.4861 38.9593 30.6015 38.7153 30.4303C38.7153 30.4303 38.6515 30.3744 38.6402 30.4042C38.6402 30.4042 38.6252 30.4414 38.6665 30.4861C38.7116 30.5308 39.0831 30.9216 39.6836 30.501C39.6836 30.501 40.0102 30.2813 39.9501 29.857C39.8901 29.4326 39.2182 29.0194 38.1824 29.3805C37.0827 29.7825 36.7787 30.1771 36.6661 30.2218C36.6661 30.2218 37.1315 29.4214 35.8817 29.7714C34.6957 30.0915 33.2207 30.8509 33.0593 31.8039C33.0593 31.8039 32.714 33.3339 34.7107 32.8425C34.1102 33.4828 32.4287 36.6991 34.0614 37.5664C34.0614 37.5664 31.7719 38.2179 31.01 36.941C30.8975 36.7177 30.8787 36.405 31.2127 36.1072C31.2127 36.1072 31.5505 35.8094 31.9971 36.1407C31.9971 36.1407 32.0647 36.1965 32.0647 36.1332C32.0647 36.1332 32.0647 35.787 31.3816 35.7461C31.3816 35.7461 30.676 35.72 30.4921 36.4013C30.4921 36.4013 30.1656 37.76 32.5188 37.8679C34.5568 37.9015 36.5948 37.1011 37.0264 36.2486C37.1803 36.7475 37.6156 37.384 38.8354 36.8629C40.3067 36.2263 40.8509 33.412 40.5994 32.5521C40.5994 32.5521 40.4755 32.0905 39.8863 32.191C39.8863 32.191 39.6799 32.2357 39.586 32.4032C39.586 32.4032 39.3684 32.7829 39.5448 32.8499C39.7212 32.9169 40.5281 32.8127 40.0364 34.8452C40.0364 34.8452 39.5785 36.6804 38.5239 36.297C38.5239 36.297 37.6457 35.9024 38.2462 33.8476C38.2462 33.8476 38.7679 32.2245 39.1882 32.2171C39.2971 32.2245 39.3158 32.4665 39.541 32.2543C39.541 32.2543 40.3442 31.5656 40.7082 31.9453C41.3125 32.6005 40.5881 36.1258 39.5936 36.982C38.599 37.8382 37.6306 38.0355 37.5631 37.8419C37.5368 37.7228 37.7583 37.6446 37.7545 37.3728C37.7545 37.3728 37.7583 36.6767 36.317 37.3431C36.317 37.3431 35.8141 37.5776 35.36 38.1583C35.36 38.1583 34.6244 39.0666 33.4496 38.5976C33.4496 38.5976 32.9092 38.3705 33.0368 38.0392C33.0368 38.0392 33.0443 38.0169 33.033 38.0094C33.0217 38.002 32.9392 38.0466 32.9392 38.1918C32.9429 38.3854 33.078 39.0033 34.0126 38.9587C34.0126 38.9587 34.7782 38.9884 35.4163 38.229C36.0543 37.4696 36.7974 37.4138 36.8275 37.5701C36.8612 37.7265 36.317 37.8754 36.3808 38.3668C36.3808 38.3668 36.4446 38.7725 37.9234 38.1323C37.9234 38.1323 40.9334 36.7586 41.7216 36.1928C42.0331 35.9843 42.2095 35.586 42.2095 35.586C42.2095 35.586 42.2583 35.4892 42.2433 35.4929C42.2433 35.4929 42.232 35.4743 42.1757 35.5562C42.1194 35.6456 41.7929 36.0774 41.609 35.6902C41.609 35.6902 41.1173 34.3985 41.6616 32.9542C41.6616 32.9542 41.8492 33.6168 42.4347 35.7275C43.0127 37.7972 44.9643 38.4189 46.2404 37.7861C46.2404 37.7861 48.8714 36.4869 49.2242 37.6781C49.2993 37.9982 48.9502 38.1509 48.7851 38.1658C48.7851 38.1658 48.5899 38.1881 48.4435 38.0801C48.4435 38.0801 48.3985 38.0466 48.3685 38.0913C48.3685 38.0913 48.7363 38.5566 49.3706 38.1658C49.9823 37.7302 49.5432 37.1346 49.4231 37.0564C49.4231 37.0564 51.3372 37.9201 52.1442 38.1955C52.9511 38.4673 53.4428 38.5566 53.5366 38.363C53.6154 38.1769 53.4578 37.9238 53.0862 37.5776C53.0862 37.5776 53.0262 37.5106 53.2438 37.5069C53.4578 37.5069 53.7806 37.5143 54.4749 38.2141C55.1993 38.9661 55.9724 38.9103 56.6029 38.7949C56.6029 38.7949 58.9224 38.4598 59.4403 36.714C59.4403 36.714 59.658 35.9508 58.6296 35.7461C58.6296 35.7461 58.1417 35.6567 57.879 36.0737C57.8527 36.1183 57.8603 36.1667 57.9015 36.163C57.9015 36.163 57.9203 36.1705 57.9954 36.096C58.1155 35.9918 58.4495 35.8726 58.7798 36.163C58.7798 36.163 59.3428 36.6358 58.5471 37.5925C57.7101 38.5715 56.2539 38.7539 55.8298 38.646C54.8502 38.3966 54.6701 37.8047 54.5087 37.7451C54.5087 37.7451 55.7847 38.0913 56.5541 37.1123C56.9595 36.4757 56.6517 36.1816 56.6255 36.1556C56.6255 36.1556 56.2089 35.7014 55.6534 36.1556C55.4282 36.3454 55.4958 36.6432 55.5295 36.6469C55.5295 36.6469 55.5596 36.6618 55.5858 36.5948C55.5858 36.5948 55.7322 36.2188 56.1 36.4422C56.359 36.5799 56.1601 37.492 55.4357 37.4882C55.4357 37.4882 54.1559 37.4734 54.2159 35.7089C54.2872 34.7931 54.6438 34.4395 54.6025 33.5274C54.6025 33.5274 54.6363 32.6899 53.5441 31.9007C54.565 32.3772 55.9086 33.6093 56.7793 32.5372C56.7793 32.5372 57.6013 31.4763 55.4057 30.2776C54.2197 29.656 52.7822 29.3693 53.2589 30.2143C53.2589 30.2143 51.5549 28.8742 50.4965 29.3358C50.4965 29.3321 50.4965 29.3284 50.4965 29.3246C50.6917 27.106 48.3685 26.2275 46.8372 26.1902C45.2646 26.1344 44.8405 27.2661 44.8405 27.2661C44.9193 26.1493 45.6887 25.844 45.9214 25.751C46.1579 25.6728 46.2217 25.7473 46.2217 25.7473C45.8538 25.9892 45.9289 26.1381 45.9289 26.1381C45.9815 26.2684 46.3005 26.1381 46.3005 26.1381C48.3159 25.4457 49.577 26.529 49.577 26.529C50.733 27.3852 51.2021 26.9273 51.2021 26.9273C51.7576 26.4322 51.2021 25.8701 51.2021 25.8701C50.6879 25.3973 50.1137 25.7361 50.125 25.7957C50.1362 25.8329 50.17 25.8329 50.2188 25.8366C51.037 25.8552 50.9281 26.3913 50.9281 26.3913C50.808 27.1358 49.2242 26.1605 49.2242 26.1605C48.3234 25.6021 47.1524 25.7547 47.1524 25.7547C46.5745 25.8292 46.672 25.7733 46.672 25.7733C46.8109 25.6542 46.7696 25.5165 46.7696 25.5165C46.6195 24.9543 45.6962 25.5797 45.6962 25.5797C45.441 25.7435 45.4485 25.5053 45.4448 25.4383C45.441 25.3973 45.4297 24.6714 45.426 24.3587C45.4372 24.3662 45.4523 24.3774 45.4635 24.3848C45.4673 24.3885 45.4748 24.3922 45.4785 24.396C45.4898 24.4034 45.501 24.4109 45.5123 24.4183C45.5161 24.422 45.5198 24.4257 45.5273 24.4257C45.5386 24.4332 45.5498 24.4406 45.5611 24.4481C45.5649 24.4518 45.5724 24.4555 45.5761 24.4592C45.5874 24.4667 45.5986 24.4741 45.6136 24.4816C45.6174 24.4853 45.6212 24.4853 45.6249 24.489C45.6362 24.4965 45.6474 24.5039 45.6587 24.5114C45.6624 24.5151 45.6699 24.5188 45.6737 24.5188C45.6887 24.5263 45.7 24.5337 45.715 24.5449C45.7187 24.5486 45.7225 24.5486 45.7262 24.5523C45.7375 24.5598 45.7488 24.5672 45.76 24.5709C45.7638 24.5746 45.7713 24.5784 45.775 24.5784C45.79 24.5858 45.8051 24.5933 45.8163 24.6044C45.8201 24.6082 45.8238 24.6082 45.8276 24.6119C45.8388 24.6193 45.8501 24.6268 45.8651 24.6305C45.8689 24.6342 45.8726 24.6342 45.8801 24.6379C45.8951 24.6454 45.9101 24.6528 45.9252 24.6603C45.9289 24.664 45.9327 24.664 45.9364 24.6677C45.9477 24.6752 45.9627 24.6789 45.9739 24.6863C45.9777 24.69 45.9815 24.69 45.9852 24.6938C46.0002 24.7012 46.0152 24.7087 46.0302 24.7161C46.034 24.7198 46.0378 24.7198 46.0415 24.7236C46.0565 24.731 46.0678 24.7347 46.0828 24.7422C46.0865 24.7422 46.0903 24.7459 46.0941 24.7459C46.1091 24.7533 46.1278 24.7608 46.1428 24.7682C46.1466 24.7719 46.1503 24.7719 46.1541 24.7719C46.1691 24.7794 46.1804 24.7831 46.1954 24.7906C46.1991 24.7906 46.2029 24.7943 46.2066 24.7943C46.2217 24.8017 46.2404 24.8092 46.2554 24.8166C46.2592 24.8166 46.2629 24.8203 46.2667 24.8203C46.2817 24.8278 46.2967 24.8315 46.3117 24.8389C46.3155 24.8389 46.3155 24.8427 46.3192 24.8427C46.338 24.8501 46.353 24.8576 46.3718 24.8613C46.3755 24.8613 46.3793 24.865 46.383 24.865C46.3981 24.8725 46.4168 24.8762 46.4318 24.8836H46.4356C46.4544 24.8911 46.4694 24.8948 46.4881 24.9022C46.4919 24.9022 46.4956 24.906 46.4994 24.906C46.5182 24.9134 46.5369 24.9171 46.5557 24.9246C47.1825 25.1368 47.9143 25.2522 48.7325 25.267C49.5132 25.2819 50.215 25.2 50.6654 25.1293C50.9619 25.0846 51.2209 25.0288 51.4236 24.9804C51.4311 25.2522 51.4573 25.509 51.4986 25.7547C51.5549 26.086 51.6412 26.3987 51.7576 26.6816C51.8664 26.9459 52.0015 27.1953 52.1592 27.4187C52.3056 27.6234 52.4744 27.8133 52.6621 27.9808C52.7222 28.0366 52.8573 28.1371 52.8573 28.1334C53.1275 28.3456 53.439 28.5243 53.7993 28.6806C53.9157 28.729 54.0283 28.7737 54.1371 28.8147C54.1258 28.837 54.1183 28.8593 54.1108 28.8779C54.0958 28.9375 54.0808 29.0529 54.1671 29.1832C54.2047 29.2428 54.2647 29.3023 54.3398 29.3619C54.4711 29.4661 54.6701 29.5815 54.9478 29.7155C55.0078 29.7453 55.0679 29.7751 55.1279 29.8049C55.1279 29.8086 55.1242 29.8086 55.1242 29.8123C55.781 30.1399 56.419 30.4824 57.0233 30.8286C57.5525 31.1338 58.0554 31.4428 58.5208 31.748C58.6184 31.8113 58.7122 31.8746 58.7985 31.9304C58.776 31.9379 58.7535 31.9491 58.731 31.9565C58.6146 32.0086 58.5171 32.0905 58.442 32.1947C58.1868 32.5633 58.2581 33.1924 58.6447 33.9704C58.9937 34.6703 59.5529 35.4036 60.2398 36.0588C59.9358 36.6283 59.6355 37.1867 59.3915 37.7339ZM45.8088 29.0455C45.6061 28.9896 45.3096 28.6806 45.0507 28.1855C45.0507 28.1855 45.2308 27.4336 45.6587 27.415C46.0152 27.3815 46.004 28.461 46.004 28.5317C46.0002 28.5317 46.0115 29.1013 45.8088 29.0455ZM47.0173 26.5513C47.0173 26.5513 47.2838 26.462 47.3851 27.1879C47.3851 27.1879 47.6929 30.0208 47.2725 30.1659C47.2725 30.1659 47.0361 30.2702 46.8372 29.7081C46.6383 29.1497 46.1954 26.8342 47.0173 26.5513ZM48.6725 27.1395C49.1078 27.065 49.3481 28.3717 49.3968 29.0268C49.4456 29.6783 49.2242 30.1511 48.954 30.1622C48.954 30.1622 48.7175 30.1995 48.6087 29.6522C48.5073 29.105 48.2409 27.214 48.6725 27.1395ZM53.7167 37.1532C52.8798 36.7772 52.2868 36.9894 52.1855 37.2202C52.0841 37.451 52.4557 37.6893 52.4181 37.8307C52.3844 37.9685 51.6788 37.7563 51.6788 37.7563C50.1362 37.2723 48.4023 35.9508 48.5036 34.1752C48.6612 31.279 50.4252 31.6215 50.4252 31.6215C48.2259 32.2543 48.9652 34.9643 48.9652 34.9643C49.5432 36.8182 50.7855 37.0453 51.5286 37.0937C52.2455 37.1569 53.2664 36.5948 53.2514 35.6754C53.2363 34.7559 52.6884 34.3203 52.2905 34.3241C51.889 34.3315 51.7801 34.6926 51.7989 34.875C51.8176 35.0611 51.904 35.1505 51.9265 35.1393C51.949 35.1281 51.9377 35.0351 51.9377 34.9978C51.9528 34.7484 52.2455 34.7857 52.2455 34.7857C52.9549 34.9159 53.0149 35.5376 53.0149 35.5376C53.0862 36.5502 52.0015 36.4385 52.0015 36.4385C50.8043 36.3491 50.1813 35.0611 50.1813 35.0611C49.7797 34.3352 49.8923 33.0323 50.4215 32.3399C50.9582 31.6587 51.4761 32.1612 51.4761 32.1612C51.8477 32.5112 51.6412 32.8127 51.6412 32.8127C51.3485 33.2855 51.0182 33.0174 51.0182 33.0174C51.0182 33.0174 50.9882 32.9839 50.9694 32.9877C50.9544 32.9877 50.9582 33.0137 50.9582 33.0137C50.9882 33.2259 51.4198 33.2482 51.4198 33.2482C51.919 33.252 52.1817 32.8053 52.0691 32.4442C52.4144 32.7829 53.0111 32.6228 53.1087 32.5931C53.2063 32.567 53.1838 32.5223 53.1838 32.5223C53.1763 32.5037 53.1087 32.5186 53.1087 32.5186C52.5533 32.6154 52.5082 32.258 52.5082 32.258C52.4594 31.9863 52.6809 31.8932 52.6809 31.8932C53.6342 31.4763 54.2797 33.0286 53.6792 34.5362C53.0449 36.0476 53.3902 36.7698 53.7167 37.1532ZM45.0357 33.5795C45.0732 33.587 45.2346 33.6652 45.5348 33.5833C45.5348 33.5833 43.2642 36.7549 45.5949 37.7079C45.5949 37.7079 43.9059 37.8456 44.2813 35.3515C44.4502 34.2571 45.2759 32.7457 45.2759 32.7457C45.2759 32.7457 45.8576 31.789 45.2646 31.6624C44.9831 31.6066 44.9981 31.5396 44.9981 31.5396C44.9981 31.5396 44.9981 31.3199 45.5761 31.2939C45.5761 31.2939 46.0453 31.2678 46.1579 31.7443C46.3117 32.3511 46.0152 33.3711 45.0469 33.5609C45.0432 33.5647 45.0056 33.5721 45.0357 33.5795ZM44.2325 32.835C44.2175 32.8201 44.1912 32.8462 44.1912 32.8462C43.7145 33.2371 43.4969 32.634 43.4893 32.4777C43.4481 31.6773 44.3676 31.5842 44.3676 31.5842C44.0673 31.9007 44.2963 32.057 44.2963 32.057C44.4276 32.1612 44.4802 32.2729 44.4802 32.2729C44.604 32.4814 43.9022 34.1752 43.9022 34.1752C43.1778 35.7461 43.4556 36.6581 44.6266 37.6595C42.4647 36.8815 43.3692 33.0063 43.3692 33.0063C43.8234 33.4083 44.1949 32.902 44.1949 32.902C44.1949 32.902 44.2475 32.8499 44.2325 32.835ZM45.8764 34.7782C46.0678 35.8354 48.8189 36.7698 48.8189 36.7698C48.2859 36.6804 47.569 37.0639 47.569 37.0639C46.8672 37.4101 46.4168 37.3431 46.4168 37.3431C45.0394 37.1309 45.8764 34.7782 45.8764 34.7782ZM46.8597 33.1254C47.1037 32.8909 47.4189 32.5335 47.6141 32.6191C47.7342 32.675 47.9481 32.8239 47.8243 34.1417C47.8243 34.1417 47.7417 35.3254 47.4264 35.3627C47.4264 35.3627 46.7471 35.4111 46.5857 34.0709C46.5557 33.7098 46.6157 33.3599 46.8597 33.1254Z" fill="white"/>
</svg>
