<svg width="90" height="90" viewBox="0 0 90 90" fill="none" xmlns="http://www.w3.org/2000/svg">
<path d="M33.75 71.25C33.75 75.3922 28.7132 78.75 22.5 78.75C16.2868 78.75 11.25 75.3922 11.25 71.25C11.25 67.1078 16.2868 63.75 22.5 63.75C28.7132 63.75 33.75 67.1078 33.75 71.25ZM33.75 71.25V18.75L78.75 11.25V63.75M78.75 63.75C78.75 67.8922 73.7134 71.25 67.5 71.25C61.2866 71.25 56.25 67.8922 56.25 63.75C56.25 59.6078 61.2866 56.25 67.5 56.25C73.7134 56.25 78.75 59.6078 78.75 63.75ZM33.75 33.75L78.75 26.25" stroke="black" stroke-width="7" stroke-linecap="round" stroke-linejoin="round"/>
</svg>
