<svg width="90" height="90" viewBox="0 0 90 90" fill="none" xmlns="http://www.w3.org/2000/svg">
<path d="M41.4664 48.4443C41.4664 48.4443 42.524 49.502 43.5817 51.0885C44.6394 52.675 46.2259 55.848 45.6971 60.0787C45.6971 63.7806 43.5817 68.5401 39.8798 71.1842C37.7645 72.7707 35.6492 73.8284 33.005 73.8284C30.3609 74.3572 27.7167 73.8284 25.0725 72.7707C19.7842 70.6554 16.0823 65.8959 15.0246 60.6075C14.4958 57.9634 14.4958 55.3192 15.0246 52.675C15.5535 50.0309 16.6111 47.9155 18.1976 46.329C20.8418 42.6272 24.5437 40.5118 27.1879 39.983C29.832 38.9253 31.4185 38.9253 31.4185 38.3965C31.4185 37.8676 29.832 37.3388 26.659 37.8677C23.486 38.3965 18.7265 39.983 15.0246 43.6848C12.9093 45.8002 11.3228 48.4443 10.2651 51.6173C9.20749 54.7903 8.67859 58.4922 9.20749 61.6652C9.73629 69.0689 15.0247 76.4726 22.4283 79.6454C26.1302 81.2324 30.3608 82.2894 34.0627 81.7614C38.2934 81.2324 41.9952 80.1744 45.1682 78.0591C48.3412 75.9437 50.9854 72.7707 53.1007 69.5977C54.6872 66.4247 55.7449 63.2517 56.2738 60.0787C56.8026 53.7327 55.2161 48.4444 53.1007 45.2713C53.1007 44.7425 52.5719 44.2137 52.5719 44.2137C52.5719 43.6849 52.0431 43.6848 52.0431 43.156C51.5142 42.6272 50.9854 42.0984 50.9854 41.5695C50.4566 40.5119 49.9277 40.5118 49.9277 39.983C49.9277 39.983 48.87 38.9253 47.8124 37.3388C46.7547 35.7523 45.1682 32.5793 45.6971 28.3487C45.6971 24.6468 47.8124 19.8873 52.0431 17.2431C54.1584 15.6566 56.2738 14.5989 58.9179 14.0701C61.5621 13.5413 64.2063 14.0701 66.8504 15.1278C69.4946 16.1855 71.6099 17.7719 73.7253 19.8873C75.3118 22.0026 76.8983 24.6468 77.4271 27.291C77.956 29.9351 77.956 32.5793 77.4271 35.2235C76.8983 37.8677 75.8406 39.983 74.2541 41.5695C71.6099 45.2714 67.9081 47.3867 65.2639 48.4443C62.6197 49.502 61.0332 49.502 61.0332 50.0309C61.0332 50.5597 62.6197 51.0885 65.7927 50.5597C67.3793 50.5597 69.4946 50.0308 71.0811 48.9732C73.1964 47.9155 75.3118 46.329 77.4271 44.7425C79.5425 42.6272 81.1294 39.983 82.1864 36.81C83.2444 33.637 83.7734 29.9352 83.2444 26.2333C82.7154 22.5315 81.1294 18.8296 79.0136 15.6566C76.8983 12.4836 73.7253 9.83936 70.0234 8.25286C66.3216 6.66636 62.0909 5.60876 58.3891 6.13756C54.1584 6.66636 50.4565 7.72406 47.2835 9.83946C44.1105 11.9548 41.4664 14.599 39.351 17.772C37.2357 20.945 36.7069 24.118 36.178 27.291C35.6492 33.637 37.2357 38.9253 39.351 42.6272C39.8799 43.6848 40.4087 44.2137 40.9375 44.7425C41.4664 45.2714 41.9952 45.8002 41.9952 46.329C40.9375 47.9155 41.4664 48.4443 41.4664 48.4443Z" fill="black"/>
</svg>
