<svg width="90" height="90" viewBox="0 0 90 90" fill="none" xmlns="http://www.w3.org/2000/svg">
<g clip-path="url(#clip0_121_62)">
<path d="M36.7464 15.7613C40.7427 15.1974 43.5253 11.5006 42.9614 7.50427C42.3975 3.50791 38.7007 0.725362 34.7043 1.28927C30.7079 1.85317 27.9254 5.54999 28.4893 9.54634C29.0532 13.5427 32.75 16.3252 36.7464 15.7613Z" fill="black"/>
<path d="M54.7898 36.1328C55.1599 36.198 55.5311 36.2026 55.8926 36.1516C56.7528 36.0302 57.5525 35.5926 58.1214 34.9024L60.7212 31.747L54.4297 36.0443C54.5482 36.0783 54.6668 36.1112 54.7898 36.1328Z" fill="black"/>
<path d="M33.7406 65.3451L29.1506 83.2732C28.5712 85.5368 29.9363 87.8419 32.2001 88.4215C32.7526 88.5632 33.3076 88.5885 33.8392 88.5135C35.486 88.2812 36.9102 87.0831 37.3484 85.3719L42.1234 66.7215C42.2457 66.2436 42.2837 65.7477 42.2352 65.2566L41.0465 53.2105L33.6315 64.2409L33.7406 65.3451Z" fill="black"/>
<path d="M50.914 49.6093L49.4773 39.4274L48.0911 40.3742C48.0332 41.9666 47.5417 43.5483 46.6034 44.9441L42.2192 51.4661L42.3021 51.4544L48.3262 62.7013L47.0365 81.4921C46.8766 83.8232 48.6369 85.8427 50.9681 86.0029C51.2696 86.0236 51.5654 86.012 51.853 85.9715C53.7903 85.6978 55.3394 84.101 55.4789 82.0713L56.8519 62.0661C56.9063 61.2727 56.7361 60.48 56.3605 59.7789L50.914 49.6093Z" fill="black"/>
<path d="M74.1943 15.712C73.4472 14.6184 71.9556 14.338 70.8619 15.0843L41.4941 35.1447C40.5959 34.751 39.5907 34.5923 38.591 34.7453C37.8046 34.8657 37.1399 35.0623 37.1399 35.0623L41.5341 37.3203C42.9411 38.0434 44.0332 39.1994 44.6725 40.6212C44.7318 40.0523 44.7041 39.4762 44.5819 38.9151L73.5672 19.0443C74.6599 18.2973 74.9411 16.8053 74.1943 15.712Z" fill="black"/>
<path d="M26.1455 62.9049C26.2502 63.7481 26.8674 64.4376 27.694 64.6346C27.9469 64.6949 28.203 64.7052 28.4505 64.6703C29.0116 64.5911 29.5273 64.2791 29.8566 63.7899L38.8862 50.3576C37.6184 50.453 36.3587 50.2009 35.2177 49.6144L22.0297 42.8378C20.5604 42.0828 19.4346 40.8555 18.8092 39.3467L13.7904 40.5195C12.963 40.7129 12.3426 41.3995 12.2342 42.2421C12.1255 43.0847 12.5516 43.9062 13.3027 44.3031L20.6172 48.1667C23.0963 49.4763 24.7795 51.9142 25.1254 54.6965L26.1455 62.9049Z" fill="black"/>
<path d="M39.8919 40.2821L28.4396 34.3974L27.4357 27.2823C27.3796 26.8851 27.6563 26.5179 28.0532 26.4619C28.4503 26.4059 28.8175 26.6825 28.8736 27.0794L29.7531 33.3125L37.3482 31.5377C37.6025 31.4782 37.8595 31.4302 38.1181 31.3937C39.1329 31.2506 40.1401 31.2868 41.1045 31.4828L47.7186 26.9648L47.3665 24.4697C47.3105 24.0725 47.5871 23.7053 47.984 23.6493L48.0778 23.6361C48.4775 23.5797 48.8465 23.8589 48.899 24.2592C48.9883 24.9365 49.1132 25.8558 49.1447 25.942L55.1789 21.8686C53.374 18.2203 50.0644 16.234 46.4613 16.7424L27.6812 19.3924C23.148 20.0321 19.962 24.243 20.5775 28.7688L21.6922 37.155C21.8447 38.3006 22.5481 39.2984 23.5762 39.8267L36.7644 46.6034C37.437 46.9491 38.1693 47.0575 38.8654 46.9592C40.0128 46.7973 41.0624 46.0738 41.5858 44.926C42.3745 43.1969 41.5821 41.1506 39.8919 40.2821Z" fill="black"/>
</g>
<defs>
<clipPath id="clip0_121_62">
<rect width="90" height="90" fill="white"/>
</clipPath>
</defs>
</svg>
