<svg width="90" height="90" viewBox="0 0 90 90" fill="none" xmlns="http://www.w3.org/2000/svg">
<g clip-path="url(#clip0_121_73)">
<path d="M84.5415 23.3964L77.4801 30.5943C76.9636 31.0986 76.2842 31.4005 75.5645 31.4455C74.8448 31.4905 74.1323 31.2756 73.5557 30.8397L68.2157 26.6106L77.4658 66.0095C77.6248 66.6935 77.5076 67.4123 77.1398 68.0087C76.7719 68.605 76.1834 69.0304 75.503 69.1917L33.3838 79.0804C32.7028 79.2388 31.9864 79.1197 31.3916 78.7494C30.7968 78.379 30.3719 77.7874 30.21 77.1042L20.9498 37.6618L18.0221 43.8778C17.6997 44.5233 17.1581 45.0317 16.4948 45.3114C15.8315 45.5911 15.0901 45.6237 14.404 45.4033L4.87175 42.1012C4.55681 42.0062 4.26761 41.8401 4.02638 41.6155C3.78515 41.391 3.59832 41.114 3.48025 40.8059C3.36218 40.4978 3.31602 40.1667 3.3453 39.8381C3.37458 39.5096 3.47854 39.1923 3.64917 38.9106L12.6107 22.5296C13.6635 20.6019 15.1088 18.9188 16.8527 17.5894C18.5967 16.2601 20.6004 15.3143 22.7337 14.8134L27.789 13.6265C29.323 15.7127 31.4322 17.3025 33.8553 18.1988C36.2784 19.095 38.9089 19.2584 41.4209 18.6687C43.9328 18.0789 46.2157 16.762 47.9868 14.881C49.7579 13 50.9392 10.6377 51.3845 8.08679L56.4345 6.90116C58.5691 6.40066 60.7856 6.3565 62.9401 6.77154C65.0945 7.18659 67.1389 8.05156 68.9404 9.31032L84.2259 19.9871C84.504 20.1648 84.7379 20.4039 84.9097 20.6862C85.0815 20.9685 85.1867 21.2864 85.2171 21.6156C85.2476 21.9448 85.2025 22.2765 85.0854 22.5851C84.9683 22.8938 84.7822 23.1714 84.5415 23.3964Z" fill="black"/>
</g>
<defs>
<clipPath id="clip0_121_73">
<rect width="90" height="90" fill="white"/>
</clipPath>
</defs>
</svg>
