<svg width="90" height="90" viewBox="0 0 90 90" fill="none" xmlns="http://www.w3.org/2000/svg">
<path d="M31.75 71.25C31.75 75.3922 26.7132 78.75 20.5 78.75C14.2868 78.75 9.25 75.3922 9.25 71.25C9.25 67.1078 14.2868 63.75 20.5 63.75C26.7132 63.75 31.75 67.1078 31.75 71.25ZM31.75 71.25V18.75L76.75 11.25V63.75M76.75 63.75C76.75 67.8922 71.7134 71.25 65.5 71.25C59.2866 71.25 54.25 67.8922 54.25 63.75C54.25 59.6078 59.2866 56.25 65.5 56.25C71.7134 56.25 76.75 59.6078 76.75 63.75ZM31.75 33.75L76.75 26.25" stroke="black" stroke-width="7" stroke-linecap="round" stroke-linejoin="round"/>
</svg>
