<svg height="2048px" style="shape-rendering:geometricPrecision; text-rendering:geometricPrecision; image-rendering:optimizeQuality; fill-rule:evenodd; clip-rule:evenodd" viewBox="0 0 2048 2048" width="2048px" xml:space="preserve" xmlns="http://www.w3.org/2000/svg" xmlns:xlink="http://www.w3.org/1999/xlink"><defs><style type="text/css">
   <![CDATA[
    .fil3 {fill:none}
    .fil0 {fill:#000}
    .fil1 {fill:#000}
    .fil2 {fill:#ebc4be}
   ]]>
  </style></defs><g id="Layer_x0020_1"><path class="fil0" d="M1840 1024c0,217.101 -85.506,423.514 -238.996,577.003 -153.489,153.49 -359.902,238.996 -577.003,238.996 -217.101,0 -423.514,-85.506 -577.003,-238.996 -153.49,-153.489 -238.996,-359.902 -238.996,-577.003 0,-217.101 85.506,-423.514 238.996,-577.003 153.489,-153.49 359.902,-238.996 577.003,-238.996 217.101,0 423.514,85.506 577.003,238.996 153.49,153.489 238.996,359.902 238.996,577.003z"/><path class="fil1" d="M1776 1024c0,-207.665 -84.1678,-395.667 -220.251,-531.749 -136.082,-136.083 -324.084,-220.251 -531.749,-220.251 -207.665,0 -395.667,84.1678 -531.749,220.251 -136.083,136.082 -220.251,324.084 -220.251,531.749 0,207.665 84.1678,395.667 220.251,531.749 136.082,136.083 324.084,220.251 531.749,220.251 207.665,0 395.667,-84.1678 531.749,-220.251 136.083,-136.082 220.251,-324.084 220.251,-531.749z"/><path class="fil2" d="M1347.01 1241.63l0.641339 -631.114 0.0625985 0 0 -2.08229 0 -19.5213 -19.1256 3.83386 -0.459449 0.0921261 -481.979 82.2839 -13.3134 2.27362 0 13.4764 0 478.379c-4.17402,-0.943702 -8.41536,-1.69843 -12.7146,-2.25827 -11.824,-1.54016 -23.9516,-1.63465 -36.1725,-0.113386 -39.6473,4.89331 -74.3186,25.35 -98.3056,54.4642 -23.9906,29.1189 -37.2992,66.9083 -34.2272,106.468 0.185433,2.43543 0.407481,4.67953 0.659056,6.7252 4.5626,36.9626 22.9689,68.5595 49.6311,90.2257 26.6268,21.6378 61.4032,33.3071 98.7438,30.4488 2.45433,-0.187795 4.74804,-0.413386 6.86575,-0.67441 39.6071,-4.94528 74.2666,-25.4138 98.2501,-54.5292 23.7874,-28.878 37.0843,-66.28 34.3181,-105.503 0,-169.08 0.0165354,-193.605 0.0318898,-218.192l0.152362 -205.586 300.505 -55.9276 0 306.415c-4.17756,-0.938977 -8.42127,-1.68898 -12.7205,-2.24173 -11.8441,-1.52362 -23.9764,-1.59803 -36.1866,-0.0720473 -39.5859,4.89331 -74.2607,25.3736 -98.2772,54.4973 -24.0118,29.1201 -37.376,66.9095 -34.3536,106.428 0.190158,2.53347 0.422835,4.88032 0.690945,7.03583 4.60512,36.8799 23.0055,68.3859 49.6052,89.9859 26.5725,21.5788 61.2485,33.2221 98.4343,30.417 2.5441,-0.191339 4.93819,-0.427559 7.16812,-0.705119 39.6355,-4.94764 74.2819,-25.3996 98.2725,-54.4996 23.9882,-29.0977 37.3264,-66.867 34.3524,-106.453 -0.0708662,-0.86693 -0.201969,-1.88977 -0.394488,-3.09213l-0.154725 -0.883465z"/></g><rect class="fil3" height="2048" width="2048"/></svg>