<svg width="13" height="14" viewBox="0 0 13 14" fill="none" xmlns="http://www.w3.org/2000/svg">
<g clip-path="url(#clip0_4_26286)">
<path d="M11.5101 7.16168C11.3809 6.60049 10.9219 6.18652 10.3694 6.1249C9.06129 5.97878 7.73667 5.97809 6.41853 5.97878C5.09984 5.97809 3.7755 5.97878 2.467 6.1249C1.91477 6.18666 1.456 6.60063 1.32697 7.16168C1.14307 7.96081 1.14087 8.83314 1.14087 9.65598C1.14087 10.4788 1.14087 11.351 1.32476 12.1501C1.45379 12.7112 1.91256 13.1252 2.46508 13.1869C3.77329 13.3332 5.09763 13.3337 6.41619 13.3332C7.73488 13.3339 9.05895 13.3332 10.3676 13.1869C10.9198 13.1252 11.3789 12.7112 11.5079 12.1501C11.6916 11.351 11.6926 10.4788 11.6926 9.65598C11.6925 8.833 11.6938 7.96081 11.5101 7.16168ZM4.15059 7.78105H3.38689V11.8391H2.6775V7.78105H1.92773V7.11633H4.15059V7.78105ZM6.07735 11.8393H5.43923V11.4554C5.18572 11.746 4.94503 11.8877 4.71055 11.8877C4.50501 11.8877 4.36357 11.8044 4.29975 11.6262C4.26501 11.5197 4.2435 11.3513 4.2435 11.1029V8.32019H4.88107V10.9111C4.88107 11.0606 4.88107 11.1382 4.88686 11.1591C4.90216 11.2581 4.95055 11.3083 5.03601 11.3083C5.16394 11.3083 5.29766 11.2097 5.43909 11.0097V8.32019H6.07721L6.07735 11.8393ZM8.49982 10.7831C8.49982 11.1085 8.4779 11.343 8.4353 11.4922C8.35011 11.7539 8.17959 11.8877 7.92594 11.8877C7.69904 11.8877 7.48013 11.7617 7.26687 11.4984V11.8394H6.62931V7.11633H7.26687V8.65876C7.47282 8.40525 7.69145 8.27704 7.92594 8.27704C8.17959 8.27704 8.35025 8.41062 8.4353 8.67406C8.47818 8.81563 8.49982 9.04833 8.49982 9.38151V10.7831ZM10.9063 10.1959H9.63103V10.8197C9.63103 11.1455 9.73759 11.3081 9.95678 11.3081C10.1138 11.3081 10.2052 11.2228 10.2416 11.0524C10.2475 11.0178 10.2559 10.8761 10.2559 10.6204H10.9064V10.7134C10.9064 10.919 10.8986 11.0606 10.8928 11.1242C10.8714 11.2654 10.8212 11.3935 10.7439 11.5062C10.5673 11.7618 10.3057 11.8878 9.97263 11.8878C9.63903 11.8878 9.3851 11.7677 9.2008 11.5275C9.06556 11.3513 8.99609 11.0739 8.99609 10.6999V9.4674C8.99609 9.0912 9.05771 8.81605 9.19321 8.63822C9.37739 8.39739 9.63117 8.27746 9.95691 8.27746C10.2769 8.27746 10.5305 8.39739 10.7092 8.63822C10.8428 8.81605 10.9066 9.0912 10.9066 9.4674V10.1959H10.9063Z" fill="#C7FFFF"/>
<path d="M9.95112 8.8512C9.738 8.8512 9.63116 9.014 9.63116 9.33933V9.66494H10.2687V9.33933C10.2686 9.014 10.162 8.8512 9.95112 8.8512Z" fill="#C7FFFF"/>
<path d="M7.58475 8.8512C7.4797 8.8512 7.37328 8.90082 7.26672 9.00628V11.1511C7.37315 11.2578 7.4797 11.3083 7.58475 11.3083C7.76864 11.3083 7.86211 11.1511 7.86211 10.8334V9.33133C7.86211 9.014 7.76864 8.8512 7.58475 8.8512Z" fill="#C7FFFF"/>
<path d="M7.94097 5.65444C8.17601 5.65444 8.42056 5.51162 8.6771 5.21772V5.60564H9.32156V2.04919H8.6771V4.76736C8.53428 4.96917 8.39891 5.06898 8.27002 5.06898C8.18373 5.06898 8.133 5.01797 8.11894 4.91803C8.11108 4.89694 8.11108 4.8185 8.11108 4.66755V2.04919H7.46869V4.86137C7.46869 5.11254 7.49019 5.28251 7.52576 5.39017C7.59055 5.57035 7.7335 5.65444 7.94097 5.65444Z" fill="#C7FFFF"/>
<path d="M3.4546 3.67279V5.60561H4.16922V3.67279L5.02887 0.833313H4.30625L3.81866 2.70741L3.31137 0.833313H2.55939C2.71006 1.27568 2.8668 1.72025 3.01747 2.16303C3.24672 2.82858 3.38981 3.33036 3.4546 3.67279Z" fill="#C7FFFF"/>
<path d="M5.98661 5.65442C6.30946 5.65442 6.56035 5.53297 6.73832 5.29035C6.87355 5.11238 6.93834 4.83199 6.93834 4.454V3.20865C6.93834 2.82845 6.87369 2.55054 6.73832 2.37092C6.56035 2.12761 6.3096 2.00616 5.98661 2.00616C5.66542 2.00616 5.41466 2.12761 5.23628 2.37092C5.0994 2.55054 5.03461 2.82845 5.03461 3.20865V4.454C5.03461 4.83199 5.0994 5.11238 5.23628 5.29035C5.41453 5.53297 5.66542 5.65442 5.98661 5.65442ZM5.67906 3.07948C5.67906 2.75043 5.77887 2.58638 5.98661 2.58638C6.19436 2.58638 6.29388 2.75029 6.29388 3.07948V4.57545C6.29388 4.9045 6.19436 5.0691 5.98661 5.0691C5.77887 5.0691 5.67906 4.9045 5.67906 4.57545V3.07948Z" fill="#C7FFFF"/>
</g>
<defs>
<clipPath id="clip0_4_26286">
<rect width="12.5" height="12.5" fill="white" transform="translate(0.166687 0.833313)"/>
</clipPath>
</defs>
</svg>
